# https://github.com/mikedh/trimesh
v 0.01348152 0.01253463 -0.00382861
v 0.01340703 0.01244359 -0.00408520
v 0.01325805 0.01236082 -0.00455284
v 0.01384984 0.01400791 -0.00212358
v 0.01383743 0.01385893 -0.00220221
v 0.01377535 0.01337887 -0.00257053
v 0.01372569 0.01311815 -0.00282712
v 0.01365534 0.01287398 -0.00315405
v 0.01353119 0.01260085 -0.00364238
v 0.01340703 0.01199664 -0.00408106
v 0.01316287 0.01234840 -0.00481769
v 0.01306354 0.01236910 -0.00508256
v 0.01298905 0.01238565 -0.00526465
v 0.01281938 0.01248497 -0.00567021
v 0.01293111 0.01149589 -0.00393621
v 0.00865198 0.01219942 0.05352583
v 0.00798156 0.01029574 0.05372861
v 0.00798156 0.01219942 0.05372861
v 0.00728630 0.01029574 0.05377000
v 0.00728630 0.01219942 0.05377000
v -0.02486927 0.01219942 0.03384348
v -0.02447612 0.01249739 0.03454287
v -0.02476581 0.01219942 0.03461736
v -0.02420712 0.01249739 0.03519261
v -0.01591785 0.00299970 0.03119075
v -0.01958450 0.00299970 0.03400074
v -0.01966727 0.00299970 0.03335515
v -0.02006456 0.00349631 0.03413317
v -0.02016802 0.00349631 0.03335515
v -0.02006456 0.00349631 0.03257712
v -0.01958450 0.00299970 0.03270955
v -0.01933206 0.00299970 0.03460495
v -0.01893477 0.00299970 0.03512225
v -0.01841746 0.00299970 0.03551954
v -0.01866991 0.00349631 0.03595407
v -0.01929067 0.00349631 0.03547816
v -0.01976659 0.00349631 0.03485326
v -0.01976659 0.00349631 0.03185704
v -0.01652206 0.00299970 0.03094244
v -0.01716766 0.00299970 0.03085553
v -0.01781739 0.00299970 0.03094244
v -0.01841746 0.00299970 0.03119075
v -0.01893477 0.00299970 0.03158804
v -0.01933206 0.00299970 0.03210534
v -0.02457130 0.01249739 0.03384348
v -0.02457130 0.01249739 0.03117006
v -0.02476581 0.01219942 0.03039203
v -0.02486927 0.01219942 0.03117006
v -0.02486927 0.01029574 0.03384348
v -0.02476581 0.01029574 0.03461736
v -0.02446784 0.01219942 0.03534159
v -0.02377672 0.01249739 0.03575129
v -0.02476581 0.01029574 0.03039203
v -0.02486927 0.01029574 0.03117006
v -0.02446784 0.01029574 0.03534159
v -0.02399192 0.01219942 0.03596235
v -0.02321804 0.01249739 0.03618169
v 0.00471220 0.00349631 0.04945362
v 0.00496464 0.00299970 0.04901909
v 0.00543642 0.00349631 0.04975159
v 0.00595787 0.01219942 0.05337271
v 0.00610685 0.01249739 0.05311199
v 0.00556885 0.00299970 0.04927153
v 0.00621445 0.00349631 0.04985505
v 0.00511363 0.00549931 0.05096001
v 0.00408730 0.00549931 0.05053375
v -0.02017215 0.00549931 0.03635964
v -0.02085086 0.00549931 0.03547816
v -0.02399192 0.01029574 0.03596235
v -0.02337116 0.01219942 0.03644241
v 0.00595787 0.01029574 0.05337271
v 0.00659932 0.01219942 0.05364998
v 0.00659932 0.01029574 0.05364998
v 0.00865198 0.01029574 0.05352583
v 0.00925205 0.01219942 0.05317820
v 0.00907410 0.01249739 0.05293818
v 0.00853197 0.01249739 0.05325269
v 0.00792776 0.01249739 0.05343479
v 0.00730286 0.01249739 0.05347203
v 0.00668623 0.01249739 0.05336030
v 0.00621445 0.00299970 0.04935430
v 0.00699247 0.00349631 0.04975159
v 0.00686004 0.00299970 0.04927153
v 0.00833746 0.00349631 0.04897770
v 0.00746425 0.00299970 0.04901909
v 0.00771256 0.00349631 0.04945362
v 0.00621445 0.00549931 0.05110486
v -0.01929481 0.00549931 0.03703420
v -0.02337116 0.01029574 0.03644241
v 0.00746425 0.00299970 0.04469029
v 0.00798156 0.00299970 0.04508758
v 0.00921481 0.00349631 0.04685469
v 0.00911135 0.00349631 0.04763271
v 0.00881338 0.00349631 0.04835694
v 0.00731527 0.00549931 0.05096001
v 0.00925205 0.01029574 0.05317820
v 0.00976108 0.01219942 0.05269815
v 0.00798156 0.00299970 0.04862180
v 0.00837885 0.00299970 0.04810449
v 0.00862715 0.00299970 0.04750028
v 0.00871406 0.00299970 0.04685469
v 0.00862715 0.00299970 0.04620910
v 0.00837885 0.00299970 0.04560488
v 0.00921895 0.00549931 0.04985919
v 0.00833746 0.00549931 0.05053375
v 0.00976108 0.01029574 0.05269815
v 0.01014182 0.01219942 0.05211463
v 0.01046461 0.00549931 0.04685469
v 0.01031977 0.00549931 0.04795551
v 0.00989351 0.00549931 0.04898184
v 0.01014182 0.01029574 0.05211463
v 0.01037771 0.01219942 0.05145662
v 0.01037771 0.01029574 0.05145662
v -0.01638136 0.01999621 0.02884426
v -0.01641447 0.01999621 0.02881943
v -0.01644343 0.01999621 0.02879046
v -0.01646413 0.01999621 0.02875321
v -0.01647654 0.01999621 0.02871183
v -0.01648068 0.01999621 0.02867045
v 0.01322908 0.01029574 0.03820538
v 0.01228552 0.01029574 0.04287766
v 0.01260832 0.01219942 0.04133817
v 0.01266212 0.01222839 0.04108158
v 0.01283179 0.01275811 0.04025804
v 0.01286490 0.01301469 0.04009664
v -0.01363758 0.01999621 0.03023477
v 0.01322908 0.01029574 0.03823021
v 0.01322080 0.01029574 0.03832539
v -0.01078207 0.01999621 0.03136870
v 0.01322080 0.01599850 0.03832539
v 0.01346497 0.01726899 0.03708386
v 0.01341945 0.01720278 0.03731976
v 0.01339048 0.01714898 0.03746874
v 0.01334082 0.01698344 0.03772119
v 0.01325391 0.01639578 0.03815985
v 0.01280696 0.01969825 0.04009250
v 0.01272419 0.01969825 0.04017527
v -0.00887011 0.02099771 0.00688163
v -0.00988817 0.02099771 0.00532559
v -0.01063308 0.02099771 0.00362469
v -0.01314925 0.01234840 -0.00481769
v -0.01330651 0.01238565 -0.00436247
v -0.01108831 0.02099771 0.00182034
v -0.01124143 0.02099771 -0.00002954
v -0.01355067 0.01999621 -0.00198701
v -0.01384864 0.01969825 -0.00203253
v -0.01108831 0.02099771 -0.00188355
v -0.01310786 0.01999621 -0.00399415
v -0.01339341 0.01969825 -0.00408106
v -0.01325271 0.01863053 -0.00452387
v -0.01314925 0.01864709 -0.00481769
v -0.01297543 0.01860984 -0.00526878
v -0.01280576 0.01851052 -0.00567021
v -0.01267747 0.01260085 -0.00595576
v -0.01286369 0.01244359 -0.00553779
v -0.01304992 0.01236082 -0.00508256
v -0.01339341 0.01199664 -0.00408106
v -0.01218499 0.01149589 -0.00582747
v -0.01063308 0.02099771 -0.00368377
v -0.01236708 0.01999621 -0.00591438
v -0.01263608 0.01969825 -0.00604267
v -0.01261953 0.01833671 -0.00607992
v -0.01245399 0.01812151 -0.00641099
v -0.01225121 0.01778629 -0.00679586
v -0.01208567 0.01742211 -0.00708555
v -0.01194083 0.01698758 -0.00732972
v -0.01183736 0.01656546 -0.00749526
v -0.01174218 0.01518736 -0.00764424
v -0.01178770 0.01472800 -0.00757389
v -0.01186633 0.01428932 -0.00744974
v -0.01198221 0.01385893 -0.00725523
v -0.01213119 0.01346164 -0.00700692
v -0.01230087 0.01311815 -0.00670482
v -0.01248296 0.01282432 -0.00635305
v -0.01263608 0.01199664 -0.00604267
v -0.01117936 0.01149589 -0.00758630
v -0.00988817 0.02099771 -0.00538466
v -0.01134489 0.01999621 -0.00769804
v -0.01159320 0.01969825 -0.00786772
v -0.01159320 0.01199664 -0.00786772
v -0.00992127 0.01149589 -0.00917546
v -0.00887011 0.02099771 -0.00694071
v -0.01007026 0.01999621 -0.00931203
v -0.01028959 0.01969825 -0.00951481
v -0.01028959 0.01199664 -0.00951481
v -0.00843972 0.01149589 -0.01056183
v -0.00761203 0.02099771 -0.00830639
v -0.00687125 0.01999621 -0.01187785
v -0.00856801 0.01999621 -0.01071496
v -0.00875424 0.01969825 -0.01095084
v -0.00875424 0.01199664 -0.01095084
v -0.00676779 0.01149589 -0.01170404
v -0.00614703 0.02099771 -0.00944860
v -0.00501724 0.01999621 -0.01277589
v -0.00305563 0.01999621 -0.01338424
v -0.00312184 0.01969825 -0.01367393
v -0.00240175 0.01752971 -0.01382291
v -0.00205413 0.01787734 -0.01387671
v -0.00172719 0.01812151 -0.01392224
v -0.00268317 0.01713656 -0.01376911
v -0.00304735 0.01626749 -0.01369462
v -0.00166098 0.01817117 -0.01393051
v -0.00123058 0.01839464 -0.01397603
v -0.00076708 0.01855190 -0.01400914
v -0.00030357 0.01863053 -0.01402570
v -0.00313426 0.01549775 -0.01367393
v -0.00512898 0.01969825 -0.01305316
v -0.00702024 0.01969825 -0.01213858
v -0.00702024 0.01199664 -0.01213858
v -0.00494688 0.01149589 -0.01258966
v -0.00451235 0.02099771 -0.01033422
v -0.00101952 0.01999621 -0.01369048
v -0.00104435 0.01969825 -0.01398845
v 0.00000681 0.01864709 -0.01402983
v 0.00028822 0.01862640 -0.01402570
v 0.00048687 0.01860984 -0.01402155
v 0.00092554 0.01851052 -0.01400086
v -0.00136301 0.01265879 -0.01396362
v -0.00172719 0.01287398 -0.01392224
v -0.00215759 0.01320920 -0.01386016
v -0.00231071 0.01337887 -0.01383533
v -0.00248866 0.01357338 -0.01380636
v -0.00275352 0.01398308 -0.01375670
v -0.00308045 0.01488112 -0.01368634
v -0.00512898 0.01199664 -0.01305316
v -0.00301010 0.01149589 -0.01318973
v -0.00027460 0.01236910 -0.01402570
v -0.00047325 0.01238565 -0.01402155
v -0.00090778 0.01248497 -0.01400086
v -0.00312184 0.01199664 -0.01367393
v -0.00100710 0.01149589 -0.01349184
v 0.00124006 0.01260085 -0.01397603
v 0.00078070 0.01244359 -0.01400914
v 0.00031719 0.01236496 -0.01402570
v 0.00000681 0.01234840 -0.01402983
v -0.00104435 0.01199664 -0.01398845
v 0.00102072 0.01149589 -0.01349184
v 0.00306097 0.01472800 -0.01369462
v 0.00269679 0.01385893 -0.01376911
v 0.00241124 0.01346164 -0.01382291
v 0.00206775 0.01311815 -0.01387671
v 0.00174081 0.01287398 -0.01392224
v 0.00167460 0.01282432 -0.01393051
v 0.00105797 0.01199664 -0.01398845
v 0.00302372 0.01149589 -0.01318973
v -0.00275352 0.02099771 -0.01093429
v -0.00092020 0.02099771 -0.01124053
v 0.00103728 0.01999621 -0.01369048
v 0.00105797 0.01969825 -0.01398845
v 0.00137249 0.01833671 -0.01396362
v 0.00174081 0.01812151 -0.01392224
v 0.00217121 0.01778629 -0.01386016
v 0.00232433 0.01761662 -0.01383533
v 0.00249814 0.01742211 -0.01380636
v 0.00276714 0.01701241 -0.01375670
v 0.00309821 0.01611437 -0.01368634
v 0.00315201 0.01549775 -0.01367393
v 0.00313546 0.01199664 -0.01367393
v 0.00496051 0.01149589 -0.01258966
v 0.00093796 0.02099771 -0.01124053
v 0.00306924 0.01999621 -0.01338424
v 0.00313546 0.01969825 -0.01367393
v 0.00514260 0.01199664 -0.01305316
v 0.00678555 0.01149589 -0.01170404
v 0.00276714 0.02099771 -0.01093429
v 0.00503500 0.01999621 -0.01277589
v 0.00514260 0.01969825 -0.01305316
v 0.00703386 0.01199664 -0.01213858
v 0.00845334 0.01149589 -0.01056183
v 0.00452597 0.02099771 -0.01033422
v 0.00688487 0.01999621 -0.01187785
v 0.00703386 0.01969825 -0.01213858
v 0.00876786 0.01199664 -0.01095084
v 0.00993489 0.01149589 -0.00917546
v 0.00616065 0.02099771 -0.00944860
v 0.00858163 0.01999621 -0.01071496
v 0.00876786 0.01969825 -0.01095084
v 0.01030322 0.01199664 -0.00951481
v 0.01119297 0.01149589 -0.00758630
v 0.01219861 0.01149589 -0.00582747
v 0.01264970 0.01199664 -0.00604267
v 0.01263315 0.01265879 -0.00607992
v 0.01246761 0.01287398 -0.00641099
v 0.01226483 0.01320920 -0.00679586
v 0.01209929 0.01357338 -0.00708555
v 0.01195445 0.01400377 -0.00732972
v 0.01185099 0.01443003 -0.00749526
v 0.00762565 0.02099771 -0.00830639
v 0.01008388 0.01999621 -0.00931203
v 0.01030322 0.01969825 -0.00951481
v 0.01160682 0.01199664 -0.00786772
v 0.01175166 0.01536118 -0.00765252
v 0.01180132 0.01626749 -0.00757389
v 0.01187995 0.01670616 -0.00744974
v 0.01195859 0.01698758 -0.00732145
v 0.01199583 0.01713656 -0.00725937
v 0.01214481 0.01752971 -0.00700692
v 0.01231449 0.01787734 -0.00670482
v 0.01246761 0.01812151 -0.00641099
v 0.00888373 0.02099771 -0.00694071
v 0.01135851 0.01999621 -0.00769804
v 0.01160682 0.01969825 -0.00786772
v 0.01249658 0.01817117 -0.00635305
v 0.01276971 0.01846086 -0.00577781
v 0.01287732 0.01855190 -0.00553779
v 0.00990179 0.02099771 -0.00538466
v 0.01238071 0.01999621 -0.00591438
v 0.01264970 0.01969825 -0.00604267
v 0.01306354 0.01863467 -0.00508256
v 0.01316287 0.01864709 -0.00481769
v 0.01332013 0.01860984 -0.00436247
v 0.01344842 0.01851052 -0.00394449
v 0.01389123 0.01471144 -0.00183803
v 0.01386226 0.01199664 -0.00203253
v 0.01336979 0.01149589 -0.00195804
v 0.01064670 0.02099771 -0.00368377
v 0.01312148 0.01999621 -0.00399415
v 0.01340703 0.01969825 -0.00408106
v 0.01348152 0.01846500 -0.00382861
v 0.01356843 0.01833671 -0.00350995
v 0.01365534 0.01812151 -0.00315405
v 0.01366776 0.01809254 -0.00310025
v 0.01374639 0.01778629 -0.00272366
v 0.01380432 0.01742211 -0.00240085
v 0.01384984 0.01701241 -0.00212772
v 0.01387881 0.01656546 -0.00192494
v 0.01389123 0.01626335 -0.00183803
v 0.01390364 0.01563431 -0.00173870
v 0.01390364 0.01549775 -0.00174285
v 0.01400711 0.01199664 -0.00002954
v 0.01110193 0.02099771 -0.00188355
v 0.01356843 0.01999621 -0.00198701
v 0.01386226 0.01969825 -0.00203253
v 0.01400711 0.01729796 0.03425318
v 0.01290628 0.01969825 0.03988144
v 0.01286904 0.01969825 0.03999318
v 0.01259590 0.01999621 0.03986489
v 0.01257107 0.01999621 0.03990627
v 0.01253796 0.01999621 0.03993938
v 0.01250072 0.01999621 0.03996421
v 0.01245520 0.01999621 0.03997662
v 0.01240553 0.01999621 0.03998076
v 0.01236001 0.01999621 0.03997249
v -0.00761203 0.02099771 0.00824732
v 0.01125505 0.02099771 -0.00002954
v 0.01370914 0.01999621 -0.00002954
v 0.01400711 0.01969825 -0.00002954
v 0.01400711 0.01969825 0.03425318
v 0.01261246 0.01999621 0.03981937
v -0.00614703 0.02099771 0.00938952
v 0.01110193 0.02099771 0.00182034
v 0.01370914 0.01999621 0.03422835
v -0.00451235 0.02099771 0.01027101
v 0.01064670 0.02099771 0.00362469
v -0.00275352 0.02099771 0.01087522
v 0.00990179 0.02099771 0.00532559
v 0.00888373 0.02099771 0.00688163
v 0.00762565 0.02099771 0.00824732
v 0.00616065 0.02099771 0.00938952
v 0.00452597 0.02099771 0.01027101
v 0.00276714 0.02099771 0.01087522
v 0.00093796 0.02099771 0.01118146
v -0.00092020 0.02099771 0.01118146
f 62 70 61
f 35 58 66
f 57 70 62
f 44 158 176
f 157 30 53
f 334 127 330
f 108 92 330
f 89 66 71
f 35 66 88
f 88 66 89
f 78 79 18
f 79 80 72
f 62 61 72
f 72 80 62
f 315 92 101
f 102 315 101
f 15 315 102
f 264 269 90
f 90 25 264
f 264 25 259
f 90 269 91
f 279 103 91
f 55 68 69
f 259 25 39
f 237 39 40
f 38 158 44
f 30 157 175
f 158 38 175
f 175 38 30
f 53 47 142
f 142 157 53
f 314 315 15
f 330 92 314
f 92 315 314
f 330 127 120
f 120 108 330
f 127 108 120
f 65 87 19
f 65 66 58
f 87 65 64
f 338 339 136
f 19 87 17
f 18 79 20
f 79 72 20
f 73 65 19
f 73 71 66
f 66 65 73
f 279 91 274
f 274 91 269
f 52 56 70
f 70 57 52
f 196 195 213
f 207 195 196
f 149 47 146
f 146 47 48
f 48 46 146
f 146 46 145
f 67 69 68
f 89 69 67
f 67 88 89
f 231 237 40
f 259 39 245
f 39 237 245
f 29 49 54
f 180 176 158
f 158 175 180
f 149 160 161
f 161 160 179
f 150 47 149
f 150 142 47
f 156 175 157
f 280 281 15
f 280 103 279
f 280 102 103
f 15 102 280
f 10 314 15
f 15 281 10
f 269 264 268
f 268 264 259
f 92 108 109
f 128 108 127
f 128 109 108
f 127 334 128
f 84 110 104
f 31 38 44
f 30 38 31
f 31 29 30
f 37 68 55
f 98 99 84
f 101 92 93
f 92 109 93
f 60 65 58
f 60 64 65
f 82 83 86
f 82 64 83
f 136 97 107
f 137 136 339
f 137 97 136
f 353 129 343
f 343 355 353
f 343 129 80
f 126 129 353
f 62 80 126
f 80 129 126
f 23 45 21
f 22 45 23
f 24 52 116
f 56 52 24
f 119 147 145
f 145 46 119
f 46 45 119
f 41 231 40
f 226 231 41
f 184 183 190
f 179 183 184
f 177 160 159
f 182 183 178
f 178 177 182
f 160 177 178
f 178 183 179
f 179 160 178
f 159 160 148
f 148 147 159
f 145 147 148
f 148 160 149
f 149 146 148
f 148 146 145
f 28 50 49
f 49 29 28
f 28 29 26
f 26 37 28
f 55 50 28
f 28 37 55
f 157 142 141
f 141 156 157
f 142 150 141
f 175 156 155
f 12 10 281
f 269 268 273
f 86 84 105
f 84 104 105
f 106 104 110
f 26 29 27
f 29 31 27
f 35 88 36
f 88 67 36
f 36 34 35
f 36 67 68
f 68 37 36
f 85 84 86
f 85 98 84
f 86 83 85
f 101 93 100
f 100 93 99
f 84 99 94
f 99 93 94
f 94 110 84
f 94 109 110
f 94 93 109
f 58 59 63
f 63 60 58
f 64 60 63
f 95 17 87
f 87 64 95
f 64 82 95
f 74 17 95
f 95 105 74
f 95 82 86
f 86 105 95
f 338 136 336
f 136 107 336
f 112 335 336
f 336 107 112
f 112 113 121
f 121 335 112
f 113 109 121
f 109 128 121
f 18 16 77
f 77 78 18
f 229 204 228
f 258 245 244
f 244 245 237
f 244 233 232
f 114 126 353
f 62 126 114
f 114 57 62
f 138 139 116
f 116 344 138
f 56 24 51
f 22 23 51
f 51 24 22
f 188 208 190
f 44 176 43
f 176 181 43
f 176 180 185
f 185 181 176
f 226 41 210
f 210 225 226
f 210 41 42
f 210 42 192
f 209 225 210
f 192 209 210
f 226 225 230
f 173 180 175
f 173 172 180
f 164 161 179
f 172 173 164
f 175 155 154
f 149 161 151
f 151 150 149
f 151 141 150
f 156 141 151
f 152 155 156
f 156 151 152
f 152 151 161
f 330 314 329
f 314 313 329
f 329 313 327
f 6 5 314
f 314 7 6
f 314 10 8
f 8 7 314
f 320 321 8
f 322 7 8
f 8 321 322
f 279 274 278
f 278 274 269
f 269 273 278
f 213 195 212
f 247 212 195
f 258 241 240
f 243 244 232
f 258 244 243
f 74 105 96
f 96 105 104
f 104 106 96
f 111 106 110
f 111 109 113
f 110 109 111
f 34 36 33
f 83 64 81
f 64 63 81
f 349 336 335
f 131 334 348
f 131 128 334
f 76 137 339
f 205 204 213
f 213 214 205
f 205 228 204
f 249 214 213
f 235 205 214
f 233 244 234
f 244 235 234
f 234 235 214
f 340 76 339
f 77 76 340
f 78 77 340
f 340 341 78
f 362 363 342
f 342 341 362
f 342 363 355
f 355 343 342
f 342 80 79
f 342 343 80
f 79 78 342
f 78 341 342
f 350 114 353
f 115 344 116
f 116 52 115
f 115 350 344
f 114 350 115
f 115 52 57
f 57 114 115
f 194 188 211
f 194 195 207
f 207 208 194
f 208 188 194
f 190 183 189
f 189 188 190
f 197 200 196
f 196 198 197
f 147 119 144
f 119 143 144
f 42 43 186
f 192 42 186
f 186 43 181
f 191 209 186
f 186 209 192
f 186 185 191
f 181 185 186
f 236 235 244
f 229 228 236
f 236 231 226
f 226 230 236
f 196 200 201
f 179 180 168
f 180 172 171
f 171 170 180
f 172 170 171
f 174 173 175
f 166 170 172
f 155 152 153
f 153 154 155
f 153 152 161
f 327 313 326
f 326 313 325
f 324 325 5
f 5 6 324
f 314 5 4
f 5 325 4
f 4 313 314
f 325 313 4
f 10 3 2
f 10 12 11
f 11 3 10
f 277 289 290
f 290 289 302
f 266 272 267
f 246 247 195
f 195 194 246
f 246 194 211
f 358 339 338
f 276 289 277
f 298 297 302
f 302 289 301
f 300 306 301
f 301 289 300
f 258 240 239
f 242 241 258
f 258 243 242
f 97 137 75
f 137 76 75
f 75 77 16
f 75 76 77
f 32 37 26
f 32 36 37
f 32 33 36
f 337 356 338
f 338 336 337
f 336 349 337
f 134 133 335
f 335 135 134
f 128 133 134
f 134 135 128
f 132 131 348
f 348 335 132
f 335 133 132
f 132 133 128
f 128 131 132
f 123 124 335
f 123 121 128
f 128 124 123
f 125 124 128
f 335 124 125
f 250 243 232
f 232 233 217
f 217 250 232
f 249 250 217
f 211 188 193
f 188 189 193
f 213 202 199
f 199 196 213
f 199 198 196
f 139 140 117
f 116 139 117
f 117 24 116
f 22 24 117
f 227 236 228
f 235 236 227
f 228 205 227
f 205 235 227
f 200 197 223
f 223 201 200
f 203 202 213
f 213 204 203
f 203 204 229
f 206 230 225
f 196 201 206
f 206 225 207
f 207 196 206
f 162 174 175
f 175 154 162
f 162 153 161
f 154 153 162
f 163 164 173
f 173 174 163
f 174 162 163
f 161 164 163
f 163 162 161
f 165 164 179
f 179 166 165
f 172 164 165
f 165 166 172
f 179 168 167
f 167 166 179
f 170 166 167
f 323 324 6
f 323 7 322
f 323 6 7
f 320 8 9
f 9 8 10
f 263 268 259
f 259 245 263
f 263 245 258
f 338 356 357
f 357 358 338
f 359 340 339
f 339 358 359
f 277 272 271
f 271 276 277
f 271 272 266
f 300 289 288
f 289 276 288
f 279 278 291
f 291 280 279
f 281 280 291
f 311 2 3
f 3 11 310
f 310 311 3
f 13 12 281
f 281 282 14
f 305 13 14
f 14 13 281
f 352 335 348
f 352 349 335
f 346 345 352
f 356 337 354
f 354 337 349
f 335 121 122
f 122 123 335
f 121 123 122
f 128 135 130
f 130 125 128
f 130 135 335
f 335 125 130
f 251 242 243
f 243 250 251
f 241 242 251
f 251 250 249
f 249 262 251
f 249 217 216
f 233 234 216
f 216 217 233
f 187 193 189
f 187 183 182
f 187 189 183
f 219 199 202
f 198 199 219
f 219 236 230
f 22 117 118
f 118 45 22
f 118 119 45
f 118 143 119
f 118 140 143
f 118 117 140
f 230 206 224
f 224 206 201
f 224 223 230
f 201 223 224
f 170 167 169
f 169 167 168
f 180 170 169
f 169 168 180
f 1 319 320
f 320 9 1
f 1 2 312
f 312 319 1
f 10 2 1
f 1 9 10
f 258 239 238
f 267 262 261
f 266 267 261
f 265 266 261
f 249 248 261
f 261 262 249
f 261 260 265
f 261 248 260
f 267 263 257
f 257 263 258
f 257 262 267
f 258 238 257
f 362 341 361
f 341 340 361
f 276 271 275
f 275 288 276
f 282 299 303
f 281 291 284
f 297 298 284
f 292 291 302
f 329 328 347
f 305 14 304
f 349 352 351
f 351 354 349
f 351 352 345
f 241 251 252
f 252 240 241
f 252 251 262
f 215 234 214
f 215 216 234
f 214 249 215
f 249 216 215
f 202 203 218
f 218 219 202
f 236 219 218
f 229 236 218
f 218 203 229
f 220 197 198
f 198 219 220
f 220 219 230
f 255 238 239
f 255 240 254
f 255 239 240
f 254 262 255
f 262 257 256
f 256 257 238
f 256 255 262
f 238 255 256
f 340 359 360
f 360 361 340
f 270 266 265
f 270 271 266
f 270 275 271
f 283 299 282
f 283 282 281
f 281 284 283
f 298 299 283
f 283 284 298
f 302 294 293
f 293 292 302
f 294 292 293
f 311 310 318
f 318 310 309
f 2 311 318
f 312 2 318
f 318 319 312
f 320 319 318
f 318 321 320
f 254 240 253
f 240 252 253
f 253 262 254
f 253 252 262
f 222 223 197
f 230 223 222
f 302 297 296
f 297 284 285
f 285 296 297
f 286 296 285
f 285 284 291
f 291 286 285
f 287 292 294
f 294 286 287
f 291 292 287
f 287 286 291
f 324 323 333
f 333 323 322
f 325 324 333
f 322 321 333
f 321 318 333
f 333 326 325
f 327 326 333
f 333 347 328
f 333 329 327
f 333 328 329
f 309 305 308
f 308 318 309
f 305 304 308
f 308 304 14
f 308 303 299
f 282 303 308
f 308 14 282
f 308 298 302
f 308 299 298
f 197 220 221
f 221 222 197
f 221 220 230
f 230 222 221
f 295 286 294
f 295 296 286
f 295 294 302
f 302 296 295
f 346 347 332
f 347 333 332
f 332 333 318
f 332 331 345
f 332 345 346
f 302 301 307
f 307 308 302
f 318 308 307
f 307 306 316
f 307 301 306
f 316 331 317
f 331 332 317
f 317 307 316
f 317 332 318
f 318 307 317
f 48 47 54
f 54 47 53
f 71 61 70
f 71 70 89
f 89 70 69
f 70 56 69
f 48 54 49
f 21 48 49
f 59 58 35
f 35 34 59
f 20 17 18
f 19 17 20
f 19 20 73
f 73 20 72
f 61 71 73
f 73 72 61
f 190 208 209
f 191 190 209
f 29 54 53
f 53 30 29
f 18 17 16
f 16 17 74
f 45 48 21
f 45 46 48
f 21 49 23
f 49 50 23
f 225 209 208
f 225 208 207
f 51 69 56
f 55 69 51
f 51 23 50
f 51 50 55
f 185 190 191
f 185 184 190
f 185 180 179
f 179 184 185
f 272 273 268
f 277 273 272
f 112 107 111
f 111 113 112
f 111 107 97
f 97 106 111
f 236 244 237
f 237 231 236
f 290 273 277
f 290 278 273
f 75 106 97
f 75 96 106
f 75 16 74
f 74 96 75
f 32 59 34
f 32 25 90
f 40 39 32
f 32 85 83
f 90 91 32
f 32 102 101
f 34 33 32
f 101 100 32
f 103 102 32
f 32 91 103
f 32 39 25
f 44 43 32
f 32 31 44
f 26 27 32
f 32 41 40
f 99 98 32
f 42 41 32
f 32 27 31
f 98 85 32
f 32 100 99
f 32 63 59
f 32 43 42
f 83 81 32
f 32 81 63
f 248 249 213
f 213 212 248
f 248 247 260
f 212 247 248
f 263 272 268
f 263 267 272
f 278 290 291
f 291 290 302
f 310 11 12
f 12 309 310
f 13 309 12
f 13 305 309
f 348 334 347
f 347 334 330
f 347 352 348
f 346 352 347
f 330 329 347
f 270 331 316
f 270 177 159
f 270 357 356
f 159 147 270
f 353 355 270
f 139 138 270
f 265 260 270
f 270 140 139
f 270 363 362
f 182 177 270
f 147 144 270
f 270 187 182
f 355 363 270
f 270 138 344
f 270 350 353
f 260 247 270
f 270 246 211
f 270 306 300
f 344 350 270
f 270 144 143
f 143 140 270
f 247 246 270
f 356 354 270
f 316 306 270
f 362 361 270
f 211 193 270
f 358 357 270
f 270 359 358
f 300 288 270
f 345 331 270
f 270 360 359
f 193 187 270
f 270 351 345
f 288 275 270
f 354 351 270
f 361 360 270

