# https://github.com/mikedh/trimesh
v -0.01347953 0.01253063 -0.00380562
v -0.01340503 0.01243959 -0.00406220
v -0.01325605 0.01235682 -0.00452984
v -0.01384784 0.01400391 -0.00210058
v -0.01383543 0.01385493 -0.00217921
v -0.01377335 0.01337487 -0.00254753
v -0.01372369 0.01311415 -0.00280412
v -0.01365334 0.01286998 -0.00313105
v -0.01352919 0.01259685 -0.00361938
v -0.01340503 0.01199264 -0.00405806
v -0.01316087 0.01234440 -0.00479469
v -0.01306154 0.01236510 -0.00505956
v -0.01298705 0.01238165 -0.00524165
v -0.01281738 0.01248097 -0.00564721
v -0.01292912 0.01149189 -0.00391321
v -0.00864998 0.01219542 0.05354883
v -0.00797956 0.01029174 0.05375161
v -0.00797956 0.01219542 0.05375161
v -0.00728430 0.01029174 0.05379300
v -0.00728430 0.01219542 0.05379300
v 0.02487127 0.01219542 0.03386648
v 0.02447812 0.01249339 0.03456587
v 0.02476781 0.01219542 0.03464036
v 0.02420912 0.01249339 0.03521561
v 0.01591985 0.00299570 0.03121375
v 0.01958650 0.00299570 0.03402374
v 0.01966927 0.00299570 0.03337815
v 0.02006656 0.00349231 0.03415617
v 0.02017002 0.00349231 0.03337815
v 0.02006656 0.00349231 0.03260012
v 0.01958650 0.00299570 0.03273255
v 0.01933406 0.00299570 0.03462795
v 0.01893677 0.00299570 0.03514525
v 0.01841946 0.00299570 0.03554254
v 0.01867191 0.00349231 0.03597707
v 0.01929267 0.00349231 0.03550116
v 0.01976859 0.00349231 0.03487626
v 0.01976859 0.00349231 0.03188004
v 0.01652406 0.00299570 0.03096544
v 0.01716966 0.00299570 0.03087853
v 0.01781939 0.00299570 0.03096544
v 0.01841946 0.00299570 0.03121375
v 0.01893677 0.00299570 0.03161104
v 0.01933406 0.00299570 0.03212834
v 0.02457330 0.01249339 0.03386648
v 0.02457330 0.01249339 0.03119306
v 0.02476781 0.01219542 0.03041503
v 0.02487127 0.01219542 0.03119306
v 0.02487127 0.01029174 0.03386648
v 0.02476781 0.01029174 0.03464036
v 0.02446984 0.01219542 0.03536459
v 0.02377872 0.01249339 0.03577429
v 0.02476781 0.01029174 0.03041503
v 0.02487127 0.01029174 0.03119306
v 0.02446984 0.01029174 0.03536459
v 0.02399392 0.01219542 0.03598535
v 0.02322004 0.01249339 0.03620469
v -0.00471020 0.00349231 0.04947662
v -0.00496264 0.00299570 0.04904209
v -0.00543442 0.00349231 0.04977459
v -0.00595587 0.01219542 0.05339571
v -0.00610485 0.01249339 0.05313499
v -0.00556685 0.00299570 0.04929453
v -0.00621245 0.00349231 0.04987805
v -0.00511163 0.00549531 0.05098301
v -0.00408530 0.00549531 0.05055675
v 0.02017415 0.00549531 0.03638264
v 0.02085286 0.00549531 0.03550116
v 0.02399392 0.01029174 0.03598535
v 0.02337316 0.01219542 0.03646541
v -0.00595587 0.01029174 0.05339571
v -0.00659732 0.01219542 0.05367298
v -0.00659732 0.01029174 0.05367298
v -0.00864998 0.01029174 0.05354883
v -0.00925005 0.01219542 0.05320120
v -0.00907210 0.01249339 0.05296118
v -0.00852997 0.01249339 0.05327569
v -0.00792576 0.01249339 0.05345779
v -0.00730086 0.01249339 0.05349503
v -0.00668423 0.01249339 0.05338330
v -0.00621245 0.00299570 0.04937730
v -0.00699047 0.00349231 0.04977459
v -0.00685804 0.00299570 0.04929453
v -0.00833546 0.00349231 0.04900070
v -0.00746225 0.00299570 0.04904209
v -0.00771056 0.00349231 0.04947662
v -0.00621245 0.00549531 0.05112786
v 0.01929681 0.00549531 0.03705720
v 0.02337316 0.01029174 0.03646541
v -0.00746225 0.00299570 0.04471329
v -0.00797956 0.00299570 0.04511058
v -0.00921281 0.00349231 0.04687769
v -0.00910935 0.00349231 0.04765571
v -0.00881138 0.00349231 0.04837994
v -0.00731327 0.00549531 0.05098301
v -0.00925005 0.01029174 0.05320120
v -0.00975908 0.01219542 0.05272115
v -0.00797956 0.00299570 0.04864480
v -0.00837685 0.00299570 0.04812749
v -0.00862515 0.00299570 0.04752328
v -0.00871206 0.00299570 0.04687769
v -0.00862515 0.00299570 0.04623209
v -0.00837685 0.00299570 0.04562788
v -0.00921695 0.00549531 0.04988219
v -0.00833546 0.00549531 0.05055675
v -0.00975908 0.01029174 0.05272115
v -0.01013982 0.01219542 0.05213763
v -0.01046261 0.00549531 0.04687769
v -0.01031777 0.00549531 0.04797851
v -0.00989151 0.00549531 0.04900484
v -0.01013982 0.01029174 0.05213763
v -0.01037571 0.01219542 0.05147962
v -0.01037571 0.01029174 0.05147962
v 0.01638336 0.01999221 0.02886726
v 0.01641646 0.01999221 0.02884243
v 0.01644543 0.01999221 0.02881346
v 0.01646612 0.01999221 0.02877621
v 0.01647854 0.01999221 0.02873483
v 0.01648268 0.01999221 0.02869345
v -0.01322708 0.01029174 0.03822838
v -0.01228352 0.01029174 0.04290066
v -0.01260632 0.01219542 0.04136117
v -0.01266012 0.01222439 0.04110458
v -0.01282979 0.01275411 0.04028104
v -0.01286290 0.01301069 0.04011964
v 0.01363958 0.01999221 0.03025777
v -0.01322708 0.01029174 0.03825321
v -0.01321881 0.01029174 0.03834839
v 0.01078407 0.01999221 0.03139170
v -0.01321881 0.01599450 0.03834839
v -0.01346297 0.01726499 0.03710686
v -0.01341745 0.01719878 0.03734276
v -0.01338848 0.01714498 0.03749174
v -0.01333882 0.01697944 0.03774418
v -0.01325191 0.01639178 0.03818285
v -0.01280496 0.01969425 0.04011550
v -0.01272219 0.01969425 0.04019827
v 0.00887211 0.02099371 0.00690463
v 0.00989017 0.02099371 0.00534859
v 0.01063508 0.02099371 0.00364769
v 0.01315125 0.01234440 -0.00479469
v 0.01330851 0.01238165 -0.00433947
v 0.01109031 0.02099371 0.00184334
v 0.01124343 0.02099371 -0.00000654
v 0.01355267 0.01999221 -0.00196401
v 0.01385064 0.01969425 -0.00200953
v 0.01109031 0.02099371 -0.00186055
v 0.01310986 0.01999221 -0.00397115
v 0.01339541 0.01969425 -0.00405806
v 0.01325471 0.01862653 -0.00450087
v 0.01315125 0.01864309 -0.00479469
v 0.01297743 0.01860584 -0.00524578
v 0.01280776 0.01850652 -0.00564721
v 0.01267947 0.01259685 -0.00593276
v 0.01286569 0.01243959 -0.00551479
v 0.01305192 0.01235682 -0.00505956
v 0.01339541 0.01199264 -0.00405806
v 0.01218699 0.01149189 -0.00580447
v 0.01063508 0.02099371 -0.00366077
v 0.01236908 0.01999221 -0.00589138
v 0.01263808 0.01969425 -0.00601967
v 0.01262153 0.01833271 -0.00605692
v 0.01245599 0.01811751 -0.00638799
v 0.01225321 0.01778229 -0.00677286
v 0.01208767 0.01741811 -0.00706255
v 0.01194282 0.01698358 -0.00730672
v 0.01183936 0.01656146 -0.00747226
v 0.01174418 0.01518336 -0.00762124
v 0.01178970 0.01472400 -0.00755089
v 0.01186833 0.01428532 -0.00742674
v 0.01198421 0.01385493 -0.00723223
v 0.01213319 0.01345764 -0.00698392
v 0.01230287 0.01311415 -0.00668182
v 0.01248496 0.01282032 -0.00633005
v 0.01263808 0.01199264 -0.00601967
v 0.01118135 0.01149189 -0.00756330
v 0.00989017 0.02099371 -0.00536166
v 0.01134689 0.01999221 -0.00767504
v 0.01159520 0.01969425 -0.00784472
v 0.01159520 0.01199264 -0.00784472
v 0.00992327 0.01149189 -0.00915246
v 0.00887211 0.02099371 -0.00691771
v 0.01007226 0.01999221 -0.00928903
v 0.01029159 0.01969425 -0.00949181
v 0.01029159 0.01199264 -0.00949181
v 0.00844172 0.01149189 -0.01053883
v 0.00761403 0.02099371 -0.00828339
v 0.00687325 0.01999221 -0.01185485
v 0.00857001 0.01999221 -0.01069196
v 0.00875624 0.01969425 -0.01092784
v 0.00875624 0.01199264 -0.01092784
v 0.00676979 0.01149189 -0.01168104
v 0.00614903 0.02099371 -0.00942560
v 0.00501924 0.01999221 -0.01275289
v 0.00305763 0.01999221 -0.01336124
v 0.00312384 0.01969425 -0.01365093
v 0.00240375 0.01752571 -0.01379991
v 0.00205613 0.01787334 -0.01385371
v 0.00172919 0.01811751 -0.01389924
v 0.00268517 0.01713256 -0.01374611
v 0.00304935 0.01626349 -0.01367162
v 0.00166298 0.01816717 -0.01390751
v 0.00123258 0.01839064 -0.01395303
v 0.00076908 0.01854790 -0.01398614
v 0.00030557 0.01862653 -0.01400270
v 0.00313625 0.01549375 -0.01365093
v 0.00513098 0.01969425 -0.01303016
v 0.00702224 0.01969425 -0.01211558
v 0.00702224 0.01199264 -0.01211558
v 0.00494888 0.01149189 -0.01256666
v 0.00451435 0.02099371 -0.01031122
v 0.00102152 0.01999221 -0.01366748
v 0.00104635 0.01969425 -0.01396545
v -0.00000481 0.01864309 -0.01400683
v -0.00028622 0.01862240 -0.01400270
v -0.00048487 0.01860584 -0.01399855
v -0.00092354 0.01850652 -0.01397786
v 0.00136501 0.01265479 -0.01394062
v 0.00172919 0.01286998 -0.01389924
v 0.00215959 0.01320520 -0.01383716
v 0.00231271 0.01337487 -0.01381233
v 0.00249066 0.01356938 -0.01378336
v 0.00275552 0.01397908 -0.01373370
v 0.00308245 0.01487712 -0.01366334
v 0.00513098 0.01199264 -0.01303016
v 0.00301210 0.01149189 -0.01316673
v 0.00027660 0.01236510 -0.01400270
v 0.00047525 0.01238165 -0.01399855
v 0.00090978 0.01248097 -0.01397786
v 0.00312384 0.01199264 -0.01365093
v 0.00100910 0.01149189 -0.01346884
v -0.00123806 0.01259685 -0.01395303
v -0.00077870 0.01243959 -0.01398614
v -0.00031519 0.01236096 -0.01400270
v -0.00000481 0.01234440 -0.01400683
v 0.00104635 0.01199264 -0.01396545
v -0.00101872 0.01149189 -0.01346884
v -0.00305897 0.01472400 -0.01367162
v -0.00269479 0.01385493 -0.01374611
v -0.00240924 0.01345764 -0.01379991
v -0.00206575 0.01311415 -0.01385371
v -0.00173881 0.01286998 -0.01389924
v -0.00167260 0.01282032 -0.01390751
v -0.00105597 0.01199264 -0.01396545
v -0.00302172 0.01149189 -0.01316673
v 0.00275552 0.02099371 -0.01091129
v 0.00092220 0.02099371 -0.01121753
v -0.00103528 0.01999221 -0.01366748
v -0.00105597 0.01969425 -0.01396545
v -0.00137049 0.01833271 -0.01394062
v -0.00173881 0.01811751 -0.01389924
v -0.00216921 0.01778229 -0.01383716
v -0.00232233 0.01761262 -0.01381233
v -0.00249614 0.01741811 -0.01378336
v -0.00276514 0.01700841 -0.01373370
v -0.00309621 0.01611037 -0.01366334
v -0.00315001 0.01549375 -0.01365093
v -0.00313346 0.01199264 -0.01365093
v -0.00495851 0.01149189 -0.01256666
v -0.00093596 0.02099371 -0.01121753
v -0.00306724 0.01999221 -0.01336124
v -0.00313346 0.01969425 -0.01365093
v -0.00514060 0.01199264 -0.01303016
v -0.00678355 0.01149189 -0.01168104
v -0.00276514 0.02099371 -0.01091129
v -0.00503300 0.01999221 -0.01275289
v -0.00514060 0.01969425 -0.01303016
v -0.00703186 0.01199264 -0.01211558
v -0.00845134 0.01149189 -0.01053883
v -0.00452397 0.02099371 -0.01031122
v -0.00688287 0.01999221 -0.01185485
v -0.00703186 0.01969425 -0.01211558
v -0.00876586 0.01199264 -0.01092784
v -0.00993289 0.01149189 -0.00915246
v -0.00615865 0.02099371 -0.00942560
v -0.00857963 0.01999221 -0.01069196
v -0.00876586 0.01969425 -0.01092784
v -0.01030122 0.01199264 -0.00949181
v -0.01119098 0.01149189 -0.00756330
v -0.01219661 0.01149189 -0.00580447
v -0.01264770 0.01199264 -0.00601967
v -0.01263115 0.01265479 -0.00605692
v -0.01246561 0.01286998 -0.00638799
v -0.01226283 0.01320520 -0.00677286
v -0.01209729 0.01356938 -0.00706255
v -0.01195245 0.01399977 -0.00730672
v -0.01184899 0.01442603 -0.00747226
v -0.00762365 0.02099371 -0.00828339
v -0.01008188 0.01999221 -0.00928903
v -0.01030122 0.01969425 -0.00949181
v -0.01160482 0.01199264 -0.00784472
v -0.01174966 0.01535718 -0.00762952
v -0.01179932 0.01626349 -0.00755089
v -0.01187795 0.01670216 -0.00742674
v -0.01195659 0.01698358 -0.00729845
v -0.01199383 0.01713256 -0.00723637
v -0.01214281 0.01752571 -0.00698392
v -0.01231249 0.01787334 -0.00668182
v -0.01246561 0.01811751 -0.00638799
v -0.00888173 0.02099371 -0.00691771
v -0.01135651 0.01999221 -0.00767504
v -0.01160482 0.01969425 -0.00784472
v -0.01249458 0.01816717 -0.00633005
v -0.01276772 0.01845686 -0.00575481
v -0.01287532 0.01854790 -0.00551479
v -0.00989979 0.02099371 -0.00536166
v -0.01237871 0.01999221 -0.00589138
v -0.01264770 0.01969425 -0.00601967
v -0.01306154 0.01863067 -0.00505956
v -0.01316087 0.01864309 -0.00479469
v -0.01331813 0.01860584 -0.00433947
v -0.01344642 0.01850652 -0.00392149
v -0.01388923 0.01470744 -0.00181503
v -0.01386026 0.01199264 -0.00200953
v -0.01336779 0.01149189 -0.00193504
v -0.01064470 0.02099371 -0.00366077
v -0.01311948 0.01999221 -0.00397115
v -0.01340503 0.01969425 -0.00405806
v -0.01347953 0.01846100 -0.00380562
v -0.01356643 0.01833271 -0.00348695
v -0.01365334 0.01811751 -0.00313105
v -0.01366576 0.01808854 -0.00307725
v -0.01374439 0.01778229 -0.00270066
v -0.01380232 0.01741811 -0.00237785
v -0.01384784 0.01700841 -0.00210472
v -0.01387681 0.01656146 -0.00190194
v -0.01388923 0.01625935 -0.00181503
v -0.01390165 0.01563031 -0.00171570
v -0.01390165 0.01549375 -0.00171985
v -0.01400511 0.01199264 -0.00000654
v -0.01109993 0.02099371 -0.00186055
v -0.01356643 0.01999221 -0.00196401
v -0.01386026 0.01969425 -0.00200953
v -0.01400511 0.01729396 0.03427618
v -0.01290428 0.01969425 0.03990444
v -0.01286704 0.01969425 0.04001618
v -0.01259390 0.01999221 0.03988789
v -0.01256907 0.01999221 0.03992927
v -0.01253597 0.01999221 0.03996238
v -0.01249872 0.01999221 0.03998721
v -0.01245320 0.01999221 0.03999962
v -0.01240353 0.01999221 0.04000376
v -0.01235801 0.01999221 0.03999549
v 0.00761403 0.02099371 0.00827032
v -0.01125305 0.02099371 -0.00000654
v -0.01370714 0.01999221 -0.00000654
v -0.01400511 0.01969425 -0.00000654
v -0.01400511 0.01969425 0.03427618
v -0.01261046 0.01999221 0.03984237
v 0.00614903 0.02099371 0.00941252
v -0.01109993 0.02099371 0.00184334
v -0.01370714 0.01999221 0.03425135
v 0.00451435 0.02099371 0.01029401
v -0.01064470 0.02099371 0.00364769
v 0.00275552 0.02099371 0.01089822
v -0.00989979 0.02099371 0.00534859
v -0.00888173 0.02099371 0.00690463
v -0.00762365 0.02099371 0.00827032
v -0.00615865 0.02099371 0.00941252
v -0.00452397 0.02099371 0.01029401
v -0.00276514 0.02099371 0.01089822
v -0.00093596 0.02099371 0.01120446
v 0.00092220 0.02099371 0.01120446
f 92 315 101
f 66 58 35
f 62 57 114
f 330 92 108
f 71 66 89
f 88 66 35
f 89 66 88
f 343 129 353
f 80 129 343
f 126 129 80
f 80 62 126
f 126 62 114
f 114 353 126
f 353 129 126
f 57 62 70
f 70 52 57
f 44 43 176
f 176 43 181
f 101 315 102
f 330 127 334
f 120 127 330
f 330 108 120
f 120 108 127
f 23 22 51
f 21 45 23
f 45 22 23
f 53 30 157
f 157 30 175
f 175 30 38
f 19 87 65
f 58 66 65
f 17 87 19
f 93 92 101
f 19 65 73
f 66 71 73
f 73 65 66
f 94 93 99
f 51 22 24
f 61 70 62
f 52 70 56
f 51 24 56
f 56 24 52
f 146 48 47
f 160 177 159
f 142 47 53
f 142 150 47
f 53 157 142
f 181 43 186
f 192 186 42
f 42 186 43
f 44 176 158
f 158 38 44
f 175 38 158
f 158 180 175
f 176 180 158
f 91 269 90
f 103 102 280
f 345 346 352
f 314 92 330
f 315 92 314
f 335 352 348
f 36 88 35
f 35 34 36
f 89 88 67
f 88 36 67
f 67 36 68
f 49 29 54
f 50 55 28
f 28 49 50
f 29 49 28
f 95 105 86
f 87 17 95
f 100 93 101
f 100 99 93
f 94 99 84
f 86 105 84
f 84 110 94
f 58 63 59
f 87 95 64
f 64 65 87
f 72 62 80
f 72 61 62
f 80 79 72
f 46 119 45
f 145 119 46
f 48 146 46
f 46 146 145
f 118 22 45
f 45 119 118
f 47 150 149
f 149 146 47
f 160 159 148
f 148 149 160
f 145 146 148
f 146 149 148
f 147 119 145
f 145 148 147
f 147 148 159
f 156 157 175
f 185 176 181
f 185 180 176
f 185 186 191
f 181 186 185
f 175 180 173
f 167 166 170
f 15 102 315
f 15 280 102
f 315 314 15
f 15 314 10
f 279 91 103
f 103 280 279
f 357 356 338
f 330 347 329
f 329 314 330
f 3 10 2
f 109 108 92
f 92 93 109
f 109 93 94
f 94 110 109
f 113 109 111
f 111 109 110
f 106 111 110
f 121 109 113
f 121 335 122
f 97 136 107
f 352 335 349
f 128 334 127
f 109 121 128
f 127 108 128
f 108 109 128
f 77 76 75
f 75 16 77
f 96 105 74
f 74 95 17
f 105 95 74
f 89 67 69
f 68 55 69
f 69 67 68
f 37 55 68
f 37 28 55
f 68 36 37
f 98 84 99
f 104 84 105
f 110 84 104
f 104 106 110
f 96 106 104
f 104 105 96
f 81 64 83
f 63 64 81
f 86 83 82
f 83 64 82
f 82 95 86
f 82 64 95
f 60 63 58
f 60 64 63
f 58 65 60
f 65 64 60
f 52 24 116
f 160 149 161
f 143 118 119
f 141 142 157
f 157 156 141
f 150 142 141
f 155 156 175
f 172 173 180
f 172 170 166
f 41 226 210
f 210 42 41
f 192 42 210
f 226 225 210
f 41 40 231
f 231 226 41
f 231 40 237
f 191 186 209
f 209 186 192
f 192 210 209
f 209 210 225
f 269 91 274
f 91 279 274
f 291 279 280
f 257 258 263
f 90 269 264
f 264 25 90
f 264 259 25
f 25 259 39
f 237 40 39
f 358 357 338
f 340 360 359
f 361 360 340
f 340 76 77
f 77 78 340
f 355 343 353
f 317 331 316
f 345 331 332
f 332 346 345
f 332 331 317
f 332 347 346
f 333 347 332
f 306 301 307
f 307 316 306
f 317 316 307
f 328 347 333
f 333 329 328
f 328 329 347
f 325 326 333
f 314 6 7
f 6 323 7
f 112 121 113
f 335 121 112
f 336 107 136
f 336 349 335
f 336 112 107
f 335 112 336
f 336 136 338
f 352 349 351
f 351 349 354
f 345 352 351
f 132 335 348
f 77 16 18
f 18 78 77
f 79 78 18
f 97 75 137
f 137 136 97
f 137 75 76
f 29 28 26
f 26 27 29
f 28 37 26
f 30 29 31
f 29 27 31
f 44 38 31
f 31 38 30
f 85 83 86
f 86 84 85
f 84 98 85
f 117 116 24
f 117 24 22
f 22 118 117
f 52 116 115
f 114 57 115
f 57 52 115
f 151 149 150
f 151 161 149
f 150 141 151
f 151 141 156
f 173 172 164
f 154 155 175
f 175 173 174
f 119 147 144
f 144 143 119
f 169 170 180
f 180 168 169
f 167 170 169
f 169 168 167
f 180 170 171
f 171 172 180
f 170 172 171
f 193 187 189
f 178 177 160
f 246 195 247
f 194 246 211
f 195 246 194
f 230 225 226
f 244 258 243
f 251 252 262
f 281 291 280
f 281 15 10
f 280 15 281
f 278 274 279
f 279 291 278
f 269 274 278
f 256 257 262
f 237 39 245
f 245 39 259
f 244 237 245
f 245 258 244
f 263 258 245
f 245 259 263
f 262 257 267
f 267 257 263
f 267 261 262
f 261 267 266
f 266 267 272
f 359 358 339
f 339 340 359
f 339 358 338
f 76 340 339
f 339 137 76
f 338 136 339
f 136 137 339
f 300 301 306
f 289 277 290
f 289 300 288
f 301 300 289
f 314 329 313
f 326 325 313
f 5 6 314
f 324 325 333
f 333 323 324
f 324 323 6
f 6 5 324
f 324 5 325
f 10 314 8
f 314 7 8
f 322 7 323
f 333 321 322
f 322 323 333
f 321 8 322
f 322 8 7
f 337 336 338
f 349 336 337
f 338 356 337
f 356 354 337
f 354 349 337
f 122 335 123
f 123 121 122
f 123 128 121
f 348 334 131
f 131 132 348
f 334 128 131
f 128 132 131
f 20 72 79
f 79 18 20
f 33 36 34
f 156 155 152
f 152 151 156
f 161 151 152
f 165 172 166
f 165 164 172
f 179 166 167
f 179 165 166
f 167 168 179
f 161 164 179
f 164 165 179
f 179 168 180
f 160 161 179
f 179 178 160
f 162 154 175
f 175 174 162
f 350 353 114
f 114 115 350
f 116 117 139
f 139 138 116
f 265 260 261
f 265 266 270
f 261 266 265
f 261 260 248
f 177 178 182
f 211 193 188
f 188 194 211
f 188 193 189
f 189 190 188
f 195 196 213
f 195 194 207
f 207 196 195
f 197 196 200
f 200 223 197
f 226 231 236
f 236 230 226
f 201 200 196
f 223 200 201
f 244 243 232
f 252 251 241
f 12 281 10
f 302 289 290
f 301 289 302
f 302 307 301
f 291 281 284
f 269 278 273
f 255 256 262
f 258 257 238
f 257 256 238
f 256 255 238
f 276 289 288
f 277 289 276
f 341 362 361
f 361 340 341
f 341 340 78
f 327 313 329
f 326 313 327
f 327 329 333
f 333 326 327
f 4 5 314
f 325 5 4
f 314 313 4
f 4 313 325
f 10 8 9
f 335 125 124
f 124 123 335
f 124 125 128
f 128 123 124
f 128 135 134
f 134 135 335
f 130 125 335
f 335 135 130
f 128 125 130
f 130 135 128
f 32 37 36
f 36 33 32
f 32 26 37
f 161 152 153
f 153 152 155
f 155 154 153
f 153 162 161
f 154 162 153
f 163 162 174
f 173 164 163
f 163 174 173
f 163 164 161
f 161 162 163
f 344 350 115
f 344 115 116
f 116 138 344
f 140 139 117
f 118 143 140
f 140 117 118
f 187 182 183
f 189 187 183
f 183 182 178
f 184 190 183
f 183 190 189
f 183 179 184
f 178 179 183
f 199 213 196
f 205 213 204
f 214 213 205
f 195 213 212
f 247 195 212
f 262 261 249
f 261 248 249
f 216 217 249
f 249 215 216
f 249 251 262
f 249 213 214
f 214 215 249
f 194 188 208
f 208 207 194
f 208 188 190
f 223 230 222
f 197 223 222
f 243 251 250
f 250 232 243
f 251 249 250
f 250 217 232
f 250 249 217
f 242 243 258
f 258 241 242
f 242 251 243
f 242 241 251
f 283 284 281
f 298 284 283
f 268 264 269
f 269 273 268
f 263 259 268
f 259 264 268
f 252 241 240
f 240 241 258
f 275 276 288
f 80 343 342
f 342 79 80
f 342 78 79
f 342 341 78
f 342 355 363
f 343 355 342
f 363 362 342
f 362 341 342
f 1 2 10
f 10 9 1
f 335 132 133
f 133 134 335
f 133 132 128
f 128 134 133
f 233 217 216
f 244 232 233
f 232 217 233
f 204 213 203
f 197 220 198
f 198 196 197
f 198 199 196
f 219 220 230
f 219 198 220
f 199 198 219
f 219 236 218
f 230 236 219
f 228 205 204
f 225 230 206
f 206 201 196
f 206 207 225
f 196 207 206
f 230 220 221
f 221 222 230
f 221 220 197
f 197 222 221
f 292 302 291
f 291 284 285
f 285 286 291
f 286 285 296
f 320 1 9
f 320 8 321
f 320 9 8
f 307 302 308
f 308 302 298
f 3 2 311
f 311 310 3
f 3 310 11
f 11 10 3
f 11 12 10
f 254 240 255
f 254 255 262
f 258 238 239
f 239 240 258
f 239 238 255
f 255 240 239
f 271 275 270
f 270 266 271
f 276 275 271
f 271 266 272
f 271 272 277
f 277 276 271
f 244 233 234
f 234 233 216
f 216 215 234
f 234 215 214
f 213 199 202
f 202 203 213
f 218 203 202
f 202 219 218
f 199 219 202
f 235 236 244
f 244 234 235
f 235 234 214
f 214 205 235
f 229 228 204
f 236 228 229
f 204 203 229
f 218 236 229
f 229 203 218
f 224 206 230
f 201 206 224
f 224 230 223
f 223 201 224
f 291 286 287
f 287 292 291
f 298 302 297
f 302 296 297
f 297 296 285
f 297 284 298
f 297 285 284
f 295 296 302
f 286 296 295
f 318 308 309
f 309 310 318
f 310 311 318
f 333 332 318
f 318 332 317
f 317 307 318
f 307 308 318
f 318 321 333
f 318 320 321
f 318 311 2
f 298 283 299
f 299 308 298
f 309 308 305
f 262 252 253
f 253 254 262
f 252 240 253
f 240 254 253
f 227 228 236
f 236 235 227
f 205 228 227
f 227 235 205
f 292 287 294
f 294 295 302
f 294 287 286
f 286 295 294
f 2 1 312
f 312 318 2
f 282 283 281
f 282 299 283
f 14 282 281
f 308 282 14
f 302 292 293
f 293 294 302
f 292 294 293
f 1 320 319
f 319 312 1
f 320 318 319
f 318 312 319
f 308 299 303
f 303 282 308
f 299 282 303
f 305 14 13
f 281 12 13
f 13 14 281
f 304 305 308
f 308 14 304
f 304 14 305
f 53 47 48
f 48 54 53
f 53 54 29
f 29 30 53
f 89 70 61
f 61 71 89
f 347 334 348
f 330 334 347
f 352 347 348
f 346 347 352
f 50 23 55
f 55 23 51
f 54 48 49
f 49 48 21
f 49 23 50
f 21 23 49
f 35 58 59
f 59 34 35
f 71 61 72
f 72 73 71
f 21 48 46
f 46 45 21
f 111 106 107
f 107 106 97
f 97 106 75
f 75 106 96
f 74 75 96
f 16 75 74
f 69 70 89
f 69 56 70
f 69 55 51
f 51 56 69
f 111 107 112
f 113 111 112
f 16 74 18
f 18 74 17
f 73 72 20
f 19 73 20
f 20 18 17
f 20 17 19
f 185 184 179
f 180 185 179
f 190 184 185
f 190 185 191
f 236 231 237
f 236 237 244
f 302 278 291
f 290 278 302
f 273 278 290
f 290 277 273
f 32 43 44
f 32 81 83
f 90 25 32
f 101 102 32
f 41 42 32
f 32 91 90
f 32 100 101
f 34 59 32
f 44 31 32
f 32 102 103
f 83 85 32
f 32 42 43
f 103 91 32
f 99 100 32
f 32 59 63
f 32 40 41
f 25 39 32
f 32 98 99
f 63 81 32
f 32 39 40
f 27 26 32
f 32 31 27
f 32 85 98
f 32 33 34
f 212 260 247
f 212 248 260
f 248 212 249
f 249 212 213
f 208 190 191
f 191 209 208
f 225 207 208
f 208 209 225
f 272 267 268
f 268 267 263
f 268 273 277
f 277 272 268
f 306 316 275
f 359 360 275
f 275 300 306
f 275 358 359
f 275 331 345
f 275 159 177
f 275 144 147
f 275 140 143
f 275 265 270
f 275 147 159
f 275 193 211
f 275 354 356
f 356 357 275
f 275 360 361
f 211 246 275
f 275 355 353
f 345 351 275
f 275 344 138
f 357 358 275
f 363 355 275
f 275 316 331
f 361 362 275
f 275 351 354
f 143 144 275
f 353 350 275
f 247 260 275
f 187 193 275
f 275 246 247
f 275 362 363
f 288 300 275
f 177 182 275
f 138 139 275
f 260 265 275
f 275 182 187
f 350 344 275
f 139 140 275
f 11 309 12
f 11 310 309
f 12 309 13
f 309 305 13

