# https://github.com/mikedh/trimesh
v 0.02883960 -0.01551909 -0.01049988
v 0.00579582 0.04164990 -0.02466073
v 0.00611557 0.04127132 -0.02466073
v 0.00539280 0.04193826 -0.02466073
v -0.00539295 0.04193821 -0.02466077
v -0.00579597 0.04164986 -0.02466077
v -0.00611572 0.04127128 -0.02466077
v -0.00579568 -0.04164990 -0.02466077
v -0.00611543 -0.04127131 -0.02466077
v -0.00539265 -0.04193824 -0.02466077
v 0.00539310 -0.04193821 -0.02466073
v 0.00579611 -0.04164985 -0.02466073
v 0.00611587 -0.04127127 -0.02466073
v 0.02741715 0.02122724 -0.01858671
v 0.02739082 0.02120686 -0.01869792
v 0.02837589 0.01986974 -0.01858671
v 0.02917372 0.01874007 -0.01858671
v 0.02914570 0.01872207 -0.01869792
v 0.03234329 0.01241637 -0.01858669
v 0.03304816 0.01049361 -0.01858669
v 0.03301642 0.01048354 -0.01869790
v 0.03384134 0.00755381 -0.01858669
v 0.03380884 0.00754656 -0.01869790
v 0.03464070 0.00152259 -0.01858669
v 0.03460744 0.00152113 -0.01869790
v 0.03464071 -0.00152233 -0.01858669
v 0.03460745 -0.00152086 -0.01869790
v 0.03361797 -0.00838165 -0.01858669
v 0.03304823 -0.01049336 -0.01858669
v 0.03301649 -0.01048329 -0.01869791
v 0.03200021 -0.01335225 -0.01858670
v 0.03196948 -0.01333942 -0.01869791
v 0.02917385 -0.01873985 -0.01858670
v 0.02914583 -0.01872186 -0.01869792
v 0.02741730 -0.02122703 -0.01858671
v 0.02739097 -0.02120665 -0.01869793
v 0.02575397 -0.02319084 -0.01858672
v 0.02544932 -0.02355052 -0.01858672
v 0.02542488 -0.02352790 -0.01869793
v 0.03399976 -0.00450597 -0.01898638
v 0.03426398 -0.00150578 -0.01898638
v 0.03410791 -0.00452030 -0.01894668
v 0.03437297 -0.00151056 -0.01894668
v 0.03420406 -0.00453304 -0.01888288
v 0.03446987 -0.00151482 -0.01888288
v 0.03428304 -0.00454351 -0.01879844
v 0.03454946 -0.00151832 -0.01879844
v 0.03434058 -0.00455113 -0.01869790
v 0.03046798 0.01598388 -0.01894669
v 0.03055388 0.01602894 -0.01888290
v 0.02902984 0.01864765 -0.01888290
v 0.03062443 0.01606595 -0.01879846
v 0.02909687 0.01869070 -0.01879846
v 0.03067583 0.01609292 -0.01869791
v 0.02728208 -0.02112234 -0.01888291
v 0.02734507 -0.02117111 -0.01879847
v 0.02909699 -0.01869048 -0.01879846
v 0.02902997 -0.01864742 -0.01888290
v 0.03070542 -0.01610816 -0.01858670
v 0.03067594 -0.01609268 -0.01869791
v 0.03062453 -0.01606572 -0.01879845
v 0.03055399 -0.01602871 -0.01888290
v 0.03046809 -0.01598365 -0.01894669
v 0.03175287 -0.01324904 -0.01894669
v 0.03184239 -0.01328639 -0.01888289
v 0.03191591 -0.01331707 -0.01879845
v 0.03279279 -0.01041226 -0.01894668
v 0.03288523 -0.01044161 -0.01888289
v 0.03296117 -0.01046572 -0.01879845
v 0.03384139 -0.00755356 -0.01858669
v 0.03380890 -0.00754630 -0.01869790
v 0.03375225 -0.00753366 -0.01879844
v 0.03367449 -0.00751631 -0.01888289
v 0.03357983 -0.00749518 -0.01894668
v 0.03347336 -0.00747141 -0.01898638
v 0.03437359 -0.00455551 -0.01858669
v 0.03440272 -0.00422471 -0.01858668
v 0.03426397 0.00150603 -0.01898638
v 0.03437296 0.00151082 -0.01894668
v 0.03446986 0.00151508 -0.01888288
v 0.03454945 0.00151858 -0.01879844
v 0.03437356 0.00455576 -0.01858668
v 0.03434055 0.00455140 -0.01869790
v 0.03428301 0.00454377 -0.01879844
v 0.03420403 0.00453330 -0.01888288
v 0.03410787 0.00452056 -0.01894668
v 0.03399973 0.00450623 -0.01898638
v 0.03347330 0.00747166 -0.01898638
v 0.03357977 0.00749543 -0.01894668
v 0.03367444 0.00751656 -0.01888289
v 0.03375219 0.00753392 -0.01879844
v 0.03279272 0.01041250 -0.01894668
v 0.03288517 0.01044185 -0.01888289
v 0.03296110 0.01046597 -0.01879845
v 0.03200012 0.01335248 -0.01858669
v 0.03196939 0.01333966 -0.01869791
v 0.03191582 0.01331731 -0.01879845
v 0.03184230 0.01328662 -0.01888289
v 0.03175278 0.01324928 -0.01894669
v 0.03070531 0.01610839 -0.01858670
v 0.02728193 0.02112255 -0.01888291
v 0.02734493 0.02117132 -0.01879847
v 0.02544916 0.02355071 -0.01858672
v 0.02542472 0.02352810 -0.01869793
v 0.00077927 0.04356699 -0.02471421
v 0.00078727 0.04396330 -0.02433241
v 0.00000647 0.04398746 -0.02430832
v 0.00078592 0.04397397 -0.02426249
v 0.00000647 0.04399320 -0.02422792
v 0.00078816 0.04394122 -0.02440447
v 0.00000647 0.04397819 -0.02434232
v 0.00078845 0.04390648 -0.02447601
v 0.00000647 0.04393344 -0.02446215
v 0.00000646 0.04395739 -0.02441856
v 0.00078806 0.04385863 -0.02454379
v 0.00000647 0.04389892 -0.02452495
v 0.00078691 0.04379837 -0.02460433
v 0.00000648 0.04371388 -0.02468138
v 0.00078500 0.04372760 -0.02465438
v 0.00000647 0.04381663 -0.02461402
v 0.00000649 0.04359192 -0.02472286
v 0.00000648 0.04366566 -0.02469778
v 0.00078242 0.04364926 -0.02469146
v 0.00762650 0.04168916 -0.02297370
v 0.00643862 0.04261050 -0.02351616
v 0.00696080 0.04225458 -0.02327992
v 0.00560301 0.04304276 -0.02370123
v 0.00591344 0.04290025 -0.02367022
v 0.00628278 0.04270493 -0.02352089
v 0.00535329 0.04313950 -0.02379691
v 0.00422996 0.04346723 -0.02397760
v 0.00500624 0.04325614 -0.02381324
v 0.00309788 0.04371155 -0.02411505
v 0.00364836 0.04360393 -0.02400918
v 0.00227685 0.04384245 -0.02414340
v 0.00194673 0.04388165 -0.02421064
v 0.00091064 0.04396939 -0.02421463
v 0.00736749 0.04192297 -0.02314652
v 0.00737932 0.04190060 -0.02320895
v 0.00738495 0.04187012 -0.02327308
v 0.00738316 0.04183129 -0.02333681
v 0.00737302 0.04178450 -0.02339767
v 0.00735411 0.04173079 -0.02345302
v 0.00641404 0.04235837 -0.02388393
v 0.00589642 0.04264898 -0.02404538
v 0.00591479 0.04271488 -0.02399644
v 0.00643598 0.04242200 -0.02383554
v 0.00592659 0.04277270 -0.02393815
v 0.00645042 0.04247855 -0.02377827
v 0.00593174 0.04282059 -0.02387341
v 0.00645725 0.04252623 -0.02371487
v 0.00593067 0.04285768 -0.02380533
v 0.00645692 0.04256407 -0.02364830
v 0.00592422 0.04288398 -0.02373680
v 0.00645032 0.04259198 -0.02358130
v 0.00536245 0.04312538 -0.02386481
v 0.00536816 0.04310066 -0.02393474
v 0.00536956 0.04306442 -0.02400421
v 0.00536594 0.04301647 -0.02407018
v 0.00535691 0.04295762 -0.02412939
v 0.00534251 0.04288975 -0.02417883
v 0.00194432 0.04363489 -0.02460161
v 0.00194905 0.04370541 -0.02455161
v 0.00195192 0.04376555 -0.02449119
v 0.00195293 0.04381341 -0.02442358
v 0.00195222 0.04384832 -0.02435224
v 0.00195005 0.04387065 -0.02428038
v 0.00421004 0.04314277 -0.02440191
v 0.00000650 0.04347510 -0.02473238
v 0.00077575 0.04348452 -0.02472258
v 0.00193011 0.04347515 -0.02466155
v 0.00193790 0.04355695 -0.02463870
v 0.00308359 0.04338693 -0.02454152
v 0.00309374 0.04346419 -0.02450438
v 0.00422374 0.04321908 -0.02436471
v 0.00310124 0.04353422 -0.02445448
v 0.00423391 0.04328845 -0.02431494
v 0.00310581 0.04359415 -0.02439427
v 0.00424016 0.04334805 -0.02425502
v 0.00310746 0.04364204 -0.02432696
v 0.00424249 0.04339597 -0.02418811
v 0.00310641 0.04367719 -0.02425595
v 0.00424120 0.04343147 -0.02411757
v 0.00310305 0.04369998 -0.02418445
v 0.00423681 0.04345486 -0.02404654
v -0.00710751 0.04212942 -0.02321191
v -0.00656175 0.04252222 -0.02348144
v -0.00283626 0.04374398 -0.02421004
v -0.00186816 0.04387803 -0.02428537
v -0.00186999 0.04386005 -0.02434560
v -0.00184427 0.04343682 -0.02467233
v -0.00185723 0.04357416 -0.02463929
v -0.00186639 0.04369946 -0.02456699
v -0.00186238 0.04363939 -0.02460771
v -0.00186914 0.04375259 -0.02451851
v -0.00187062 0.04379744 -0.02446411
v -0.00187087 0.04383330 -0.02440579
v -0.00134597 0.04393971 -0.02419793
v -0.00282635 0.04375313 -0.02409305
v -0.00269081 0.04377998 -0.02410816
v -0.00259736 0.04379108 -0.02411439
v -0.00473309 0.04332857 -0.02391199
v -0.00401634 0.04351734 -0.02396039
v -0.00379327 0.04355661 -0.02410467
v -0.00388800 0.04354277 -0.02397470
v -0.00379679 0.04353791 -0.02416435
v -0.00379840 0.04351070 -0.02422401
v -0.00379779 0.04347465 -0.02428182
v -0.00379475 0.04342993 -0.02433582
v -0.00378918 0.04337726 -0.02438402
v -0.00378115 0.04331797 -0.02442462
v -0.00573256 0.04298003 -0.02366706
v -0.00568742 0.04299765 -0.02373425
v -0.00624163 0.04270838 -0.02352244
v -0.00643641 0.04260443 -0.02346710
v -0.00567524 0.04300141 -0.02367838
v -0.00514969 0.04319732 -0.02378214
v -0.00499197 0.04325610 -0.02381327
v -0.00733528 0.04193727 -0.02316667
v -0.00734480 0.04191798 -0.02321927
v -0.00734997 0.04189296 -0.02327306
v -0.00735005 0.04186204 -0.02332682
v -0.00734443 0.04182535 -0.02337914
v -0.00733274 0.04178335 -0.02342846
v -0.00657133 0.04250554 -0.02353596
v -0.00569575 0.04298401 -0.02379076
v -0.00657718 0.04248237 -0.02359176
v -0.00570125 0.04296313 -0.02384866
v -0.00657859 0.04245239 -0.02364753
v -0.00570334 0.04293451 -0.02390654
v -0.00657499 0.04241558 -0.02370174
v -0.00570151 0.04289795 -0.02396271
v -0.00656598 0.04237232 -0.02375266
v -0.00569542 0.04285377 -0.02401532
v -0.00655143 0.04232339 -0.02379862
v -0.00568494 0.04280271 -0.02406252
v -0.00567019 0.04274601 -0.02410262
v -0.00185111 0.04350589 -0.02466089
v -0.00473924 0.04331707 -0.02396983
v -0.00474346 0.04329788 -0.02402914
v -0.00474533 0.04327035 -0.02408842
v -0.00474448 0.04323418 -0.02414589
v -0.00474064 0.04318956 -0.02419961
v -0.00473371 0.04313725 -0.02424761
v -0.00472377 0.04307851 -0.02428813
v -0.00377087 0.04325380 -0.02445625
v 0.00712211 -0.04212941 -0.02321186
v 0.00657634 -0.04252221 -0.02348139
v 0.00735902 -0.04182534 -0.02337909
v 0.00734733 -0.04178334 -0.02342840
v 0.00285085 -0.04374397 -0.02421003
v 0.00188275 -0.04387802 -0.02428536
v 0.00188459 -0.04386004 -0.02434559
v 0.00136056 -0.04393970 -0.02419792
v 0.00131423 -0.04394153 -0.02419895
v 0.00000830 -0.04398093 -0.02434233
v 0.00000812 -0.04399318 -0.02422792
v 0.00284094 -0.04375312 -0.02409303
v 0.00270540 -0.04377997 -0.02410814
v 0.00261564 -0.04379063 -0.02411413
v 0.00187498 -0.04387861 -0.02416358
v 0.00474768 -0.04332855 -0.02391195
v 0.00403093 -0.04351733 -0.02396037
v 0.00380786 -0.04355660 -0.02410464
v 0.00000831 -0.04346996 -0.02472940
v 0.00000828 -0.04344091 -0.02472991
v 0.00185887 -0.04343681 -0.02467232
v 0.00000839 -0.04356300 -0.02472773
v 0.00187182 -0.04357414 -0.02463928
v 0.00000846 -0.04368037 -0.02469625
v 0.00000842 -0.04360698 -0.02471594
v 0.00187697 -0.04363937 -0.02460770
v 0.00000849 -0.04374070 -0.02466352
v 0.00188098 -0.04369945 -0.02456697
v 0.00000850 -0.04377972 -0.02464234
v 0.00188374 -0.04375257 -0.02451850
v 0.00000850 -0.04381369 -0.02461167
v 0.00188546 -0.04383330 -0.02440578
v 0.00188522 -0.04379743 -0.02446409
v 0.00000849 -0.04387567 -0.02455332
v 0.00000849 -0.04387152 -0.02455944
v 0.00000843 -0.04393721 -0.02446236
v 0.00381138 -0.04353790 -0.02416433
v 0.00381299 -0.04351069 -0.02422398
v 0.00381239 -0.04347464 -0.02428180
v 0.00380935 -0.04342991 -0.02433580
v 0.00380378 -0.04337725 -0.02438399
v 0.00379575 -0.04331796 -0.02442459
v 0.00574827 -0.04297953 -0.02366675
v 0.00570201 -0.04299765 -0.02373420
v 0.00645206 -0.04260377 -0.02346670
v 0.00517075 -0.04319487 -0.02378081
v 0.00500656 -0.04325609 -0.02381324
v 0.00736464 -0.04186203 -0.02332677
v 0.00736456 -0.04189295 -0.02327301
v 0.00735939 -0.04191797 -0.02321922
v 0.00734987 -0.04193726 -0.02316662
v 0.00658592 -0.04250553 -0.02353591
v 0.00571034 -0.04298400 -0.02379072
v 0.00659176 -0.04248236 -0.02359171
v 0.00571584 -0.04296312 -0.02384862
v 0.00659318 -0.04245238 -0.02364749
v 0.00571793 -0.04293449 -0.02390650
v 0.00658958 -0.04241557 -0.02370169
v 0.00571610 -0.04289795 -0.02396267
v 0.00658057 -0.04237230 -0.02375261
v 0.00571002 -0.04285376 -0.02401528
v 0.00656602 -0.04232338 -0.02379857
v 0.00569953 -0.04280270 -0.02406247
v 0.00568478 -0.04274601 -0.02410258
v 0.00186571 -0.04350588 -0.02466088
v 0.00000840 -0.04358398 -0.02472211
v 0.00475383 -0.04331706 -0.02396980
v 0.00475805 -0.04329788 -0.02402910
v 0.00475993 -0.04327035 -0.02408838
v 0.00475907 -0.04323417 -0.02414586
v 0.00475524 -0.04318955 -0.02419958
v 0.00474831 -0.04313724 -0.02424758
v 0.00473836 -0.04307851 -0.02428810
v 0.00378547 -0.04325380 -0.02445623
v -0.00076115 -0.04348452 -0.02472259
v -0.00076468 -0.04356698 -0.02471422
v -0.00076782 -0.04364926 -0.02469147
v -0.00761191 -0.04168914 -0.02297376
v -0.00642403 -0.04261049 -0.02351620
v -0.00694621 -0.04225457 -0.02327997
v -0.00558841 -0.04304276 -0.02370128
v -0.00589885 -0.04290024 -0.02367026
v -0.00626819 -0.04270493 -0.02352094
v -0.00533870 -0.04313949 -0.02379695
v -0.00421537 -0.04346722 -0.02397763
v -0.00499165 -0.04325613 -0.02381327
v -0.00308329 -0.04371154 -0.02411507
v -0.00363378 -0.04360392 -0.02400921
v -0.00226226 -0.04384244 -0.02414342
v -0.00193214 -0.04388163 -0.02421066
v -0.00077133 -0.04397395 -0.02426250
v -0.00089604 -0.04396937 -0.02421464
v -0.00077268 -0.04396330 -0.02433242
v -0.00077356 -0.04394121 -0.02440448
v -0.00077386 -0.04390646 -0.02447602
v -0.00077346 -0.04385862 -0.02454379
v -0.00077231 -0.04379836 -0.02460433
v -0.00077041 -0.04372759 -0.02465439
v -0.00735290 -0.04192296 -0.02314658
v -0.00736473 -0.04190059 -0.02320901
v -0.00737037 -0.04187011 -0.02327313
v -0.00736858 -0.04183128 -0.02333686
v -0.00735843 -0.04178450 -0.02339773
v -0.00733952 -0.04173078 -0.02345308
v -0.00588183 -0.04264897 -0.02404542
v -0.00590020 -0.04271487 -0.02399649
v -0.00642138 -0.04242199 -0.02383559
v -0.00591200 -0.04277269 -0.02393820
v -0.00643583 -0.04247854 -0.02377832
v -0.00591714 -0.04282058 -0.02387346
v -0.00644266 -0.04252622 -0.02371492
v -0.00591608 -0.04285767 -0.02380537
v -0.00644233 -0.04256407 -0.02364835
v -0.00590963 -0.04288397 -0.02373684
v -0.00643573 -0.04259197 -0.02358134
v -0.00534786 -0.04312536 -0.02386485
v -0.00535357 -0.04310065 -0.02393478
v -0.00535497 -0.04306441 -0.02400425
v -0.00535134 -0.04301646 -0.02407022
v -0.00534231 -0.04295761 -0.02412943
v -0.00532792 -0.04288974 -0.02417887
v -0.00192972 -0.04363489 -0.02460162
v -0.00193445 -0.04370540 -0.02455162
v -0.00193732 -0.04376554 -0.02449121
v -0.00193833 -0.04381340 -0.02442360
v -0.00193762 -0.04384831 -0.02435226
v -0.00193545 -0.04387064 -0.02428039
v -0.00419545 -0.04314276 -0.02440194
v -0.00191551 -0.04347513 -0.02466157
v -0.00192330 -0.04355693 -0.02463872
v -0.00306900 -0.04338691 -0.02454154
v -0.00307914 -0.04346418 -0.02450440
v -0.00420915 -0.04321907 -0.02436475
v -0.00308664 -0.04353422 -0.02445450
v -0.00421931 -0.04328845 -0.02431497
v -0.00309122 -0.04359413 -0.02439430
v -0.00422557 -0.04334804 -0.02425506
v -0.00309287 -0.04364203 -0.02432698
v -0.00422790 -0.04339597 -0.02418814
v -0.00309181 -0.04367718 -0.02425598
v -0.00422660 -0.04343147 -0.02411760
v -0.00308846 -0.04369997 -0.02418447
v -0.00422221 -0.04345485 -0.02404657
v -0.02740242 -0.02124608 -0.01858691
v -0.02737610 -0.02122568 -0.01869813
v -0.02916241 -0.01875744 -0.01858692
v -0.02913441 -0.01873943 -0.01869814
v -0.03234030 -0.01242339 -0.01858693
v -0.03304465 -0.01050421 -0.01858694
v -0.03301292 -0.01049413 -0.01869815
v -0.03383947 -0.00756158 -0.01858694
v -0.03380698 -0.00755431 -0.01869815
v -0.03464050 -0.00152418 -0.01858694
v -0.03460723 -0.00152272 -0.01869816
v -0.03464051 0.00152392 -0.01858694
v -0.03460724 0.00152245 -0.01869815
v -0.03361663 0.00838655 -0.01858694
v -0.03304473 0.01050395 -0.01858694
v -0.03301299 0.01049386 -0.01869815
v -0.03234030 0.01242338 -0.01858693
v -0.03199457 0.01336543 -0.01858693
v -0.03196385 0.01335260 -0.01869814
v -0.02916255 0.01875722 -0.01858692
v -0.02913455 0.01873921 -0.01869813
v -0.02740258 0.02124587 -0.01858691
v -0.02737626 0.02122546 -0.01869813
v -0.02574340 0.02320186 -0.01858691
v -0.02543084 0.02357033 -0.01858691
v -0.02540642 0.02354770 -0.01869812
v -0.03399901 0.00451063 -0.01898663
v -0.03426377 0.00150734 -0.01898663
v -0.03410715 0.00452498 -0.01894693
v -0.03437276 0.00151214 -0.01894693
v -0.03420330 0.00453774 -0.01888313
v -0.03446966 0.00151639 -0.01888313
v -0.03428228 0.00454822 -0.01879869
v -0.03454925 0.00151990 -0.01879870
v -0.03433982 0.00455585 -0.01869815
v -0.03045978 -0.01599924 -0.01894692
v -0.03054565 -0.01604434 -0.01888312
v -0.02901858 -0.01866493 -0.01888312
v -0.03061618 -0.01608139 -0.01879868
v -0.02908559 -0.01870803 -0.01879867
v -0.03066757 -0.01610838 -0.01869814
v -0.02726743 0.02114108 -0.01888311
v -0.02733039 0.02118989 -0.01879866
v -0.02908573 0.01870780 -0.01879868
v -0.02901872 0.01866471 -0.01888312
v -0.03069717 0.01612362 -0.01858693
v -0.03066769 0.01610814 -0.01869814
v -0.03061630 0.01608115 -0.01879868
v -0.03054577 0.01604410 -0.01888312
v -0.03045990 0.01599900 -0.01894692
v -0.03174727 0.01326212 -0.01894692
v -0.03183677 0.01329951 -0.01888313
v -0.03191029 0.01333022 -0.01879868
v -0.03278932 0.01042277 -0.01894693
v -0.03288175 0.01045215 -0.01888313
v -0.03295768 0.01047628 -0.01879869
v -0.03383953 0.00756131 -0.01858694
v -0.03380704 0.00755404 -0.01869815
v -0.03375039 0.00754139 -0.01879869
v -0.03367264 0.00752402 -0.01888313
v -0.03357798 0.00750287 -0.01894693
v -0.03347151 0.00747907 -0.01898663
v -0.03437283 0.00456023 -0.01858694
v -0.03426376 -0.00150760 -0.01898663
v -0.03437275 -0.00151240 -0.01894693
v -0.03446965 -0.00151666 -0.01888314
v -0.03454924 -0.00152017 -0.01879869
v -0.03437279 -0.00456050 -0.01858694
v -0.03433979 -0.00455612 -0.01869815
v -0.03428225 -0.00454848 -0.01879869
v -0.03420327 -0.00453800 -0.01888313
v -0.03410712 -0.00452524 -0.01894693
v -0.03399897 -0.00451090 -0.01898663
v -0.03347145 -0.00747933 -0.01898663
v -0.03357792 -0.00750313 -0.01894693
v -0.03367258 -0.00752428 -0.01888313
v -0.03375033 -0.00754165 -0.01879869
v -0.03278924 -0.01042302 -0.01894692
v -0.03288168 -0.01045241 -0.01888313
v -0.03295760 -0.01047654 -0.01879869
v -0.03199447 -0.01336568 -0.01858693
v -0.03196375 -0.01335284 -0.01869814
v -0.03191019 -0.01333047 -0.01879868
v -0.03183668 -0.01329976 -0.01888313
v -0.03174718 -0.01326237 -0.01894692
v -0.03069705 -0.01612386 -0.01858692
v -0.02726727 -0.02114129 -0.01888311
v -0.02733023 -0.02119011 -0.01879867
v -0.02543067 -0.02357053 -0.01858691
v -0.02540625 -0.02354790 -0.01869812
v 0.00055777 -0.03549518 -0.01069354
v 0.00000016 -0.03490825 -0.01049999
v 0.00000016 -0.03506037 -0.01051163
v 0.00055087 -0.03505604 -0.01051163
v 0.00054848 -0.03490394 -0.01049999
v 0.00357367 -0.03487777 -0.01051161
v 0.00355817 -0.03472644 -0.01049998
v 0.00656982 -0.03443933 -0.01051160
v 0.00654131 -0.03428991 -0.01049996
v 0.00951696 -0.03374400 -0.01051159
v 0.00947567 -0.03359759 -0.01049995
v 0.01239311 -0.03279697 -0.01051158
v 0.01233934 -0.03265467 -0.01049994
v 0.01517682 -0.03160529 -0.01051157
v 0.01511097 -0.03146816 -0.01049993
v 0.01784733 -0.03017787 -0.01051156
v 0.01776989 -0.03004693 -0.01049992
v 0.02038470 -0.02852534 -0.01051155
v 0.02029626 -0.02840157 -0.01049991
v 0.02277002 -0.02666003 -0.01051154
v 0.02267122 -0.02654436 -0.01049990
v 0.02498550 -0.02459586 -0.01051153
v 0.02487709 -0.02448914 -0.01049990
v 0.02701460 -0.02234822 -0.01051153
v 0.02689739 -0.02225125 -0.01049989
v 0.02884219 -0.01993388 -0.01051152
v 0.02871705 -0.01984739 -0.01049988
v 0.03045464 -0.01737085 -0.01051151
v 0.03032250 -0.01729548 -0.01049988
v 0.03183993 -0.01467825 -0.01051151
v 0.03170178 -0.01461456 -0.01049987
v 0.03298771 -0.01187615 -0.01051151
v 0.03284458 -0.01182462 -0.01049987
v 0.03388943 -0.00898547 -0.01051150
v 0.03374239 -0.00894648 -0.01049986
v 0.03453836 -0.00602776 -0.01051150
v 0.03438850 -0.00600161 -0.01049986
v 0.03492966 -0.00302510 -0.01051150
v 0.03477810 -0.00301197 -0.01049986
v 0.03506041 0.00000014 -0.01051150
v 0.03490829 0.00000014 -0.01049986
v 0.03492964 0.00302537 -0.01051150
v 0.03477808 0.00301224 -0.01049986
v 0.03453832 0.00602803 -0.01051150
v 0.03438846 0.00600188 -0.01049986
v 0.03388936 0.00898573 -0.01051150
v 0.03374232 0.00894674 -0.01049986
v 0.03298763 0.01187640 -0.01051150
v 0.03284450 0.01182487 -0.01049987
v 0.03183983 0.01467849 -0.01051151
v 0.03170167 0.01461480 -0.01049987
v 0.03045452 0.01737108 -0.01051151
v 0.03032238 0.01729571 -0.01049987
v 0.02884205 0.01993410 -0.01051152
v 0.02871691 0.01984761 -0.01049988
v 0.02701444 0.02234843 -0.01051152
v 0.02689723 0.02225146 -0.01049989
v 0.02498532 0.02459605 -0.01051153
v 0.02487692 0.02448933 -0.01049989
v 0.02276983 0.02666021 -0.01051154
v 0.02267104 0.02654453 -0.01049990
v 0.02038450 0.02852549 -0.01051155
v 0.02029605 0.02840173 -0.01049991
v 0.01784711 0.03017801 -0.01051156
v 0.01776968 0.03004706 -0.01049992
v 0.01517660 0.03160541 -0.01051157
v 0.01511075 0.03146828 -0.01049993
v 0.01239288 0.03279706 -0.01051158
v 0.01233911 0.03265476 -0.01049994
v 0.00951672 0.03374408 -0.01051159
v 0.00947543 0.03359766 -0.01049995
v 0.00656958 0.03443939 -0.01051160
v 0.00654107 0.03428996 -0.01049996
v 0.00357342 0.03487780 -0.01051161
v 0.00355792 0.03472647 -0.01049998
v 0.00055062 0.03505605 -0.01051162
v 0.00054823 0.03490395 -0.01049999
v -0.00000009 0.03506038 -0.01051162
v -0.00000009 0.03490826 -0.01049999
v -0.00000009 0.03549956 -0.01069354
v 0.00055752 0.03549519 -0.01069354
v 0.00361819 0.03531470 -0.01069353
v 0.02332033 0.02730475 -0.01152171
v 0.02557873 0.02518020 -0.01167354
v 0.02558939 0.02519070 -0.01152171
v 0.02664832 0.02399543 -0.01167354
v 0.02766756 0.02288874 -0.01152170
v 0.02765604 0.02287920 -0.01167354
v 0.02953935 0.02041604 -0.01152169
v 0.02952705 0.02040754 -0.01167353
v 0.03119081 0.01779105 -0.01152169
v 0.03117782 0.01778365 -0.01167352
v 0.03166459 0.01683752 -0.01167352
v 0.03260960 0.01503337 -0.01152168
v 0.03259603 0.01502710 -0.01167352
v 0.03348617 0.01285404 -0.01167351
v 0.03378516 0.01216353 -0.01152168
v 0.03377109 0.01215847 -0.01167351
v 0.03470870 0.00920297 -0.01152167
v 0.03469424 0.00919914 -0.01167351
v 0.03480825 0.00867955 -0.01167351
v 0.03537334 0.00617377 -0.01152167
v 0.03535860 0.00617120 -0.01167351
v 0.03577412 0.00309851 -0.01152167
v 0.03575922 0.00309722 -0.01167350
v 0.03590805 0.00000014 -0.01152167
v 0.03589310 0.00000014 -0.01167351
v 0.03589309 0.00000001 -0.01167351
v 0.03577414 -0.00309823 -0.01152167
v 0.03575925 -0.00309695 -0.01167351
v 0.03537338 -0.00617350 -0.01152167
v 0.03535865 -0.00617092 -0.01167351
v 0.03480826 -0.00867953 -0.01167351
v 0.03470877 -0.00920270 -0.01152167
v 0.03469431 -0.00919888 -0.01167351
v 0.03378524 -0.01216328 -0.01152168
v 0.03377117 -0.01215821 -0.01167351
v 0.03260971 -0.01503311 -0.01152168
v 0.03259613 -0.01502685 -0.01167352
v 0.03119093 -0.01779082 -0.01152169
v 0.03117795 -0.01778341 -0.01167352
v 0.02953950 -0.02041581 -0.01152169
v 0.02952720 -0.02040731 -0.01167353
v 0.02558956 -0.02519050 -0.01152171
v 0.02664832 -0.02399542 -0.01167354
v 0.02766772 -0.02288852 -0.01152170
v 0.02765620 -0.02287899 -0.01167354
v 0.02939442 -0.02058271 -0.01167353
v 0.02332053 -0.02730458 -0.01152171
v 0.02557891 -0.02518001 -0.01167354
v 0.00361844 -0.03531467 -0.01069353
v 0.00665212 -0.03487074 -0.01069352
v 0.00000016 -0.03549956 -0.01069354
v 0.00000016 -0.03529093 -0.01057611
v 0.00055449 -0.03528658 -0.01057610
v 0.00359717 -0.03510713 -0.01057609
v 0.00661302 -0.03466581 -0.01057608
v 0.00957955 -0.03396591 -0.01057607
v 0.01247461 -0.03301265 -0.01057606
v 0.01527663 -0.03181314 -0.01057605
v 0.01796469 -0.03037632 -0.01057604
v 0.02051875 -0.02871292 -0.01057603
v 0.02291976 -0.02683535 -0.01057602
v 0.02514980 -0.02475760 -0.01057601
v 0.02719225 -0.02249518 -0.01057601
v 0.02903186 -0.02006497 -0.01057600
v 0.03065492 -0.01748508 -0.01057599
v 0.03204931 -0.01477477 -0.01057599
v 0.03320464 -0.01195425 -0.01057598
v 0.03411229 -0.00904456 -0.01057598
v 0.03476549 -0.00606740 -0.01057598
v 0.03515936 -0.00304500 -0.01057598
v 0.03529097 0.00000013 -0.01057598
v 0.03515934 0.00304526 -0.01057598
v 0.03476544 0.00606768 -0.01057598
v 0.03411222 0.00904483 -0.01057598
v 0.03320456 0.01195450 -0.01057598
v 0.03204921 0.01477502 -0.01057599
v 0.03065479 0.01748532 -0.01057600
v 0.02903172 0.02006519 -0.01057600
v 0.02719209 0.02249539 -0.01057601
v 0.02514963 0.02475780 -0.01057602
v 0.02291957 0.02683552 -0.01057602
v 0.02051855 0.02871308 -0.01057603
v 0.01796448 0.03037646 -0.01057604
v 0.01527640 0.03181326 -0.01057605
v 0.01247438 0.03301274 -0.01057606
v 0.00957930 0.03396599 -0.01057607
v 0.00661278 0.03466587 -0.01057608
v 0.00359692 0.03510716 -0.01057609
v 0.00055424 0.03528659 -0.01057610
v -0.00000009 0.03529094 -0.01057611
v 0.00963618 -0.03416670 -0.01069351
v 0.01254836 -0.03320780 -0.01069350
v 0.01536694 -0.03200120 -0.01069349
v 0.01807089 -0.03055589 -0.01069347
v 0.02064005 -0.02888266 -0.01069347
v 0.02305525 -0.02699399 -0.01069346
v 0.02529848 -0.02490396 -0.01069345
v 0.02735300 -0.02262816 -0.01069344
v 0.02920349 -0.02018358 -0.01069343
v 0.03083614 -0.01758845 -0.01069343
v 0.03223877 -0.01486211 -0.01069342
v 0.03340093 -0.01202492 -0.01069342
v 0.03431395 -0.00909803 -0.01069342
v 0.03497101 -0.00610327 -0.01069341
v 0.03536721 -0.00306299 -0.01069341
v 0.03549960 0.00000014 -0.01069341
v 0.03536719 0.00306327 -0.01069341
v 0.03497096 0.00610354 -0.01069341
v 0.03431388 0.00909829 -0.01069342
v 0.03340085 0.01202518 -0.01069342
v 0.03223867 0.01486236 -0.01069343
v 0.03083601 0.01758868 -0.01069343
v 0.02920334 0.02018381 -0.01069343
v 0.02735284 0.02262838 -0.01069344
v 0.02529831 0.02490416 -0.01069345
v 0.02305506 0.02699417 -0.01069346
v 0.02063985 0.02888282 -0.01069346
v 0.01807068 0.03055604 -0.01069347
v 0.01536671 0.03200132 -0.01069348
v 0.01254812 0.03320790 -0.01069349
v 0.00963593 0.03416678 -0.01069350
v 0.00665187 0.03487079 -0.01069352
v 0.01261012 -0.03337126 -0.01085715
v 0.01544258 -0.03215872 -0.01085714
v 0.01815984 -0.03070630 -0.01085713
v 0.02074165 -0.02902483 -0.01085712
v 0.02316874 -0.02712686 -0.01085711
v 0.02542300 -0.02502654 -0.01085710
v 0.02748764 -0.02273955 -0.01085710
v 0.02934723 -0.02028293 -0.01085709
v 0.03098792 -0.01767502 -0.01085708
v 0.03239746 -0.01493527 -0.01085708
v 0.03356534 -0.01208411 -0.01085707
v 0.03448285 -0.00914281 -0.01085707
v 0.03514314 -0.00613332 -0.01085707
v 0.03554129 -0.00307807 -0.01085707
v 0.03567433 0.00000013 -0.01085707
v 0.03554127 0.00307834 -0.01085707
v 0.03514310 0.00613358 -0.01085707
v 0.03448278 0.00914308 -0.01085707
v 0.03356525 0.01208436 -0.01085708
v 0.03239735 0.01493552 -0.01085708
v 0.03098779 0.01767526 -0.01085709
v 0.02934709 0.02028316 -0.01085709
v 0.02748747 0.02273976 -0.01085710
v 0.02542283 0.02502674 -0.01085710
v 0.02316854 0.02712704 -0.01085711
v 0.02074144 0.02902499 -0.01085712
v 0.01815962 0.03070644 -0.01085713
v 0.01544235 0.03215884 -0.01085714
v 0.01260989 0.03337136 -0.01085715
v 0.01822644 -0.03081891 -0.01105763
v 0.02081771 -0.02913127 -0.01105762
v 0.02325370 -0.02722634 -0.01105761
v 0.02551624 -0.02511832 -0.01105760
v 0.02758844 -0.02282294 -0.01105760
v 0.02945486 -0.02035731 -0.01105759
v 0.03110156 -0.01773984 -0.01105758
v 0.03251627 -0.01499004 -0.01105758
v 0.03368843 -0.01212843 -0.01105757
v 0.03460931 -0.00917634 -0.01105757
v 0.03527202 -0.00615581 -0.01105757
v 0.03567164 -0.00308936 -0.01105756
v 0.03580516 0.00000014 -0.01105757
v 0.03567161 0.00308963 -0.01105757
v 0.03527198 0.00615608 -0.01105757
v 0.03460924 0.00917660 -0.01105757
v 0.03368835 0.01212868 -0.01105757
v 0.03251616 0.01499029 -0.01105758
v 0.03110143 0.01774008 -0.01105758
v 0.02945471 0.02035754 -0.01105759
v 0.02758828 0.02282315 -0.01105759
v 0.02551606 0.02511852 -0.01105760
v 0.02325351 0.02722651 -0.01105761
v 0.02081751 0.02913143 -0.01105762
v 0.01822622 0.03081905 -0.01105763
v 0.02086389 -0.02919589 -0.01128347
v 0.02330528 -0.02728673 -0.01128346
v 0.02557284 -0.02517403 -0.01128345
v 0.02764964 -0.02287356 -0.01128344
v 0.02952019 -0.02040247 -0.01128344
v 0.03117055 -0.01777919 -0.01128343
v 0.03258840 -0.01502329 -0.01128342
v 0.03376316 -0.01215533 -0.01128342
v 0.03468608 -0.00919670 -0.01128342
v 0.03535026 -0.00616946 -0.01128341
v 0.03575076 -0.00309621 -0.01128342
v 0.03588459 0.00000014 -0.01128341
v 0.03575074 0.00309648 -0.01128341
v 0.03535022 0.00616973 -0.01128342
v 0.03468601 0.00919696 -0.01128342
v 0.03376308 0.01215559 -0.01128342
v 0.03258829 0.01502354 -0.01128343
v 0.03117043 0.01777943 -0.01128343
v 0.02952005 0.02040270 -0.01128343
v 0.02764948 0.02287377 -0.01128344
v 0.02557266 0.02517424 -0.01128345
v 0.02330509 0.02728692 -0.01128346
v 0.02086368 0.02919605 -0.01128347
v -0.01059167 0.03439676 -0.02466079
v 0.01059160 0.03439684 -0.02466071
v -0.01059143 -0.03439683 -0.02466079
v 0.01059184 -0.03439675 -0.02466071
v -0.00054815 -0.03490395 -0.01049999
v -0.03477801 -0.00301223 -0.01050012
v -0.03438838 -0.00600187 -0.01050011
v -0.03374225 -0.00894674 -0.01050011
v -0.03284442 -0.01182487 -0.01050011
v -0.03170160 -0.01461479 -0.01050011
v -0.03032231 -0.01729571 -0.01050010
v -0.02871683 -0.01984761 -0.01050009
v -0.02689715 -0.02225146 -0.01050009
v -0.02367142 -0.02263239 -0.01050007
v -0.02487684 -0.02448933 -0.01050008
v -0.02267096 -0.02654453 -0.01050007
v -0.02029598 -0.02840172 -0.01050006
v -0.01776960 -0.03004706 -0.01050005
v -0.01420955 -0.02950678 -0.01050004
v -0.01511068 -0.03146827 -0.01050004
v -0.01233904 -0.03265476 -0.01050004
v -0.00947535 -0.03359766 -0.01050002
v -0.00654099 -0.03428995 -0.01050001
v -0.00355784 -0.03472646 -0.01050000
v -0.00054840 0.03490395 -0.01049999
v -0.00355809 0.03472644 -0.01050000
v -0.00654124 0.03428991 -0.01050001
v -0.00947559 0.03359759 -0.01050002
v -0.01233927 0.03265467 -0.01050003
v -0.01511090 0.03146817 -0.01050004
v -0.01776981 0.03004693 -0.01050005
v -0.01925002 0.02649524 -0.01050006
v -0.02029618 0.02840158 -0.01050006
v -0.02267115 0.02654436 -0.01050007
v -0.02487701 0.02448914 -0.01050008
v -0.02689731 0.02225126 -0.01050009
v -0.02871698 0.01984739 -0.01050009
v -0.03032243 0.01729548 -0.01050010
v -0.03170170 0.01461456 -0.01050010
v -0.03284451 0.01182463 -0.01050011
v -0.03374232 0.00894649 -0.01050011
v -0.03438843 0.00600162 -0.01050012
v -0.03477803 0.00301198 -0.01050011
v -0.03490821 -0.00000013 -0.01050011
v 0.00122838 -0.04035244 -0.01372389
v 0.00126112 -0.04172129 -0.01503835
v 0.00127379 -0.04225091 -0.01573507
v 0.00124606 -0.04109141 -0.01437012
v 0.00120788 -0.03949548 -0.01309317
v 0.00241307 -0.03942503 -0.01311019
v 0.00236781 -0.03845064 -0.01248730
v 0.00118435 -0.03851157 -0.01247147
v 0.00722135 -0.04171648 -0.01895852
v 0.00723084 -0.04184636 -0.01988694
v 0.00000812 -0.04398198 -0.02342781
v 0.00390530 -0.04349269 -0.02195307
v 0.00261340 -0.04373744 -0.02195194
v 0.00131288 -0.04388461 -0.02195084
v 0.00724172 -0.04199534 -0.02195579
v 0.00626462 -0.04267023 -0.02195501
v 0.00516978 -0.04315456 -0.02195419
v 0.00720847 -0.04153998 -0.01809191
v 0.00129278 -0.04304450 -0.01723975
v 0.00000801 -0.04285447 -0.01672132
v 0.00128427 -0.04268907 -0.01646672
v 0.00130468 -0.04354197 -0.01893572
v 0.00000806 -0.04343870 -0.01831352
v 0.00129951 -0.04332590 -0.01806060
v 0.00000803 -0.04304613 -0.01724364
v 0.00000805 -0.04334585 -0.01806048
v 0.00130849 -0.04370136 -0.01987152
v 0.00000809 -0.04379330 -0.02022531
v 0.00000807 -0.04355426 -0.01893658
v 0.00000809 -0.04372764 -0.01987130
v 0.00000771 -0.03905441 -0.01278680
v 0.00362021 -0.03928622 -0.01312804
v 0.00367646 -0.04011625 -0.01375881
v 0.00488786 -0.03988721 -0.01377663
v 0.00494759 -0.04057943 -0.01442026
v 0.00605172 -0.04020691 -0.01443276
v 0.00610031 -0.04076918 -0.01509542
v 0.00711162 -0.04021317 -0.01510620
v 0.00714382 -0.04065424 -0.01579452
v 0.00245238 -0.04027139 -0.01374096
v 0.00372473 -0.04082857 -0.01440336
v 0.00499818 -0.04116581 -0.01508407
v 0.00614090 -0.04123887 -0.01578510
v 0.00717028 -0.04101680 -0.01651685
v 0.00719163 -0.04130934 -0.01728032
v 0.00000784 -0.04076295 -0.01404307
v 0.00248620 -0.04099950 -0.01438639
v 0.00251497 -0.04161888 -0.01505322
v 0.00376571 -0.04143324 -0.01506869
v 0.00380005 -0.04193990 -0.01576170
v 0.00504049 -0.04165628 -0.01577517
v 0.00507535 -0.04206028 -0.01650057
v 0.00617430 -0.04162533 -0.01650893
v 0.00510353 -0.04238683 -0.01726716
v 0.00620128 -0.04193744 -0.01727392
v 0.00512577 -0.04264464 -0.01808177
v 0.00622256 -0.04218366 -0.01808698
v 0.00514281 -0.04284214 -0.01895114
v 0.00623885 -0.04237219 -0.01895494
v 0.00515536 -0.04298759 -0.01988196
v 0.00625085 -0.04251098 -0.01988452
v 0.00000794 -0.04196302 -0.01529546
v 0.00253912 -0.04213879 -0.01574813
v 0.00255907 -0.04256830 -0.01647776
v 0.00382837 -0.04235785 -0.01648921
v 0.00257524 -0.04291631 -0.01724870
v 0.00385130 -0.04269608 -0.01725798
v 0.00258803 -0.04319158 -0.01806752
v 0.00386941 -0.04296336 -0.01807468
v 0.00259784 -0.04340279 -0.01894076
v 0.00388330 -0.04316828 -0.01894598
v 0.00260508 -0.04355850 -0.01987493
v 0.00389354 -0.04331927 -0.01987846
v 0.00599427 -0.03954212 -0.01378982
v 0.00592704 -0.03876416 -0.01315916
v 0.00481810 -0.03907862 -0.01314590
v 0.00473733 -0.03814239 -0.01252064
v 0.00355526 -0.03832790 -0.01250394
v -0.00125607 -0.04225051 -0.01573419
v -0.00124349 -0.04172068 -0.01503742
v -0.00122854 -0.04109054 -0.01436913
v -0.00121100 -0.04035128 -0.01372283
v -0.00234903 -0.03844902 -0.01248609
v -0.00126647 -0.04268884 -0.01646590
v -0.00129483 -0.04388484 -0.02195057
v -0.00259354 -0.04373819 -0.02195167
v -0.00388367 -0.04349425 -0.02195281
v -0.00514718 -0.04315710 -0.02195394
v -0.00624150 -0.04267493 -0.02195478
v -0.00721822 -0.04200246 -0.02195556
v -0.00127490 -0.04304441 -0.01723900
v -0.00128158 -0.04332593 -0.01805992
v -0.00128671 -0.04354208 -0.01893512
v -0.00129049 -0.04370153 -0.01987101
v -0.00716808 -0.04131572 -0.01727958
v -0.00714669 -0.04102287 -0.01651604
v -0.00617820 -0.04194154 -0.01727318
v -0.00615123 -0.04162919 -0.01650812
v -0.00508106 -0.04238892 -0.01726642
v -0.00505294 -0.04206217 -0.01649975
v -0.00382986 -0.04269722 -0.01725722
v -0.00380702 -0.04235881 -0.01648838
v -0.00255557 -0.04291670 -0.01724794
v -0.00253948 -0.04256854 -0.01647693
v -0.00718494 -0.04154662 -0.01809125
v -0.00619947 -0.04218798 -0.01808632
v -0.00510327 -0.04264689 -0.01808110
v -0.00384792 -0.04296464 -0.01807400
v -0.00256830 -0.04319211 -0.01806684
v -0.00720734 -0.04185332 -0.01988647
v -0.00622775 -0.04251555 -0.01988404
v -0.00621576 -0.04237666 -0.01895436
v -0.00513280 -0.04299003 -0.01988147
v -0.00512028 -0.04284451 -0.01895056
v -0.00387196 -0.04332073 -0.01987796
v -0.00386176 -0.04316967 -0.01894538
v -0.00258527 -0.04355919 -0.01987443
v -0.00257807 -0.04340341 -0.01894016
v -0.00119065 -0.03949398 -0.01309205
v -0.00239410 -0.03942384 -0.01310906
v -0.00359950 -0.03928556 -0.01312688
v -0.00353476 -0.03832675 -0.01250271
v -0.00479610 -0.03907871 -0.01314476
v -0.00471545 -0.03814193 -0.01251942
v -0.00590402 -0.03876569 -0.01315801
v -0.00246692 -0.04099903 -0.01438538
v -0.00243324 -0.04027058 -0.01373989
v -0.00370370 -0.04082871 -0.01440234
v -0.00365558 -0.04011602 -0.01375772
v -0.00492538 -0.04058043 -0.01441925
v -0.00486575 -0.03988779 -0.01377555
v -0.00602868 -0.04020960 -0.01443174
v -0.00597123 -0.03954428 -0.01378874
v -0.00251961 -0.04213884 -0.01574724
v -0.00249557 -0.04161869 -0.01505227
v -0.00377878 -0.04194064 -0.01576081
v -0.00374455 -0.04143370 -0.01506773
v -0.00501814 -0.04165793 -0.01577429
v -0.00497589 -0.04116716 -0.01508313
v -0.00611784 -0.04124240 -0.01578422
v -0.00607726 -0.04077233 -0.01509447
v -0.00712018 -0.04065993 -0.01579364
v -0.00708793 -0.04021838 -0.01510525
v 0.00127239 0.04225027 -0.01573398
v 0.00125979 0.04172040 -0.01503720
v 0.00124481 0.04109023 -0.01436889
v 0.00122724 0.04035090 -0.01372258
v 0.00236687 0.03844826 -0.01248582
v 0.00128281 0.04268863 -0.01646570
v 0.00000647 0.04389503 -0.02195168
v 0.00131125 0.04388471 -0.02195048
v 0.00000647 0.04398199 -0.02342780
v 0.00261179 0.04373765 -0.02195158
v 0.00390371 0.04349301 -0.02195272
v 0.00516833 0.04315497 -0.02195383
v 0.00626339 0.04267080 -0.02195466
v 0.00724067 0.04199602 -0.02195544
v 0.00129126 0.04304423 -0.01723881
v 0.00000653 0.04285448 -0.01672132
v 0.00000649 0.04343870 -0.01831352
v 0.00129796 0.04332576 -0.01805974
v 0.00000650 0.04334579 -0.01806030
v 0.00130310 0.04354194 -0.01893496
v 0.00000648 0.04355413 -0.01893582
v 0.00000647 0.04379331 -0.02022530
v 0.00130689 0.04370138 -0.01987087
v 0.00000648 0.04372763 -0.01987117
v 0.00719063 0.04130966 -0.01727939
v 0.00716930 0.04101696 -0.01651585
v 0.00620011 0.04193765 -0.01727299
v 0.00617316 0.04162538 -0.01650792
v 0.00510216 0.04238688 -0.01726623
v 0.00507402 0.04206016 -0.01649956
v 0.00384980 0.04269602 -0.01725704
v 0.00382692 0.04235762 -0.01648820
v 0.00257373 0.04291615 -0.01724775
v 0.00255761 0.04256797 -0.01647674
v 0.00720745 0.04154042 -0.01809107
v 0.00622137 0.04218400 -0.01808614
v 0.00512438 0.04264481 -0.01808092
v 0.00386789 0.04296344 -0.01807383
v 0.00258649 0.04319155 -0.01806666
v 0.00722980 0.04184696 -0.01988630
v 0.00624963 0.04251147 -0.01988387
v 0.00623765 0.04237263 -0.01895418
v 0.00515394 0.04298792 -0.01988131
v 0.00514140 0.04284241 -0.01895039
v 0.00389197 0.04331951 -0.01987782
v 0.00388175 0.04316846 -0.01894523
v 0.00260349 0.04355863 -0.01987429
v 0.00259627 0.04340285 -0.01894001
v 0.00000680 0.03905441 -0.01278679
v 0.00120686 0.03949352 -0.01309178
v 0.00241200 0.03942315 -0.01310881
v 0.00361911 0.03928443 -0.01312665
v 0.00355428 0.03832561 -0.01250245
v 0.00481705 0.03907693 -0.01314451
v 0.00473637 0.03814020 -0.01251915
v 0.00592612 0.03876264 -0.01315778
v 0.00000667 0.04076296 -0.01404307
v 0.00000659 0.04196303 -0.01529546
v 0.00248494 0.04099842 -0.01438516
v 0.00245121 0.04026993 -0.01373965
v 0.00372346 0.04082758 -0.01440213
v 0.00367527 0.04011489 -0.01375750
v 0.00494639 0.04057855 -0.01441904
v 0.00488674 0.03988596 -0.01377533
v 0.00605069 0.04020620 -0.01443154
v 0.00599329 0.03954104 -0.01378853
v 0.00253772 0.04213826 -0.01574704
v 0.00251363 0.04161809 -0.01505206
v 0.00379864 0.04193947 -0.01576061
v 0.00376436 0.04143255 -0.01506753
v 0.00503920 0.04165596 -0.01577410
v 0.00499693 0.04116523 -0.01508292
v 0.00613979 0.04123871 -0.01578402
v 0.00609924 0.04076877 -0.01509428
v 0.00714286 0.04065422 -0.01579345
v 0.00711070 0.04021289 -0.01510506
v -0.00121215 0.04035301 -0.01372426
v -0.00124483 0.04172168 -0.01503869
v -0.00125747 0.04225124 -0.01573539
v -0.00122979 0.04109187 -0.01437047
v -0.00119169 0.03949616 -0.01309357
v -0.00239517 0.03942594 -0.01311058
v -0.00234998 0.03845166 -0.01248772
v -0.00116819 0.03851238 -0.01247190
v -0.00719888 0.04172280 -0.01895878
v -0.00720839 0.04185274 -0.01988717
v -0.00721928 0.04200180 -0.02195595
v -0.00624274 0.04267437 -0.02195516
v -0.00514863 0.04315671 -0.02195433
v -0.00388526 0.04349396 -0.02195321
v -0.00259515 0.04373801 -0.02195206
v -0.00129646 0.04388476 -0.02195096
v -0.00718597 0.04154621 -0.01809218
v -0.00127642 0.04304473 -0.01724003
v -0.00126793 0.04268935 -0.01646702
v -0.00128829 0.04354216 -0.01893595
v -0.00128314 0.04332611 -0.01806086
v -0.00129209 0.04370153 -0.01987172
v -0.00360061 0.03928756 -0.01312841
v -0.00365678 0.04011755 -0.01375915
v -0.00486689 0.03988921 -0.01377698
v -0.00492659 0.04058145 -0.01442059
v -0.00602973 0.04021045 -0.01443308
v -0.00607835 0.04077284 -0.01509573
v -0.00708887 0.04021875 -0.01510651
v -0.00712115 0.04066004 -0.01579482
v -0.00243442 0.04027221 -0.01374132
v -0.00370499 0.04082984 -0.01440368
v -0.00497715 0.04116785 -0.01508438
v -0.00611897 0.04124265 -0.01578540
v -0.00714768 0.04102276 -0.01651714
v -0.00716909 0.04131545 -0.01728060
v -0.00246819 0.04100027 -0.01438673
v -0.00249691 0.04161959 -0.01505354
v -0.00374591 0.04143449 -0.01506900
v -0.00378020 0.04194115 -0.01576199
v -0.00501944 0.04165833 -0.01577548
v -0.00505428 0.04206236 -0.01650086
v -0.00615239 0.04162921 -0.01650922
v -0.00508244 0.04238893 -0.01726744
v -0.00617938 0.04194138 -0.01727420
v -0.00510467 0.04264676 -0.01808203
v -0.00620067 0.04218768 -0.01808725
v -0.00512170 0.04284427 -0.01895138
v -0.00621697 0.04237625 -0.01895518
v -0.00513424 0.04298973 -0.01988217
v -0.00622897 0.04251507 -0.01988474
v -0.00252103 0.04213945 -0.01574844
v -0.00254094 0.04256894 -0.01647805
v -0.00380848 0.04235909 -0.01648950
v -0.00255708 0.04291692 -0.01724897
v -0.00383137 0.04269733 -0.01725824
v -0.00256985 0.04319218 -0.01806778
v -0.00384945 0.04296461 -0.01807493
v -0.00257964 0.04340338 -0.01894099
v -0.00386332 0.04316953 -0.01894622
v -0.00258686 0.04355907 -0.01987513
v -0.00387354 0.04332052 -0.01987867
v -0.00597224 0.03954552 -0.01379017
v -0.00590496 0.03876741 -0.01315954
v -0.00479717 0.03908060 -0.01314628
v -0.00471644 0.03814437 -0.01252105
v -0.00353576 0.03832930 -0.01250434
v -0.02557865 -0.02518020 -0.01167373
v -0.02765595 -0.02287920 -0.01167374
v -0.03259594 -0.01502710 -0.01167376
v -0.03165971 -0.01684683 -0.01167375
v -0.03117774 -0.01778364 -0.01167375
v -0.02952697 -0.02040754 -0.01167375
v -0.03535852 -0.00617119 -0.01167377
v -0.03480704 -0.00868466 -0.01167376
v -0.03469416 -0.00919914 -0.01167376
v -0.03377100 -0.01215847 -0.01167376
v -0.02557882 0.02518001 -0.01167373
v -0.02765612 0.02287900 -0.01167374
v -0.02952712 0.02040732 -0.01167374
v -0.03117786 0.01778341 -0.01167375
v -0.03165972 0.01684681 -0.01167375
v -0.03259605 0.01502686 -0.01167376
v -0.03377109 0.01215822 -0.01167376
v -0.03469422 0.00919889 -0.01167377
v -0.03535857 0.00617093 -0.01167377
v -0.03559290 0.00437281 -0.01167377
v -0.03575916 0.00309695 -0.01167377
v -0.03589301 -0.00000001 -0.01167377
v -0.03589301 -0.00000013 -0.01167377
v -0.03575914 -0.00309721 -0.01167377
v -0.02332025 -0.02730475 -0.01152189
v -0.02766748 -0.02288873 -0.01152190
v -0.02558930 -0.02519069 -0.01152189
v -0.03119073 -0.01779105 -0.01152191
v -0.02953927 -0.02041604 -0.01152191
v -0.03260952 -0.01503336 -0.01152192
v -0.03470861 -0.00920297 -0.01152193
v -0.03378507 -0.01216353 -0.01152192
v -0.03537325 -0.00617376 -0.01152193
v -0.03590797 -0.00000014 -0.01152193
v -0.03577404 -0.00309851 -0.01152193
v -0.03577406 0.00309824 -0.01152193
v -0.03537330 0.00617350 -0.01152193
v -0.03378516 0.01216328 -0.01152192
v -0.03470868 0.00920272 -0.01152193
v -0.03260963 0.01503312 -0.01152192
v -0.02953942 0.02041582 -0.01152191
v -0.03119085 0.01779082 -0.01152192
v -0.02766764 0.02288853 -0.01152190
v -0.02558948 0.02519050 -0.01152189
v -0.02332044 0.02730458 -0.01152189
v -0.00361836 0.03531467 -0.01069355
v -0.00665204 0.03487074 -0.01069357
v -0.00055769 0.03549518 -0.01069355
v -0.00055441 0.03528658 -0.01057611
v -0.00055079 0.03505605 -0.01051163
v -0.00357359 0.03487777 -0.01051164
v -0.00656974 0.03443934 -0.01051165
v -0.00951688 0.03374401 -0.01051166
v -0.01239304 0.03279697 -0.01051167
v -0.01517675 0.03160530 -0.01051168
v -0.01784725 0.03017787 -0.01051169
v -0.02038463 0.02852534 -0.01051170
v -0.02276995 0.02666004 -0.01051171
v -0.02498542 0.02459587 -0.01051172
v -0.02701453 0.02234823 -0.01051173
v -0.02884212 0.01993388 -0.01051173
v -0.03045457 0.01737085 -0.01051174
v -0.03183985 0.01467825 -0.01051174
v -0.03298764 0.01187616 -0.01051175
v -0.03388936 0.00898547 -0.01051175
v -0.03453829 0.00602777 -0.01051175
v -0.03492958 0.00302510 -0.01051175
v -0.03506033 -0.00000013 -0.01051175
v -0.03492956 -0.00302536 -0.01051175
v -0.03453824 -0.00602803 -0.01051175
v -0.03388929 -0.00898573 -0.01051175
v -0.03298755 -0.01187640 -0.01051175
v -0.03183975 -0.01467849 -0.01051174
v -0.03045445 -0.01737108 -0.01051174
v -0.02884198 -0.01993410 -0.01051173
v -0.02701437 -0.02234842 -0.01051173
v -0.02498525 -0.02459605 -0.01051172
v -0.02276976 -0.02666020 -0.01051171
v -0.02038442 -0.02852549 -0.01051170
v -0.01784704 -0.03017800 -0.01051169
v -0.01517652 -0.03160541 -0.01051168
v -0.01239281 -0.03279706 -0.01051167
v -0.00951665 -0.03374407 -0.01051166
v -0.00656950 -0.03443938 -0.01051165
v -0.00357335 -0.03487780 -0.01051164
v -0.00055054 -0.03505605 -0.01051163
v -0.00055744 -0.03549518 -0.01069354
v -0.00361811 -0.03531469 -0.01069355
v -0.00359710 0.03510714 -0.01057612
v -0.00661295 0.03466582 -0.01057613
v -0.00957947 0.03396592 -0.01057614
v -0.01247454 0.03301265 -0.01057615
v -0.01527655 0.03181314 -0.01057616
v -0.01796462 0.03037633 -0.01057617
v -0.02051868 0.02871293 -0.01057618
v -0.02291968 0.02683535 -0.01057619
v -0.02514973 0.02475760 -0.01057620
v -0.02719218 0.02249519 -0.01057620
v -0.02903179 0.02006497 -0.01057621
v -0.03065484 0.01748508 -0.01057622
v -0.03204923 0.01477477 -0.01057622
v -0.03320456 0.01195426 -0.01057623
v -0.03411222 0.00904456 -0.01057623
v -0.03476541 0.00606741 -0.01057623
v -0.03515929 0.00304500 -0.01057624
v -0.03529090 -0.00000013 -0.01057623
v -0.03515926 -0.00304526 -0.01057623
v -0.03476537 -0.00606767 -0.01057623
v -0.03411215 -0.00904482 -0.01057623
v -0.03320448 -0.01195450 -0.01057623
v -0.03204913 -0.01477501 -0.01057622
v -0.03065472 -0.01748532 -0.01057622
v -0.02903164 -0.02006519 -0.01057621
v -0.02719201 -0.02249539 -0.01057621
v -0.02514955 -0.02475779 -0.01057620
v -0.02291949 -0.02683552 -0.01057619
v -0.02051847 -0.02871308 -0.01057618
v -0.01796440 -0.03037646 -0.01057617
v -0.01527633 -0.03181325 -0.01057616
v -0.01247430 -0.03301274 -0.01057615
v -0.00957923 -0.03396598 -0.01057614
v -0.00661270 -0.03466586 -0.01057613
v -0.00359685 -0.03510715 -0.01057612
v -0.00055416 -0.03528658 -0.01057611
v -0.00963610 0.03416671 -0.01069358
v -0.01254828 0.03320781 -0.01069359
v -0.01536686 0.03200121 -0.01069360
v -0.01807082 0.03055590 -0.01069361
v -0.02063998 0.02888267 -0.01069362
v -0.02305518 0.02699400 -0.01069363
v -0.02529840 0.02490396 -0.01069364
v -0.02735293 0.02262817 -0.01069364
v -0.02920341 0.02018359 -0.01069365
v -0.03083606 0.01758845 -0.01069365
v -0.03223870 0.01486212 -0.01069366
v -0.03340086 0.01202493 -0.01069367
v -0.03431388 0.00909803 -0.01069367
v -0.03497093 0.00610328 -0.01069367
v -0.03536713 0.00306300 -0.01069367
v -0.03549952 -0.00000013 -0.01069367
v -0.03536711 -0.00306326 -0.01069367
v -0.03497089 -0.00610354 -0.01069367
v -0.03431381 -0.00909829 -0.01069367
v -0.03340077 -0.01202517 -0.01069367
v -0.03223859 -0.01486235 -0.01069366
v -0.03083594 -0.01758868 -0.01069366
v -0.02920327 -0.02018381 -0.01069365
v -0.02735276 -0.02262837 -0.01069364
v -0.02529823 -0.02490415 -0.01069364
v -0.02305499 -0.02699416 -0.01069363
v -0.02063977 -0.02888282 -0.01069362
v -0.01807060 -0.03055603 -0.01069361
v -0.01536663 -0.03200132 -0.01069360
v -0.01254805 -0.03320790 -0.01069359
v -0.00963586 -0.03416677 -0.01069358
v -0.00665179 -0.03487079 -0.01069357
v -0.01261004 0.03337126 -0.01085724
v -0.01544250 0.03215873 -0.01085726
v -0.01815976 0.03070630 -0.01085727
v -0.02074157 0.02902483 -0.01085728
v -0.02316866 0.02712687 -0.01085728
v -0.02542293 0.02502655 -0.01085729
v -0.02748756 0.02273955 -0.01085730
v -0.02934716 0.02028294 -0.01085731
v -0.03098784 0.01767503 -0.01085731
v -0.03239738 0.01493527 -0.01085732
v -0.03356526 0.01208411 -0.01085732
v -0.03448277 0.00914281 -0.01085732
v -0.03514307 0.00613332 -0.01085733
v -0.03554122 0.00307808 -0.01085733
v -0.03567426 -0.00000013 -0.01085733
v -0.03554119 -0.00307834 -0.01085733
v -0.03514302 -0.00613358 -0.01085733
v -0.03448270 -0.00914307 -0.01085733
v -0.03356518 -0.01208436 -0.01085732
v -0.03239728 -0.01493551 -0.01085732
v -0.03098772 -0.01767526 -0.01085731
v -0.02934701 -0.02028315 -0.01085731
v -0.02748740 -0.02273975 -0.01085730
v -0.02542275 -0.02502674 -0.01085729
v -0.02316847 -0.02712703 -0.01085729
v -0.02074136 -0.02902498 -0.01085728
v -0.01815955 -0.03070643 -0.01085727
v -0.01544227 -0.03215884 -0.01085726
v -0.01260981 -0.03337135 -0.01085725
v -0.01822636 0.03081891 -0.01105776
v -0.02081763 0.02913128 -0.01105777
v -0.02325362 0.02722634 -0.01105778
v -0.02551616 0.02511832 -0.01105779
v -0.02758836 0.02282294 -0.01105780
v -0.02945478 0.02035731 -0.01105780
v -0.03110148 0.01773984 -0.01105781
v -0.03251619 0.01499004 -0.01105782
v -0.03368835 0.01212843 -0.01105782
v -0.03460923 0.00917635 -0.01105782
v -0.03527194 0.00615581 -0.01105783
v -0.03567156 0.00308936 -0.01105783
v -0.03580508 -0.00000014 -0.01105783
v -0.03567153 -0.00308963 -0.01105783
v -0.03527190 -0.00615607 -0.01105783
v -0.03460916 -0.00917660 -0.01105782
v -0.03368827 -0.01212868 -0.01105782
v -0.03251609 -0.01499028 -0.01105781
v -0.03110136 -0.01774007 -0.01105781
v -0.02945463 -0.02035754 -0.01105780
v -0.02758820 -0.02282314 -0.01105780
v -0.02551598 -0.02511851 -0.01105779
v -0.02325343 -0.02722651 -0.01105778
v -0.02081743 -0.02913142 -0.01105777
v -0.01822614 -0.03081904 -0.01105776
v -0.02086381 0.02919590 -0.01128362
v -0.02330520 0.02728674 -0.01128363
v -0.02557276 0.02517404 -0.01128364
v -0.02764956 0.02287357 -0.01128365
v -0.02952011 0.02040247 -0.01128365
v -0.03117047 0.01777919 -0.01128366
v -0.03258832 0.01502329 -0.01128367
v -0.03376308 0.01215533 -0.01128367
v -0.03468600 0.00919670 -0.01128367
v -0.03535018 0.00616947 -0.01128368
v -0.03575068 0.00309622 -0.01128367
v -0.03588451 -0.00000014 -0.01128367
v -0.03575066 -0.00309648 -0.01128368
v -0.03535014 -0.00616973 -0.01128367
v -0.03468593 -0.00919696 -0.01128367
v -0.03376300 -0.01215558 -0.01128367
v -0.03258821 -0.01502353 -0.01128366
v -0.03117035 -0.01777943 -0.01128366
v -0.02951997 -0.02040269 -0.01128365
v -0.02764940 -0.02287377 -0.01128365
v -0.02557258 -0.02517423 -0.01128364
v -0.02330501 -0.02728691 -0.01128363
v -0.02086360 -0.02919604 -0.01128362
f 169 763 761
f 761 763 453
f 474 467 763
f 15 16 18
f 257 254 255
f 451 761 416
f 509 508 507
f 535 538 536
f 936 937 1274
f 1274 937 1275
f 1124 1113 1114
f 1121 1099 1100
f 1096 392 390
f 13 764 58
f 256 254 257
f 397 1097 457
f 1097 1114 457
f 470 1100 394
f 394 396 470
f 395 1099 397
f 1100 1099 395
f 395 394 1100
f 396 394 395
f 425 474 763
f 468 466 465
f 763 321 9
f 17 18 16
f 571 100 17
f 100 18 17
f 104 103 15
f 616 611 617
f 739 716 715
f 822 813 739
f 740 716 739
f 507 508 505
f 689 658 688
f 688 715 689
f 689 715 716
f 690 658 689
f 577 579 20
f 20 19 577
f 99 50 98
f 21 19 20
f 572 100 571
f 95 577 19
f 719 744 720
f 694 693 720
f 764 64 63
f 512 509 511
f 665 666 631
f 517 515 631
f 511 509 628
f 513 629 515
f 511 628 513
f 513 628 629
f 515 629 630
f 665 631 630
f 630 631 515
f 450 761 451
f 761 450 443
f 443 450 444
f 414 1101 220
f 404 1108 1107
f 1109 1108 446
f 452 1109 446
f 169 761 7
f 1035 1036 212
f 626 509 507
f 507 505 626
f 626 505 625
f 490 492 494
f 1143 787 1142
f 526 804 774
f 937 935 929
f 1110 1109 452
f 452 1111 1110
f 1112 1113 1124
f 1124 1111 1112
f 417 416 761
f 417 761 453
f 453 419 417
f 454 419 453
f 453 461 454
f 419 454 455
f 455 454 461
f 459 458 400
f 400 456 459
f 1098 1121 1097
f 1099 1121 1098
f 1098 1097 397
f 397 1099 1098
f 1093 1100 470
f 475 1093 470
f 1095 392 1096
f 1096 1118 1095
f 1095 475 392
f 1266 1293 1267
f 1096 390 1092
f 1091 1117 1092
f 308 13 58
f 474 425 473
f 467 474 473
f 473 468 467
f 398 395 397
f 396 395 398
f 397 457 398
f 398 457 458
f 398 458 459
f 459 466 398
f 469 472 396
f 466 468 469
f 469 473 472
f 468 473 469
f 396 398 469
f 469 398 466
f 460 461 465
f 460 466 459
f 465 466 460
f 460 455 461
f 459 456 460
f 456 455 460
f 467 468 464
f 464 468 465
f 763 467 464
f 464 463 763
f 465 461 464
f 461 463 464
f 763 463 462
f 462 463 461
f 453 763 462
f 462 461 453
f 342 341 371
f 257 255 815
f 254 818 815
f 815 255 254
f 427 9 353
f 763 9 427
f 99 92 762
f 762 764 169
f 762 89 88
f 92 89 762
f 93 98 94
f 93 92 99
f 99 98 93
f 134 958 131
f 182 180 165
f 183 180 182
f 115 112 165
f 117 120 115
f 882 610 811
f 611 610 882
f 685 684 878
f 825 824 823
f 828 870 823
f 829 823 824
f 837 845 838
f 836 844 837
f 838 880 837
f 837 880 836
f 851 837 844
f 845 837 851
f 806 866 807
f 825 867 807
f 807 866 883
f 883 824 807
f 807 824 825
f 838 845 839
f 839 878 838
f 868 867 825
f 825 823 868
f 868 823 870
f 854 867 868
f 857 858 859
f 848 857 859
f 871 858 856
f 856 858 857
f 873 858 871
f 487 616 617
f 490 488 487
f 485 616 487
f 487 488 485
f 33 59 600
f 600 602 33
f 743 744 719
f 742 743 719
f 55 308 58
f 738 822 739
f 739 715 738
f 738 715 714
f 738 714 848
f 603 740 739
f 506 505 508
f 690 691 660
f 660 626 625
f 659 658 690
f 659 624 658
f 690 660 659
f 625 624 659
f 659 660 625
f 625 505 503
f 503 624 625
f 505 506 503
f 623 622 658
f 658 624 623
f 624 503 623
f 523 525 526
f 535 536 533
f 22 582 82
f 20 579 22
f 100 572 574
f 574 95 100
f 729 701 728
f 586 585 587
f 585 589 587
f 588 589 585
f 29 596 31
f 26 587 589
f 586 587 26
f 26 24 586
f 31 596 598
f 598 59 31
f 600 59 598
f 724 747 748
f 724 723 747
f 508 509 510
f 510 512 508
f 509 512 510
f 516 515 517
f 662 663 628
f 662 693 694
f 694 663 662
f 448 444 449
f 444 450 449
f 1084 1045 1039
f 1039 1038 1084
f 120 118 194
f 1033 1135 1302
f 1034 1135 1033
f 1035 1034 1033
f 1074 1036 1035
f 1035 1033 1074
f 1302 1277 1301
f 1059 1301 1058
f 1058 1301 1277
f 1219 1185 1218
f 1218 1185 1184
f 1244 1275 937
f 937 929 1244
f 1270 1297 1298
f 1298 1297 1321
f 403 1108 404
f 403 446 1108
f 1107 1128 1106
f 761 438 434
f 434 7 761
f 235 7 434
f 761 443 440
f 6 235 236
f 6 7 235
f 6 5 169
f 169 7 6
f 448 424 447
f 446 403 447
f 452 446 447
f 447 424 452
f 447 403 404
f 416 417 418
f 418 417 419
f 418 449 450
f 451 416 418
f 418 450 451
f 415 413 414
f 415 412 411
f 411 413 415
f 237 6 236
f 5 6 237
f 220 225 227
f 230 229 227
f 215 225 187
f 1035 215 187
f 187 1034 1035
f 214 215 1035
f 1035 212 214
f 229 231 222
f 412 415 222
f 232 229 230
f 232 231 229
f 232 234 231
f 243 234 232
f 1086 1050 1248
f 789 1143 1144
f 1144 1143 1182
f 1144 1145 789
f 1182 1145 1144
f 788 1143 789
f 787 1143 788
f 794 793 1148
f 1148 1185 1186
f 673 703 704
f 15 103 14
f 103 567 14
f 14 16 15
f 932 939 930
f 933 932 930
f 935 932 933
f 884 866 806
f 930 939 884
f 883 866 884
f 884 939 883
f 886 850 805
f 805 809 886
f 811 809 810
f 810 882 811
f 836 882 810
f 810 844 836
f 805 844 810
f 810 809 805
f 1299 946 1300
f 947 1273 1300
f 1300 946 947
f 927 929 935
f 927 933 925
f 935 933 927
f 925 928 927
f 458 457 399
f 399 400 458
f 399 457 1114
f 399 1114 1113
f 1124 1114 1125
f 470 396 471
f 396 472 471
f 1093 475 1094
f 475 1095 1094
f 1118 1093 1094
f 1094 1095 1118
f 1293 1292 1317
f 1293 1317 1318
f 1119 1118 1096
f 1319 1318 1119
f 1119 1318 1118
f 478 346 1091
f 1091 1092 478
f 478 1092 390
f 324 1117 1091
f 1091 346 324
f 309 308 306
f 862 864 863
f 813 822 863
f 877 875 876
f 862 875 877
f 877 864 862
f 281 341 342
f 764 13 266
f 169 764 266
f 266 763 169
f 266 321 763
f 343 281 342
f 277 281 343
f 323 344 368
f 270 344 323
f 372 341 340
f 372 371 341
f 472 473 428
f 353 9 8
f 8 351 353
f 8 9 321
f 351 8 367
f 918 911 910
f 141 104 15
f 100 95 54
f 54 18 100
f 54 53 18
f 52 53 54
f 94 98 97
f 97 98 50
f 50 52 97
f 52 54 97
f 97 21 94
f 49 50 99
f 99 762 49
f 49 762 50
f 764 762 78
f 79 43 78
f 119 120 117
f 119 118 120
f 117 163 119
f 119 163 162
f 169 5 191
f 5 238 191
f 169 191 121
f 121 191 238
f 156 157 183
f 179 158 159
f 964 1041 966
f 956 1039 954
f 955 956 954
f 164 115 165
f 165 180 164
f 164 163 117
f 117 115 164
f 617 611 652
f 881 882 836
f 836 880 881
f 611 882 881
f 881 652 611
f 880 652 881
f 653 878 684
f 653 618 617
f 617 652 653
f 493 494 491
f 491 494 492
f 491 492 490
f 617 618 491
f 845 851 852
f 852 851 806
f 806 807 852
f 852 807 867
f 806 851 808
f 808 884 806
f 805 850 808
f 808 844 805
f 808 851 844
f 847 841 855
f 847 856 857
f 855 856 847
f 685 878 840
f 840 841 685
f 878 839 840
f 855 841 846
f 854 855 846
f 846 840 839
f 841 840 846
f 871 856 869
f 869 870 871
f 869 868 870
f 854 868 869
f 869 855 854
f 869 856 855
f 858 873 860
f 860 859 858
f 860 875 862
f 860 873 875
f 871 870 872
f 872 873 871
f 872 870 828
f 490 494 784
f 784 500 1
f 784 1 526
f 784 494 500
f 526 774 784
f 774 779 784
f 489 487 617
f 490 487 489
f 617 491 489
f 489 491 490
f 926 928 925
f 1246 928 926
f 926 1178 1246
f 887 1178 926
f 812 809 811
f 835 809 812
f 811 610 812
f 610 480 812
f 1177 887 835
f 1177 1178 887
f 615 480 610
f 615 616 485
f 611 616 615
f 615 610 611
f 717 691 690
f 690 689 717
f 717 689 716
f 743 742 599
f 744 743 599
f 600 598 599
f 606 38 37
f 35 607 606
f 606 37 35
f 35 33 602
f 602 607 35
f 247 297 819
f 849 738 848
f 822 738 849
f 848 859 849
f 604 38 606
f 609 603 297
f 38 604 609
f 609 604 603
f 608 603 739
f 297 603 608
f 819 297 608
f 692 660 691
f 693 662 692
f 719 720 692
f 692 720 693
f 493 491 619
f 619 491 618
f 685 841 686
f 504 503 506
f 501 623 503
f 501 500 499
f 499 622 501
f 622 623 501
f 524 523 526
f 668 669 633
f 668 667 699
f 633 667 668
f 633 669 634
f 634 521 633
f 634 523 521
f 635 525 634
f 525 523 634
f 699 667 698
f 698 724 725
f 698 667 666
f 632 667 633
f 633 521 632
f 632 631 666
f 666 667 632
f 531 533 532
f 532 529 531
f 532 538 526
f 532 536 538
f 699 698 726
f 726 698 725
f 749 726 725
f 750 726 749
f 748 588 749
f 749 588 585
f 749 724 748
f 725 724 749
f 578 577 576
f 579 577 578
f 752 581 578
f 577 95 575
f 95 574 575
f 576 577 575
f 576 575 573
f 573 575 574
f 573 574 572
f 673 638 637
f 531 529 637
f 637 638 531
f 670 671 635
f 670 701 671
f 635 634 670
f 670 634 669
f 728 752 753
f 753 729 728
f 753 578 576
f 752 578 753
f 576 573 753
f 753 573 754
f 702 703 671
f 702 729 703
f 671 701 702
f 701 729 702
f 589 588 590
f 748 747 590
f 590 588 748
f 31 59 32
f 32 29 31
f 66 32 61
f 62 63 64
f 66 61 62
f 58 764 62
f 764 63 62
f 62 57 58
f 62 61 57
f 665 630 664
f 664 630 629
f 664 663 694
f 629 628 664
f 628 663 664
f 596 29 594
f 75 74 764
f 40 43 42
f 40 75 764
f 42 74 40
f 74 75 40
f 77 26 589
f 589 76 77
f 694 720 721
f 721 720 744
f 744 745 721
f 595 745 744
f 595 598 596
f 723 724 697
f 697 698 666
f 724 698 697
f 514 512 511
f 511 513 514
f 514 513 515
f 515 516 514
f 526 1 514
f 514 1 508
f 508 512 514
f 627 628 509
f 627 662 628
f 509 626 627
f 626 662 627
f 200 1037 1038
f 1038 1039 198
f 198 956 109
f 1039 956 198
f 193 195 120
f 120 194 193
f 192 194 118
f 192 121 238
f 192 238 5
f 1040 1301 1059
f 1302 1301 1040
f 966 1041 963
f 1042 963 1041
f 1059 1058 1068
f 1084 1038 1085
f 1038 1037 1085
f 1085 1083 1084
f 1071 1083 1085
f 550 551 552
f 538 540 548
f 548 550 552
f 548 540 546
f 546 547 548
f 547 550 548
f 953 963 948
f 962 980 965
f 962 963 953
f 966 963 962
f 962 964 966
f 965 964 962
f 953 948 1014
f 1014 948 1015
f 960 959 988
f 984 991 993
f 959 958 990
f 990 988 959
f 1183 1145 1182
f 1182 1216 1183
f 1184 1145 1183
f 1183 1218 1184
f 1220 1185 1219
f 1186 1185 1220
f 1278 1277 1302
f 1278 1251 1277
f 1277 1251 1250
f 1219 1218 1250
f 1250 1220 1219
f 1251 1220 1250
f 1253 1221 1252
f 1221 1220 1252
f 1252 1220 1251
f 776 775 1167
f 1271 1270 1298
f 1240 1270 1271
f 1116 1092 1117
f 1117 1321 1116
f 1319 1119 1116
f 1096 1092 1116
f 1116 1119 1096
f 894 914 1115
f 1115 324 894
f 1117 324 1115
f 1115 1321 1117
f 1315 1292 1291
f 1265 1293 1266
f 1265 1292 1293
f 1265 1291 1292
f 1199 1200 1162
f 1200 1201 1162
f 766 767 804
f 768 767 1161
f 1199 1162 1161
f 769 774 804
f 804 767 769
f 770 771 769
f 769 767 768
f 768 1161 769
f 769 1161 1162
f 1309 1285 1308
f 1308 1285 1284
f 1105 1104 435
f 435 1106 1105
f 1130 1106 1128
f 1308 1307 1130
f 1130 1128 1308
f 1130 1307 1306
f 1132 1103 1104
f 1132 1130 1306
f 1104 1105 1132
f 1132 1105 1106
f 1106 1130 1132
f 1101 1133 1134
f 1134 1133 1303
f 1302 1135 1134
f 1134 1303 1302
f 1102 1133 1101
f 1101 414 1102
f 414 413 1102
f 1102 413 411
f 411 1103 1102
f 1281 1280 1305
f 437 434 438
f 431 432 235
f 235 434 431
f 433 412 432
f 432 431 433
f 433 431 434
f 434 437 433
f 439 438 761
f 761 440 439
f 445 444 448
f 448 447 445
f 404 1107 406
f 422 424 448
f 1036 218 217
f 202 1037 203
f 1036 1037 202
f 202 218 1036
f 226 225 215
f 1034 187 186
f 186 225 220
f 186 187 225
f 221 222 415
f 221 414 220
f 221 415 414
f 220 227 221
f 221 227 229
f 229 222 221
f 231 234 233
f 235 432 233
f 432 224 233
f 236 235 233
f 233 234 236
f 223 222 231
f 231 233 223
f 223 233 224
f 223 224 432
f 432 412 223
f 412 222 223
f 243 232 242
f 241 208 242
f 230 241 242
f 242 232 230
f 558 552 554
f 1140 785 558
f 1248 1216 1247
f 1247 1086 1248
f 1216 1086 1247
f 1181 1142 1180
f 1181 1143 1142
f 1182 1143 1181
f 1181 1216 1182
f 1181 1215 1216
f 794 1148 795
f 778 779 774
f 778 784 779
f 778 1171 780
f 786 791 792
f 789 791 786
f 786 548 552
f 786 552 558
f 786 788 789
f 787 788 786
f 558 785 786
f 786 792 804
f 538 548 786
f 786 1141 1142
f 1142 787 786
f 786 1140 1141
f 785 1140 786
f 526 538 786
f 786 804 526
f 789 1145 790
f 790 791 789
f 1145 791 790
f 792 791 796
f 796 791 793
f 796 793 794
f 794 795 796
f 1147 1148 793
f 1185 1148 1147
f 1146 1145 1184
f 1146 791 1145
f 1184 1185 1146
f 1185 1147 1146
f 793 791 1146
f 1146 1147 793
f 639 638 673
f 535 533 639
f 639 640 535
f 639 533 531
f 531 638 639
f 703 729 730
f 730 753 754
f 729 753 730
f 535 640 641
f 939 932 941
f 943 940 941
f 934 932 935
f 934 936 943
f 943 941 934
f 934 941 932
f 937 936 934
f 934 935 937
f 930 884 885
f 850 886 885
f 885 808 850
f 884 808 885
f 924 926 925
f 887 926 924
f 883 939 938
f 939 941 938
f 938 941 940
f 1207 1206 1241
f 1241 1206 1240
f 910 899 909
f 909 899 1323
f 1274 1273 945
f 1273 947 945
f 945 936 1274
f 943 936 945
f 903 904 902
f 1287 1260 1286
f 1285 1309 1286
f 1286 1311 1287
f 402 400 401
f 400 399 401
f 401 399 1113
f 1113 1112 401
f 401 1112 1111
f 401 1111 452
f 452 424 401
f 401 424 402
f 1313 1125 1123
f 1123 1114 1097
f 1123 1125 1114
f 1123 1121 1315
f 1097 1121 1123
f 1120 1093 1118
f 1118 1318 1120
f 1120 1318 1317
f 1316 1317 1292
f 1316 1292 1315
f 1316 1120 1317
f 1315 1121 1316
f 1266 1267 1235
f 1235 1265 1266
f 1235 1201 1200
f 1201 1235 1202
f 1294 1267 1293
f 1293 1318 1294
f 479 390 391
f 479 478 390
f 894 324 345
f 345 324 346
f 13 308 12
f 308 309 12
f 12 266 13
f 819 608 814
f 739 813 814
f 814 608 739
f 289 291 820
f 819 814 820
f 864 877 816
f 816 259 258
f 282 256 340
f 340 341 282
f 341 281 280
f 280 282 341
f 368 344 369
f 344 343 369
f 371 372 386
f 476 427 353
f 353 477 476
f 353 349 350
f 350 477 353
f 349 477 350
f 429 428 427
f 429 477 391
f 427 476 429
f 429 476 477
f 427 428 426
f 426 425 763
f 763 427 426
f 426 473 425
f 426 428 473
f 430 475 470
f 470 471 430
f 430 471 472
f 472 428 430
f 374 377 379
f 379 377 378
f 360 362 327
f 363 362 360
f 330 327 362
f 332 330 362
f 348 479 391
f 391 477 348
f 348 477 349
f 893 914 894
f 893 915 914
f 355 349 353
f 355 348 349
f 379 367 10
f 10 367 8
f 10 374 379
f 10 8 321
f 377 374 10
f 351 367 352
f 353 351 352
f 352 355 353
f 916 918 910
f 910 909 916
f 914 915 916
f 916 909 914
f 104 141 140
f 139 103 140
f 103 104 140
f 102 143 142
f 102 141 15
f 142 141 102
f 15 18 102
f 18 53 102
f 50 762 51
f 51 52 50
f 51 53 52
f 101 102 51
f 51 102 53
f 21 97 96
f 19 21 96
f 96 95 19
f 96 54 95
f 96 97 54
f 86 85 79
f 79 78 86
f 88 89 86
f 764 78 41
f 41 78 43
f 41 40 764
f 43 40 41
f 23 22 82
f 94 21 23
f 23 21 20
f 20 22 23
f 162 163 176
f 185 156 183
f 134 131 185
f 183 182 185
f 158 179 181
f 183 157 181
f 157 158 181
f 181 180 183
f 967 995 970
f 967 964 965
f 993 995 985
f 985 984 993
f 976 984 985
f 965 980 986
f 986 967 965
f 995 967 986
f 986 985 995
f 970 995 994
f 994 955 970
f 994 995 993
f 1010 1011 1013
f 736 760 973
f 138 124 139
f 564 124 562
f 960 988 987
f 879 652 880
f 879 653 652
f 878 653 879
f 879 880 838
f 838 878 879
f 845 852 853
f 853 839 845
f 853 846 839
f 854 846 853
f 853 867 854
f 853 852 867
f 859 860 861
f 861 863 822
f 862 863 861
f 861 860 862
f 822 849 861
f 861 849 859
f 876 875 874
f 875 873 874
f 873 872 874
f 782 778 780
f 784 778 782
f 484 488 490
f 490 784 484
f 1178 1177 1213
f 1246 1178 1213
f 612 1177 835
f 835 812 612
f 612 812 480
f 480 615 614
f 614 612 480
f 614 615 485
f 59 33 34
f 57 61 34
f 601 607 602
f 601 599 742
f 601 602 600
f 600 599 601
f 691 717 718
f 718 717 742
f 718 742 719
f 719 692 718
f 718 692 691
f 742 717 741
f 740 603 741
f 716 740 741
f 741 717 716
f 56 250 306
f 56 55 58
f 58 57 56
f 57 34 56
f 306 308 56
f 308 55 56
f 36 35 37
f 36 56 34
f 33 35 36
f 36 34 33
f 248 247 819
f 819 820 248
f 248 820 291
f 626 660 661
f 660 692 661
f 661 662 626
f 661 692 662
f 497 622 499
f 497 621 622
f 499 500 497
f 620 621 497
f 622 621 656
f 656 621 620
f 618 653 654
f 654 619 618
f 654 684 685
f 654 653 684
f 620 619 654
f 841 847 842
f 842 686 841
f 843 857 848
f 843 847 857
f 848 714 843
f 843 842 847
f 503 504 502
f 502 501 503
f 500 501 502
f 502 504 506
f 502 506 508
f 508 1 502
f 1 500 502
f 534 533 536
f 536 532 534
f 534 532 533
f 530 532 526
f 529 532 530
f 583 581 750
f 583 749 585
f 750 749 583
f 580 581 582
f 580 22 579
f 582 22 580
f 579 578 580
f 580 578 581
f 750 581 751
f 751 581 752
f 671 703 672
f 672 637 671
f 672 703 673
f 673 637 672
f 635 671 636
f 671 637 636
f 636 525 635
f 636 637 529
f 591 76 589
f 589 590 591
f 591 590 592
f 65 62 64
f 66 62 65
f 65 68 66
f 28 594 29
f 67 64 764
f 764 74 67
f 67 65 64
f 68 65 67
f 42 43 45
f 45 43 79
f 42 45 44
f 44 45 47
f 24 26 25
f 47 81 25
f 25 81 84
f 48 77 76
f 26 77 48
f 746 721 745
f 747 723 746
f 746 590 747
f 597 595 744
f 598 595 597
f 744 599 597
f 597 599 598
f 723 697 696
f 665 664 696
f 696 666 665
f 696 697 666
f 518 516 517
f 517 520 518
f 519 520 517
f 517 631 519
f 631 632 519
f 519 632 521
f 1037 200 199
f 120 195 116
f 116 115 120
f 112 115 116
f 189 200 201
f 201 198 189
f 201 200 1038
f 1038 198 201
f 107 198 109
f 122 192 118
f 121 192 122
f 1032 1033 1302
f 1302 1040 1032
f 1032 1040 1072
f 1072 1074 1032
f 1032 1074 1033
f 1078 1041 1044
f 1044 1080 1078
f 1043 1080 1044
f 1041 964 1044
f 1044 964 1043
f 1084 1083 1082
f 1082 1080 1043
f 1083 1081 1082
f 1082 1081 1080
f 1082 1045 1084
f 1082 1043 1045
f 1070 1040 1059
f 1059 1068 1070
f 1072 1040 1070
f 1071 1072 1070
f 1071 1085 1073
f 1036 1074 1073
f 1073 1037 1036
f 1073 1085 1037
f 1073 1072 1071
f 1073 1074 1072
f 551 550 549
f 549 550 547
f 953 1014 981
f 981 962 953
f 980 962 981
f 982 987 989
f 989 987 988
f 989 990 991
f 988 990 989
f 1002 682 1001
f 999 1002 1001
f 1000 1002 999
f 649 551 648
f 1248 1218 1217
f 1218 1183 1217
f 1217 1216 1248
f 1217 1183 1216
f 1053 1058 1277
f 1277 1276 1053
f 1277 1250 1249
f 1249 1276 1277
f 1249 1250 1218
f 1249 1218 1248
f 1246 1211 1245
f 1245 928 1246
f 1245 927 928
f 929 927 1245
f 1245 1244 929
f 1245 1211 1244
f 1165 1202 1203
f 1320 1116 1321
f 1320 1297 1296
f 1320 1321 1297
f 1319 1116 1320
f 1322 1299 1298
f 1323 1299 1322
f 1298 1321 1322
f 1321 1115 1322
f 1322 909 1323
f 1322 1115 914
f 914 909 1322
f 1233 1200 1199
f 1199 1232 1233
f 804 803 1158
f 1231 1232 1197
f 1196 1231 1197
f 1197 1158 1196
f 774 769 772
f 772 769 771
f 1308 1128 1129
f 1129 1309 1308
f 1129 1107 1108
f 1129 1128 1107
f 1129 1108 1109
f 1228 1229 1194
f 1229 1195 1194
f 1306 1307 1282
f 1282 1305 1306
f 1281 1305 1282
f 1190 1224 1191
f 1283 1307 1308
f 1308 1284 1283
f 1283 1282 1307
f 1283 1255 1282
f 1228 1194 1227
f 1227 1194 1193
f 1303 1133 1304
f 1304 1280 1303
f 1304 1305 1280
f 1303 1280 1279
f 1253 1252 1279
f 1279 1280 1253
f 1302 1303 1279
f 1279 1278 1302
f 1251 1278 1279
f 1279 1252 1251
f 1131 1102 1103
f 1133 1102 1131
f 1103 1132 1131
f 1131 1304 1133
f 1305 1304 1131
f 1131 1132 1306
f 1306 1305 1131
f 409 1103 411
f 1104 1103 409
f 435 1104 409
f 404 406 405
f 405 447 404
f 405 445 447
f 449 418 420
f 448 449 420
f 420 422 448
f 420 418 419
f 402 424 423
f 424 422 423
f 422 420 423
f 423 455 456
f 423 400 402
f 456 400 423
f 194 192 211
f 195 208 196
f 196 116 195
f 189 198 190
f 190 198 114
f 216 212 1036
f 1036 217 216
f 213 217 218
f 218 226 213
f 213 216 217
f 212 216 213
f 213 214 212
f 215 214 213
f 213 226 215
f 1034 186 219
f 219 186 220
f 219 1135 1034
f 219 1134 1135
f 220 1101 219
f 1101 1134 219
f 1030 1031 1028
f 1089 1088 1215
f 1046 1089 1090
f 1088 1089 1046
f 1216 1215 1087
f 1215 1088 1087
f 1087 1086 1216
f 1050 1086 1049
f 1049 1056 1050
f 1149 795 1148
f 1149 796 795
f 802 803 801
f 1192 1153 1191
f 1192 1227 1193
f 1254 1223 1253
f 1253 1280 1254
f 1254 1280 1281
f 1281 1282 1254
f 1282 1255 1254
f 1224 1223 1254
f 1254 1255 1224
f 1169 1206 1207
f 804 792 799
f 792 796 799
f 799 803 804
f 799 796 797
f 799 801 803
f 1222 1221 1253
f 1253 1223 1222
f 677 708 678
f 711 679 710
f 676 641 640
f 676 708 677
f 537 538 535
f 535 641 537
f 886 924 931
f 931 933 930
f 925 933 931
f 931 924 925
f 930 885 931
f 931 885 886
f 835 887 923
f 887 924 923
f 923 924 886
f 923 809 835
f 923 886 809
f 1273 1241 1272
f 1300 1273 1272
f 1272 1299 1300
f 1298 1299 1272
f 1272 1271 1298
f 1240 1271 1272
f 1272 1241 1240
f 944 947 946
f 944 945 947
f 946 902 944
f 944 902 904
f 900 902 946
f 946 1299 900
f 900 1299 1323
f 1323 899 900
f 901 899 910
f 903 902 901
f 901 900 899
f 902 900 901
f 910 911 901
f 911 903 901
f 1126 1111 1124
f 1310 1286 1309
f 1311 1286 1310
f 1314 1123 1315
f 1313 1123 1314
f 1120 1316 1122
f 1100 1093 1122
f 1093 1120 1122
f 1122 1121 1100
f 1122 1316 1121
f 1234 1235 1200
f 1265 1235 1234
f 1200 1233 1234
f 1234 1233 1265
f 1270 1238 1269
f 1296 1297 1269
f 1297 1270 1269
f 1239 1238 1270
f 1239 1270 1240
f 1236 1235 1267
f 1236 1202 1235
f 1201 1202 1163
f 1163 1162 1201
f 770 769 1163
f 1163 769 1162
f 326 345 346
f 894 345 326
f 326 893 894
f 265 12 268
f 266 12 265
f 265 268 321
f 321 266 265
f 307 309 306
f 865 863 864
f 865 820 814
f 813 863 865
f 865 814 813
f 259 816 817
f 817 876 818
f 817 818 254
f 254 261 817
f 817 877 876
f 817 816 877
f 382 369 370
f 342 371 370
f 370 343 342
f 370 369 343
f 376 323 368
f 368 378 376
f 376 378 377
f 377 10 376
f 376 10 375
f 321 268 322
f 322 10 321
f 375 10 322
f 323 376 322
f 322 376 375
f 268 312 322
f 322 312 271
f 322 271 270
f 270 323 322
f 373 372 340
f 257 815 337
f 337 256 257
f 366 352 367
f 366 367 379
f 371 386 384
f 384 370 371
f 382 370 384
f 818 876 831
f 876 874 831
f 828 823 827
f 905 904 903
f 895 829 824
f 428 429 393
f 393 430 428
f 393 429 391
f 392 475 393
f 475 430 393
f 391 390 393
f 393 390 392
f 380 369 382
f 382 383 380
f 368 369 380
f 380 378 368
f 358 363 360
f 359 356 358
f 358 356 364
f 364 363 358
f 919 918 917
f 917 916 915
f 918 916 917
f 347 326 346
f 359 326 347
f 479 348 347
f 346 478 347
f 478 479 347
f 357 356 359
f 348 355 357
f 359 347 357
f 357 347 348
f 355 352 354
f 356 357 354
f 354 357 355
f 352 366 354
f 3 51 762
f 3 2 144
f 172 173 4
f 4 171 172
f 172 171 105
f 171 4 105
f 87 78 762
f 87 86 78
f 87 762 88
f 88 86 87
f 83 23 82
f 84 23 83
f 83 25 84
f 82 24 83
f 24 25 83
f 91 23 84
f 94 23 91
f 175 173 174
f 162 176 174
f 174 172 162
f 174 173 172
f 177 176 179
f 177 179 159
f 175 174 177
f 177 174 176
f 179 176 178
f 180 181 178
f 178 181 179
f 178 164 180
f 163 164 178
f 178 176 163
f 130 156 132
f 156 185 132
f 132 185 131
f 132 959 130
f 132 958 959
f 132 131 958
f 157 156 154
f 126 138 139
f 139 140 126
f 149 141 142
f 146 145 161
f 161 145 2
f 2 4 161
f 161 4 175
f 955 994 957
f 957 135 955
f 992 994 993
f 993 991 992
f 991 990 992
f 992 990 958
f 958 957 992
f 992 957 994
f 135 957 133
f 133 958 134
f 133 957 958
f 646 645 681
f 547 645 646
f 712 681 711
f 711 1013 712
f 712 1013 681
f 1010 1013 1012
f 1012 1013 711
f 681 1013 1003
f 1001 682 1003
f 1003 682 681
f 1003 1011 1001
f 1003 1013 1011
f 563 564 566
f 563 103 139
f 139 124 563
f 124 564 563
f 759 564 562
f 759 760 736
f 982 760 759
f 562 987 759
f 759 987 982
f 562 124 961
f 961 987 562
f 124 138 961
f 138 126 961
f 960 987 961
f 961 126 960
f 705 733 706
f 705 732 733
f 754 573 755
f 1174 784 783
f 784 782 783
f 781 782 780
f 485 488 486
f 486 484 485
f 488 484 486
f 485 484 483
f 483 614 485
f 765 484 784
f 1175 784 1174
f 1176 765 1175
f 1175 765 784
f 1246 1213 1212
f 1212 1211 1246
f 1212 1175 1174
f 1213 1175 1212
f 1214 1213 1177
f 1177 612 1214
f 1176 1175 1214
f 1214 1175 1213
f 59 34 60
f 60 34 61
f 60 32 59
f 60 61 32
f 606 607 605
f 607 601 605
f 605 741 603
f 605 601 742
f 742 741 605
f 605 604 606
f 603 604 605
f 296 295 38
f 38 609 296
f 296 609 297
f 297 247 296
f 250 56 249
f 306 250 249
f 249 36 294
f 56 36 249
f 39 37 38
f 39 36 37
f 294 36 39
f 38 295 39
f 39 295 294
f 306 249 304
f 304 249 294
f 304 307 306
f 498 497 500
f 496 497 498
f 500 494 498
f 494 496 498
f 620 497 495
f 495 497 496
f 493 619 495
f 495 619 620
f 495 494 493
f 495 496 494
f 657 656 688
f 622 656 657
f 688 658 657
f 658 622 657
f 687 656 686
f 688 656 687
f 687 715 688
f 714 715 687
f 655 656 620
f 686 656 655
f 620 654 655
f 685 686 655
f 655 654 685
f 686 842 713
f 842 843 713
f 713 843 714
f 714 687 713
f 713 687 686
f 581 583 584
f 582 581 584
f 82 582 584
f 584 24 82
f 586 24 584
f 584 585 586
f 584 583 585
f 727 726 750
f 750 751 727
f 728 701 727
f 727 752 728
f 727 751 752
f 525 636 527
f 527 636 529
f 526 525 527
f 529 530 527
f 85 84 80
f 84 81 80
f 79 85 80
f 80 45 79
f 47 45 80
f 80 81 47
f 26 48 27
f 27 48 47
f 27 25 26
f 47 25 27
f 596 594 593
f 593 595 596
f 590 746 593
f 745 595 593
f 593 746 745
f 592 590 593
f 593 594 592
f 694 721 722
f 721 746 722
f 722 746 723
f 723 696 722
f 522 518 520
f 522 524 526
f 516 518 522
f 526 514 522
f 522 514 516
f 521 523 522
f 523 524 522
f 522 519 521
f 520 519 522
f 203 1037 205
f 1037 199 205
f 114 198 111
f 198 107 111
f 1076 1075 1042
f 1076 1041 1078
f 1076 1042 1041
f 1069 1070 1068
f 1068 1067 1069
f 1071 1070 1069
f 1069 1067 1081
f 1069 1083 1071
f 1069 1081 1083
f 1081 1067 1079
f 1078 1080 1079
f 1080 1081 1079
f 1079 1067 1065
f 1063 1064 1056
f 1075 1076 1063
f 1015 948 949
f 948 1005 949
f 949 1006 1015
f 1005 1025 949
f 976 985 978
f 978 986 980
f 985 986 978
f 1017 1014 1015
f 980 981 979
f 979 978 980
f 683 1002 1000
f 683 649 648
f 682 1002 683
f 1000 999 998
f 952 998 997
f 1000 998 952
f 1065 1067 1066
f 1066 1067 1068
f 1066 1068 1058
f 1058 1053 1066
f 1052 1053 1276
f 1276 1249 1052
f 1274 1275 1243
f 1275 1244 1243
f 1207 1241 1208
f 1208 1243 1209
f 1208 1169 1207
f 1208 1209 1171
f 1202 1165 1164
f 1164 1163 1202
f 1164 772 771
f 1165 772 1164
f 1164 771 770
f 770 1163 1164
f 1291 1265 1264
f 1265 1233 1264
f 767 766 1159
f 1158 1197 1159
f 1159 766 804
f 804 1158 1159
f 1198 1232 1199
f 1198 1197 1232
f 774 772 773
f 1167 775 773
f 773 1166 1167
f 773 772 1165
f 1165 1166 773
f 1157 1194 1195
f 1157 1158 803
f 1157 1195 1196
f 1196 1158 1157
f 1153 799 1152
f 1191 1153 1152
f 1152 1190 1191
f 1256 1283 1284
f 1255 1283 1256
f 1258 1284 1285
f 1285 1286 1258
f 441 437 438
f 441 442 437
f 438 439 441
f 441 439 440
f 441 443 444
f 441 440 443
f 444 445 441
f 445 442 441
f 412 433 410
f 411 412 410
f 410 409 411
f 410 433 437
f 437 436 410
f 435 409 410
f 410 436 435
f 407 1106 435
f 1107 1106 407
f 407 406 1107
f 437 442 408
f 408 436 437
f 435 436 408
f 408 407 435
f 408 442 445
f 445 405 408
f 408 405 406
f 406 407 408
f 421 420 419
f 421 423 420
f 419 455 421
f 455 423 421
f 210 193 194
f 194 211 210
f 246 192 5
f 5 211 246
f 246 211 192
f 245 211 5
f 245 237 236
f 5 237 245
f 113 114 112
f 112 116 113
f 207 208 241
f 241 240 207
f 207 240 206
f 204 199 200
f 204 205 199
f 203 205 204
f 204 202 203
f 218 202 239
f 239 226 218
f 239 240 226
f 202 204 239
f 206 240 239
f 239 204 206
f 226 240 228
f 230 227 228
f 228 241 230
f 228 240 241
f 228 227 225
f 225 226 228
f 1141 1140 1179
f 1180 1142 1179
f 1142 1141 1179
f 558 554 556
f 556 555 558
f 557 1140 558
f 558 555 557
f 649 555 553
f 551 649 553
f 553 556 554
f 555 556 553
f 552 551 553
f 553 554 552
f 1137 1089 1215
f 1137 1181 1180
f 1215 1181 1137
f 1090 1089 1137
f 1029 1030 1028
f 1028 1024 1029
f 1090 1030 1029
f 1029 1046 1090
f 1027 1024 1004
f 1027 949 1025
f 1088 1046 1047
f 1187 1148 1186
f 1187 1149 1148
f 1187 1220 1221
f 1186 1220 1187
f 1194 1157 1156
f 1156 803 802
f 1156 1157 803
f 1153 1192 1154
f 1154 799 1153
f 1284 1258 1257
f 1257 1258 1227
f 1257 1256 1284
f 1206 1169 1168
f 1168 776 1167
f 1190 1152 1189
f 1189 1223 1224
f 1224 1190 1189
f 736 973 1022
f 1022 975 1020
f 973 975 1022
f 679 678 709
f 709 710 679
f 736 710 709
f 709 708 736
f 709 678 708
f 680 679 711
f 680 645 679
f 711 681 680
f 681 645 680
f 545 547 546
f 545 645 547
f 706 733 734
f 706 676 675
f 675 676 640
f 943 945 942
f 945 944 942
f 942 944 904
f 942 940 943
f 1261 1262 1231
f 1261 1260 1287
f 1263 1232 1231
f 1231 1262 1263
f 1263 1233 1232
f 1263 1264 1233
f 1291 1264 1263
f 1309 1129 1127
f 1127 1310 1309
f 1127 1129 1109
f 1109 1110 1127
f 1127 1126 1311
f 1311 1310 1127
f 1127 1110 1111
f 1111 1126 1127
f 1296 1269 1268
f 1268 1269 1238
f 1167 1166 1204
f 1204 1165 1203
f 1204 1166 1165
f 279 280 281
f 282 280 279
f 310 12 309
f 309 319 310
f 318 319 309
f 309 307 318
f 318 307 317
f 317 287 318
f 290 291 289
f 290 299 291
f 263 816 258
f 263 262 816
f 289 820 821
f 864 816 821
f 816 262 821
f 821 865 864
f 820 865 821
f 259 817 260
f 260 817 261
f 388 386 372
f 372 373 388
f 340 256 339
f 256 337 339
f 339 373 340
f 336 373 339
f 339 337 336
f 385 383 382
f 382 384 385
f 364 383 385
f 385 363 364
f 919 917 891
f 826 831 874
f 826 872 828
f 826 874 872
f 828 827 826
f 907 905 913
f 904 905 906
f 940 942 906
f 906 942 904
f 906 905 907
f 888 824 883
f 888 895 824
f 883 938 888
f 829 895 830
f 830 895 827
f 823 829 830
f 830 827 823
f 897 827 896
f 827 895 896
f 896 913 897
f 896 895 907
f 907 913 896
f 381 380 383
f 381 366 379
f 379 378 381
f 378 380 381
f 360 329 361
f 361 358 360
f 359 358 361
f 361 326 359
f 360 327 328
f 328 329 360
f 327 893 328
f 893 329 328
f 890 889 921
f 890 921 919
f 919 891 890
f 336 337 338
f 338 889 336
f 338 337 815
f 815 889 338
f 921 889 898
f 365 354 366
f 365 383 364
f 364 356 365
f 356 354 365
f 365 381 383
f 366 381 365
f 168 173 175
f 175 4 168
f 168 4 173
f 121 122 123
f 123 105 121
f 123 122 118
f 118 119 123
f 172 105 123
f 162 172 123
f 123 119 162
f 169 121 170
f 121 105 170
f 2 3 170
f 170 4 2
f 170 105 4
f 170 762 169
f 170 3 762
f 90 84 85
f 90 91 84
f 90 86 89
f 85 86 90
f 90 89 92
f 92 93 90
f 90 93 94
f 94 91 90
f 152 158 157
f 157 154 152
f 152 154 155
f 127 156 130
f 127 154 156
f 127 959 960
f 130 959 127
f 155 154 129
f 146 149 147
f 147 145 146
f 144 2 147
f 2 145 147
f 147 102 101
f 143 102 147
f 101 51 147
f 142 143 147
f 147 149 142
f 147 3 144
f 51 3 147
f 146 161 160
f 160 177 159
f 175 177 160
f 160 161 175
f 1043 964 968
f 968 971 1043
f 964 967 968
f 967 971 968
f 1043 971 969
f 1045 1043 969
f 969 971 967
f 969 1039 1045
f 969 967 970
f 954 1039 969
f 970 955 969
f 969 955 954
f 166 182 165
f 165 112 166
f 135 133 184
f 184 167 135
f 184 185 182
f 182 166 184
f 184 166 167
f 134 185 184
f 184 133 134
f 110 166 112
f 167 166 110
f 112 114 110
f 167 110 106
f 106 111 107
f 114 111 106
f 106 110 114
f 956 955 137
f 681 682 647
f 647 646 681
f 647 549 547
f 547 646 647
f 647 683 648
f 682 683 647
f 648 551 647
f 551 549 647
f 1008 1011 1010
f 1010 1017 1008
f 1015 1006 1008
f 1008 1017 1015
f 1001 1011 1009
f 1009 999 1001
f 1011 1008 1009
f 1009 1008 1006
f 1010 1012 1019
f 1019 1017 1010
f 982 989 983
f 991 984 983
f 983 989 991
f 733 732 756
f 756 757 733
f 732 755 756
f 755 568 756
f 566 757 756
f 756 568 566
f 566 567 565
f 565 563 566
f 565 567 103
f 103 563 565
f 731 755 732
f 731 705 704
f 732 705 731
f 731 704 703
f 703 730 731
f 731 730 754
f 754 755 731
f 569 567 566
f 566 568 569
f 569 14 567
f 16 14 569
f 569 17 16
f 571 17 569
f 569 568 571
f 571 568 570
f 570 568 755
f 570 755 573
f 570 572 571
f 570 573 572
f 1173 1212 1174
f 1211 1212 1173
f 1174 783 1173
f 1173 783 782
f 1244 1211 1210
f 1211 1173 1210
f 1171 1209 1210
f 1210 1243 1244
f 1209 1243 1210
f 482 483 484
f 482 765 1176
f 614 483 482
f 1176 1214 482
f 612 614 613
f 613 1214 612
f 614 482 613
f 613 482 1214
f 295 296 300
f 300 301 303
f 307 304 305
f 317 307 305
f 699 726 700
f 726 727 700
f 700 668 699
f 669 668 700
f 700 727 701
f 700 670 669
f 701 670 700
f 528 530 526
f 526 527 528
f 528 527 530
f 66 68 69
f 69 32 66
f 73 67 74
f 68 67 73
f 44 72 73
f 73 69 68
f 72 69 73
f 73 74 42
f 42 44 73
f 46 72 44
f 48 72 46
f 46 44 47
f 47 48 46
f 70 591 592
f 76 591 70
f 592 594 70
f 594 28 70
f 70 48 76
f 695 664 694
f 694 722 695
f 695 696 664
f 695 722 696
f 1062 1063 1056
f 1056 1049 1062
f 1061 1075 1062
f 1075 1063 1062
f 1077 1063 1076
f 1077 1079 1065
f 1065 1064 1077
f 1064 1063 1077
f 1077 1076 1078
f 1078 1079 1077
f 1026 1025 1005
f 1042 1075 1026
f 1026 1075 1061
f 1061 1025 1026
f 1026 1005 948
f 963 1042 1026
f 1026 948 963
f 1006 949 950
f 950 1027 1004
f 949 1027 950
f 1014 1017 1016
f 1018 979 1016
f 1016 1019 1018
f 1017 1019 1016
f 1016 981 1014
f 1016 979 981
f 977 979 1018
f 977 975 976
f 976 978 977
f 978 979 977
f 977 1018 1020
f 1020 975 977
f 561 683 1000
f 649 683 561
f 1000 952 561
f 1051 1249 1248
f 1051 1052 1249
f 1248 1050 1051
f 1050 1056 1051
f 1056 1064 1051
f 1242 1241 1273
f 1242 1208 1241
f 1243 1208 1242
f 1242 1273 1274
f 1274 1243 1242
f 1171 778 1170
f 1170 1208 1171
f 778 1169 1170
f 1169 1208 1170
f 1160 1159 1197
f 1197 1198 1160
f 767 1159 1160
f 1160 1161 767
f 1199 1161 1160
f 1160 1198 1199
f 777 778 774
f 774 773 777
f 777 1169 778
f 775 776 777
f 777 773 775
f 776 1168 777
f 777 1168 1169
f 798 799 797
f 797 1152 798
f 798 1152 799
f 1259 1258 1286
f 1259 1286 1260
f 1228 1227 1259
f 1227 1258 1259
f 1259 1229 1228
f 1259 1260 1229
f 195 193 209
f 193 210 209
f 209 208 195
f 209 210 243
f 243 242 209
f 209 242 208
f 244 245 236
f 236 234 244
f 244 234 243
f 243 210 244
f 244 210 211
f 211 245 244
f 197 190 114
f 114 113 197
f 116 196 197
f 197 113 116
f 188 204 200
f 206 204 188
f 188 200 189
f 189 190 188
f 190 197 188
f 188 207 206
f 188 197 196
f 188 196 208
f 208 207 188
f 1031 1030 1136
f 1136 1030 1090
f 1090 1137 1136
f 1180 1179 1136
f 1136 1137 1180
f 1046 1029 1054
f 1054 1047 1046
f 1054 1029 1024
f 1024 1027 1054
f 1088 1047 1048
f 1048 1049 1086
f 1086 1087 1048
f 1048 1087 1088
f 801 799 800
f 799 1154 800
f 1155 1192 1193
f 1155 1154 1192
f 801 800 1155
f 1155 800 1154
f 1193 1194 1155
f 1194 1156 1155
f 802 801 1155
f 1155 1156 802
f 1227 1192 1226
f 1226 1257 1227
f 1151 1152 797
f 1151 1189 1152
f 797 796 1151
f 1221 1222 1188
f 1188 1187 1221
f 1188 1222 1223
f 1223 1189 1188
f 1149 1187 1188
f 1189 1151 1188
f 737 710 736
f 736 1022 737
f 546 540 544
f 708 676 707
f 707 734 708
f 707 676 706
f 706 734 707
f 708 734 735
f 735 734 759
f 736 708 735
f 735 759 736
f 564 759 758
f 759 734 758
f 566 564 758
f 758 757 566
f 733 757 758
f 758 734 733
f 674 639 673
f 640 639 674
f 674 675 640
f 674 705 706
f 706 675 674
f 673 704 674
f 704 705 674
f 1230 1231 1196
f 1230 1261 1231
f 1196 1195 1230
f 1230 1195 1229
f 1229 1260 1230
f 1260 1261 1230
f 1287 1311 1312
f 1312 1126 1124
f 1311 1126 1312
f 1124 1125 1312
f 1312 1125 1313
f 1290 1263 1262
f 1291 1263 1290
f 1315 1291 1290
f 1290 1314 1315
f 1296 1268 1295
f 1319 1320 1295
f 1295 1320 1296
f 1295 1318 1319
f 1295 1294 1318
f 1267 1294 1295
f 1295 1268 1267
f 1237 1268 1238
f 1237 1204 1203
f 1238 1204 1237
f 1203 1202 1237
f 1202 1236 1237
f 1237 1236 1267
f 1267 1268 1237
f 1167 1204 1205
f 1238 1239 1205
f 1205 1204 1238
f 1205 1168 1167
f 1206 1168 1205
f 1240 1206 1205
f 1205 1239 1240
f 12 310 11
f 11 310 319
f 268 12 11
f 11 267 268
f 252 260 261
f 252 261 254
f 259 260 252
f 334 388 333
f 333 891 334
f 333 890 891
f 387 384 386
f 387 385 384
f 362 363 387
f 363 385 387
f 332 891 892
f 892 891 917
f 330 332 892
f 327 330 892
f 892 893 327
f 915 893 892
f 892 917 915
f 833 826 827
f 833 827 897
f 912 913 905
f 912 903 911
f 912 905 903
f 907 895 908
f 895 888 908
f 908 906 907
f 908 888 938
f 908 938 940
f 940 906 908
f 326 361 325
f 325 361 329
f 893 326 325
f 325 329 893
f 890 333 335
f 336 889 335
f 889 890 335
f 335 373 336
f 335 388 373
f 335 333 388
f 832 898 889
f 897 898 832
f 818 831 832
f 832 889 815
f 831 826 832
f 832 815 818
f 159 158 150
f 158 152 150
f 125 126 155
f 155 129 125
f 960 126 125
f 125 129 960
f 154 127 128
f 128 129 154
f 128 127 960
f 960 129 128
f 167 106 136
f 135 167 136
f 136 137 955
f 955 135 136
f 1007 998 999
f 999 1009 1007
f 1007 1009 1006
f 1006 950 1007
f 1021 1019 1012
f 1021 1012 711
f 1020 1018 1021
f 1018 1019 1021
f 711 710 1021
f 982 983 972
f 972 760 982
f 972 973 760
f 1172 1210 1173
f 782 781 1172
f 1172 1173 782
f 1171 1210 1172
f 780 1171 1172
f 1172 781 780
f 484 765 481
f 481 482 484
f 765 482 481
f 298 296 247
f 298 300 296
f 247 248 298
f 298 248 291
f 291 299 298
f 299 301 298
f 301 300 298
f 294 295 302
f 295 300 302
f 302 304 294
f 302 300 303
f 303 305 302
f 302 305 304
f 29 32 30
f 32 69 30
f 30 69 72
f 30 28 29
f 560 561 952
f 649 561 560
f 1053 1052 1057
f 1052 1051 1057
f 1057 1066 1053
f 1057 1051 1064
f 1057 1064 1065
f 1065 1066 1057
f 1060 1054 1027
f 1060 1025 1061
f 1060 1027 1025
f 1047 1054 1060
f 1256 1257 1225
f 1257 1226 1225
f 1191 1224 1225
f 1225 1192 1191
f 1225 1226 1192
f 1224 1255 1225
f 1255 1256 1225
f 796 1149 1150
f 1149 1188 1150
f 1150 1151 796
f 1150 1188 1151
f 539 540 538
f 538 537 539
f 542 544 540
f 643 678 679
f 677 678 643
f 679 645 644
f 644 643 679
f 1262 1261 1289
f 1289 1312 1313
f 1289 1290 1262
f 1313 1314 1289
f 1314 1290 1289
f 286 287 317
f 264 263 258
f 258 259 264
f 262 263 264
f 303 301 315
f 287 272 288
f 288 318 287
f 319 318 288
f 288 11 319
f 320 11 288
f 277 343 275
f 275 343 344
f 269 11 320
f 320 288 269
f 269 288 272
f 269 272 270
f 293 821 262
f 299 290 293
f 259 252 251
f 251 264 259
f 386 388 389
f 389 387 386
f 389 388 334
f 389 332 362
f 362 387 389
f 911 918 920
f 920 912 911
f 920 918 919
f 919 921 920
f 834 833 897
f 897 832 834
f 826 833 834
f 834 832 826
f 159 150 148
f 148 160 159
f 146 160 148
f 148 149 146
f 153 152 155
f 153 150 152
f 153 126 140
f 155 126 153
f 108 136 106
f 137 136 108
f 108 106 107
f 108 107 109
f 109 956 108
f 956 137 108
f 997 998 951
f 998 1007 951
f 1004 1024 951
f 951 950 1004
f 951 1007 950
f 1028 997 951
f 951 1024 1028
f 710 737 1023
f 1023 1021 710
f 1020 1021 1023
f 1023 1022 1020
f 1023 737 1022
f 974 972 983
f 976 975 974
f 974 975 973
f 973 972 974
f 974 984 976
f 974 983 984
f 71 30 72
f 71 72 48
f 48 70 71
f 71 70 28
f 28 30 71
f 996 997 1028
f 1028 1031 996
f 996 952 997
f 996 560 952
f 1031 1136 1138
f 650 555 649
f 649 560 650
f 1047 1060 1055
f 1049 1048 1055
f 1055 1048 1047
f 1055 1062 1049
f 1061 1062 1055
f 1055 1060 1061
f 677 643 642
f 642 643 539
f 642 676 677
f 641 676 642
f 642 537 641
f 642 539 537
f 543 545 546
f 546 544 543
f 645 545 543
f 543 644 645
f 544 542 543
f 643 644 543
f 1288 1289 1261
f 1312 1289 1288
f 1288 1261 1287
f 1287 1312 1288
f 285 251 279
f 284 251 285
f 285 315 284
f 274 272 287
f 287 286 274
f 274 281 277
f 277 275 274
f 274 275 272
f 284 315 314
f 314 301 299
f 314 315 301
f 270 272 273
f 272 275 273
f 273 344 270
f 273 275 344
f 267 11 311
f 11 269 311
f 268 267 311
f 311 312 268
f 271 312 311
f 270 271 311
f 311 269 270
f 292 290 289
f 292 293 290
f 289 821 292
f 821 293 292
f 279 251 278
f 282 279 278
f 283 251 284
f 264 251 283
f 284 314 283
f 331 389 334
f 334 891 331
f 332 389 331
f 331 891 332
f 922 920 921
f 897 913 922
f 913 912 922
f 912 920 922
f 922 898 897
f 921 898 922
f 150 153 151
f 149 148 151
f 151 148 150
f 141 149 151
f 151 140 141
f 151 153 140
f 559 996 1031
f 1031 1138 559
f 560 996 559
f 1139 1136 1179
f 1139 1138 1136
f 1139 1179 1140
f 541 543 542
f 643 543 541
f 539 643 541
f 540 539 541
f 541 542 540
f 315 285 316
f 317 305 316
f 316 286 317
f 316 285 286
f 316 305 303
f 303 315 316
f 276 274 286
f 276 285 279
f 286 285 276
f 276 279 281
f 281 274 276
f 262 264 313
f 313 293 262
f 264 283 313
f 313 283 314
f 299 293 313
f 313 314 299
f 253 251 252
f 253 278 251
f 282 278 253
f 256 282 253
f 254 256 253
f 253 252 254
f 651 650 560
f 560 559 651
f 651 559 1138
f 1138 1139 651
f 651 557 555
f 555 650 651
f 1140 557 651
f 651 1139 1140

