# https://github.com/mikedh/trimesh
v 0.03920844 0.02939783 0.01935824
v 0.03926514 0.02939152 0.01931414
v 0.03933442 0.02947342 0.01962280
v 0.03937852 0.02947341 0.01959130
v 0.03939112 0.02947342 0.01958501
v 0.03932183 0.02938522 0.01928264
v 0.03944151 0.02946712 0.01954721
v 0.03937852 0.02937263 0.01924484
v 0.03958009 0.02943562 0.01945272
v 0.03927143 0.02928444 0.01906218
v 0.03915805 0.02930963 0.01913776
v 0.03903836 0.02931593 0.01921965
v 0.03914545 0.02939152 0.01939602
v 0.03908876 0.02938522 0.01944012
v 0.03892498 0.02929703 0.01930783
v 0.03903207 0.02937893 0.01949052
v 0.03855963 0.02904507 0.01971098
v 0.03862892 0.02913326 0.01961019
v 0.03873600 0.02920255 0.01977397
v 0.03882419 0.02928444 0.01967950
v 0.03871711 0.02920885 0.01950940
v 0.03881789 0.02926554 0.01940862
v 0.03892498 0.02934113 0.01958501
v 0.03897537 0.02936003 0.01953461
v 0.03910765 0.02942302 0.01978658
v 0.03920214 0.02946082 0.01971729
v 0.03941631 0.02947972 0.01962280
v 0.03962419 0.02942303 0.01942123
v 0.03969348 0.02939782 0.01939603
v 0.03963679 0.02933483 0.01923855
v 0.03954230 0.02937893 0.01929525
v 0.03948561 0.02933484 0.01918186
v 0.03938482 0.02924665 0.01900548
v 0.03908246 0.02910806 0.01876611
v 0.03919585 0.02907026 0.01870311
v 0.03883680 0.02870491 0.01819919
v 0.03872341 0.02874901 0.01825587
v 0.03802421 0.02810019 0.01747477
v 0.03860372 0.02878051 0.01832517
v 0.03896278 0.02913956 0.01883541
v 0.03884309 0.02914586 0.01891729
v 0.03872971 0.02913956 0.01901178
v 0.03861632 0.02910806 0.01911886
v 0.03851553 0.02905137 0.01922595
v 0.03843365 0.02898208 0.01933934
v 0.03836435 0.02889389 0.01944642
v 0.03831396 0.02879310 0.01954721
v 0.03850293 0.02893798 0.01980547
v 0.03866671 0.02911436 0.01986846
v 0.03873600 0.02910806 0.02007003
v 0.03886198 0.02926554 0.01996925
v 0.03886829 0.02927184 0.01996295
v 0.03895018 0.02933483 0.01989996
v 0.03901947 0.02938523 0.01984957
v 0.03922734 0.02946712 0.01975508
v 0.03944781 0.02948601 0.01966059
v 0.03963678 0.02944822 0.01952831
v 0.03971237 0.02941673 0.01948421
v 0.03980056 0.02938523 0.01947162
v 0.03978797 0.02936003 0.01937713
v 0.03971867 0.02938523 0.01938343
v 0.03958639 0.02929074 0.01913146
v 0.03948561 0.02919625 0.01895509
v 0.03929663 0.02901358 0.01865903
v 0.03894388 0.02864822 0.01815509
v 0.03905727 0.02861042 0.01815509
v 0.03903837 0.02858523 0.01812359
v 0.03857854 0.02810019 0.01754407
v 0.03842106 0.02810019 0.01750627
v 0.03823838 0.02810020 0.01746848
v 0.03808720 0.02810019 0.01746848
v 0.03792972 0.02810019 0.01749998
v 0.03786043 0.02810019 0.01751887
v 0.03847774 0.02879940 0.01841335
v 0.03835806 0.02879310 0.01851414
v 0.03825098 0.02876791 0.01862122
v 0.03815018 0.02871751 0.01874091
v 0.03806829 0.02865452 0.01886060
v 0.03799900 0.02856633 0.01898028
v 0.03795491 0.02846555 0.01908736
v 0.03793602 0.02835845 0.01919445
v 0.03828247 0.02868602 0.01963539
v 0.03847144 0.02883090 0.01988736
v 0.03857222 0.02889389 0.02002595
v 0.03861002 0.02900727 0.01995035
v 0.03888718 0.02927184 0.02000074
v 0.03904466 0.02939153 0.01988736
v 0.03907616 0.02939783 0.01992516
v 0.03910135 0.02939152 0.01996295
v 0.03928403 0.02946711 0.01983697
v 0.03947930 0.02947971 0.01970469
v 0.03966198 0.02944192 0.01956610
v 0.03968718 0.02943562 0.01960390
v 0.03973127 0.02942302 0.01958501
v 0.03980056 0.02939782 0.01957241
v 0.04091551 0.02893169 0.01958501
v 0.04045568 0.02912696 0.01947792
v 0.04043678 0.02908917 0.01937713
v 0.04019741 0.02919626 0.01937713
v 0.03975647 0.02931594 0.01926375
v 0.03954230 0.02910176 0.01885430
v 0.03939112 0.02895059 0.01863383
v 0.03987616 0.02810020 0.01803541
v 0.03777854 0.02810020 0.01756296
v 0.03774074 0.02810019 0.01758816
v 0.03764626 0.02810019 0.01767005
v 0.03757067 0.02810019 0.01778973
v 0.03751398 0.02810019 0.01794721
v 0.03749507 0.02810019 0.01818028
v 0.03752657 0.02810019 0.01841964
v 0.03754547 0.02810019 0.01852674
v 0.03758956 0.02810019 0.01864642
v 0.03767775 0.02810019 0.01887948
v 0.03774074 0.02810019 0.01903697
v 0.03793602 0.02813799 0.01935823
v 0.03845254 0.02871751 0.01995665
v 0.03864782 0.02891909 0.02015823
v 0.03877380 0.02910806 0.02013303
v 0.03891238 0.02927184 0.02003854
v 0.03893758 0.02927184 0.02007004
v 0.03910135 0.02937263 0.02001965
v 0.03929033 0.02945452 0.01988736
v 0.03949190 0.02947342 0.01974878
v 0.03950450 0.02947342 0.01974248
v 0.03960529 0.02945452 0.01966690
v 0.04014701 0.02926554 0.02022752
v 0.04073284 0.02901358 0.02112201
v 0.04090921 0.02893169 0.02139917
v 0.04111080 0.02882460 0.01947792
v 0.04110449 0.02880572 0.01942752
v 0.04109189 0.02878052 0.01937084
v 0.04126827 0.02869233 0.01937084
v 0.04095331 0.02871122 0.01915037
v 0.04066356 0.02842146 0.01867162
v 0.04038009 0.02810020 0.01826848
v 0.03811869 0.02810019 0.01962909
v 0.03827617 0.02845925 0.01978658
v 0.03859742 0.02867342 0.02023381
v 0.03861632 0.02869861 0.02025272
v 0.03867301 0.02891279 0.02020232
v 0.03879269 0.02910806 0.02015823
v 0.03892498 0.02923404 0.02012673
v 0.03992024 0.02890649 0.02155665
v 0.04002732 0.02897579 0.02151255
v 0.04024780 0.02905768 0.02141177
v 0.04036118 0.02907657 0.02134878
v 0.04092810 0.02883090 0.02228735
v 0.04046197 0.02907657 0.02129208
v 0.04056276 0.02906397 0.02123539
v 0.04065725 0.02904508 0.02117239
v 0.04109819 0.02883721 0.02175193
v 0.04174701 0.02847185 0.01948422
v 0.04232653 0.02810020 0.01947792
v 0.04227614 0.02810020 0.01939603
v 0.04225095 0.02810021 0.01937084
v 0.04185410 0.02810021 0.01904328
v 0.04123678 0.02810020 0.01868423
v 0.04107300 0.02810020 0.01858974
v 0.03861632 0.02859783 0.02027791
v 0.03867301 0.02883720 0.02025902
v 0.03878009 0.02905137 0.02020861
v 0.03983205 0.02882460 0.02160704
v 0.03986985 0.02883720 0.02163224
v 0.04022890 0.02888130 0.02185271
v 0.04036118 0.02889390 0.02193460
v 0.04043677 0.02888759 0.02197869
v 0.04065094 0.02886240 0.02211728
v 0.04087141 0.02883720 0.02225586
v 0.04145094 0.02864823 0.02262121
v 0.04146984 0.02864193 0.02262751
v 0.04161471 0.02856634 0.02272200
v 0.04191079 0.02838997 0.01960391
v 0.04234543 0.02810021 0.01954091
v 0.04235803 0.02810021 0.01961020
v 0.03922734 0.02810020 0.02122908
v 0.03922734 0.02820728 0.02122909
v 0.03923993 0.02830807 0.02123539
v 0.03927143 0.02841515 0.02125429
v 0.03931552 0.02849705 0.02127948
v 0.03940371 0.02860413 0.02133616
v 0.03956749 0.02872381 0.02144326
v 0.04235802 0.02810021 0.02318184
f 114 182 175
f 111 108 114
f 153 182 114
f 153 174 182
f 114 175 136
f 108 111 109
f 142 141 163
f 96 126 127
f 182 174 172
f 129 96 172
f 127 126 150
f 126 149 150
f 169 149 147
f 170 150 169
f 169 150 149
f 147 168 169
f 168 163 169
f 169 175 182
f 169 163 181
f 181 175 169
f 147 149 148
f 73 104 74
f 37 34 35
f 158 156 154
f 154 153 158
f 114 82 81
f 114 136 115
f 118 141 142
f 119 118 142
f 108 109 78
f 162 141 181
f 181 163 162
f 162 163 141
f 165 122 121
f 145 168 147
f 122 165 145
f 151 150 170
f 174 153 173
f 173 172 174
f 182 172 171
f 171 169 182
f 170 169 171
f 171 172 96
f 171 151 170
f 96 151 171
f 39 73 74
f 39 34 37
f 97 96 129
f 126 96 97
f 10 35 34
f 38 71 70
f 37 71 38
f 38 39 37
f 158 153 69
f 69 153 114
f 69 38 70
f 101 134 102
f 157 156 158
f 158 134 157
f 157 134 156
f 103 68 67
f 67 134 103
f 156 134 133
f 133 134 101
f 37 35 36
f 70 71 36
f 36 71 37
f 153 154 152
f 129 172 152
f 152 173 153
f 172 173 152
f 114 81 113
f 176 175 181
f 181 178 176
f 176 136 175
f 180 178 181
f 116 82 114
f 140 180 181
f 120 119 142
f 82 48 47
f 17 18 46
f 46 47 17
f 17 47 48
f 110 109 111
f 46 18 45
f 44 78 45
f 77 78 44
f 77 76 108
f 108 78 77
f 108 76 107
f 76 75 107
f 106 75 74
f 106 107 75
f 42 75 76
f 74 75 42
f 167 163 168
f 167 165 163
f 168 145 167
f 124 149 126
f 126 125 124
f 124 148 149
f 147 148 146
f 123 90 146
f 148 124 146
f 146 124 123
f 146 90 122
f 146 145 147
f 122 145 146
f 20 53 54
f 52 53 20
f 127 150 128
f 150 151 128
f 128 96 127
f 128 151 96
f 40 39 74
f 34 39 40
f 11 10 40
f 40 10 34
f 99 100 60
f 60 97 99
f 99 97 98
f 98 133 99
f 99 133 100
f 62 133 101
f 100 133 62
f 8 10 11
f 32 10 8
f 33 10 32
f 35 10 33
f 32 62 33
f 126 97 95
f 60 100 61
f 28 8 9
f 9 8 7
f 38 69 72
f 73 39 72
f 39 38 72
f 66 134 67
f 66 102 134
f 135 134 158
f 135 103 134
f 68 103 135
f 158 69 135
f 135 69 68
f 156 133 132
f 132 152 154
f 129 152 132
f 112 113 81
f 112 111 114
f 114 113 112
f 177 176 178
f 177 115 136
f 136 176 177
f 139 178 179
f 178 180 179
f 114 115 137
f 137 116 114
f 82 116 83
f 83 48 82
f 84 85 83
f 83 85 48
f 160 116 139
f 180 140 160
f 139 179 160
f 160 179 180
f 181 141 161
f 161 140 181
f 141 118 161
f 142 163 143
f 143 120 142
f 121 120 143
f 79 47 46
f 79 110 111
f 46 45 79
f 79 45 78
f 79 78 109
f 109 110 79
f 48 85 49
f 49 17 48
f 49 85 50
f 50 51 49
f 74 104 105
f 105 106 74
f 104 73 105
f 108 107 105
f 107 106 105
f 114 108 105
f 105 69 114
f 73 72 105
f 105 72 69
f 43 42 76
f 43 77 44
f 76 77 43
f 166 145 165
f 165 167 166
f 166 167 145
f 56 90 91
f 91 90 123
f 123 124 91
f 91 124 125
f 55 90 56
f 122 90 88
f 90 55 88
f 88 120 121
f 119 120 88
f 19 51 52
f 52 20 19
f 19 20 18
f 19 49 51
f 18 17 19
f 17 49 19
f 11 40 41
f 74 42 41
f 41 40 74
f 32 8 31
f 31 8 28
f 2 7 6
f 7 8 6
f 11 2 6
f 6 8 11
f 63 62 101
f 63 33 62
f 35 33 63
f 28 9 57
f 56 91 57
f 57 91 125
f 57 7 56
f 57 9 7
f 30 31 28
f 100 62 30
f 30 61 100
f 30 62 32
f 32 31 30
f 102 66 64
f 101 102 64
f 64 63 101
f 35 63 64
f 155 154 156
f 156 132 155
f 155 132 154
f 115 177 159
f 117 160 140
f 116 160 117
f 117 118 50
f 50 85 117
f 117 83 116
f 117 161 118
f 140 161 117
f 117 85 84
f 84 83 117
f 163 165 164
f 164 143 163
f 80 79 111
f 47 79 80
f 82 47 80
f 80 81 82
f 111 112 80
f 80 112 81
f 21 43 44
f 18 20 21
f 44 45 21
f 21 45 18
f 3 55 56
f 54 53 87
f 87 88 55
f 87 53 52
f 121 122 89
f 89 88 121
f 122 88 89
f 119 88 86
f 52 51 86
f 86 87 52
f 88 87 86
f 118 119 86
f 50 118 86
f 86 51 50
f 11 41 12
f 12 41 42
f 95 57 94
f 126 95 94
f 28 57 58
f 65 64 66
f 65 66 67
f 65 36 35
f 35 64 65
f 67 68 65
f 68 69 65
f 65 69 70
f 70 36 65
f 129 132 130
f 130 97 129
f 98 97 130
f 131 132 133
f 131 133 98
f 131 130 132
f 98 130 131
f 115 159 138
f 138 137 115
f 138 178 139
f 139 116 138
f 116 137 138
f 138 177 178
f 138 159 177
f 121 143 144
f 143 164 144
f 144 165 121
f 144 164 165
f 42 43 15
f 15 12 42
f 23 20 54
f 27 3 56
f 5 7 2
f 56 7 5
f 5 27 56
f 55 3 26
f 24 23 26
f 92 57 125
f 92 94 57
f 93 125 126
f 126 94 93
f 93 92 125
f 94 92 93
f 28 58 29
f 29 30 28
f 61 30 29
f 60 61 29
f 22 15 43
f 22 23 24
f 43 21 22
f 22 21 20
f 20 23 22
f 12 15 16
f 24 26 16
f 16 22 24
f 15 22 16
f 3 27 4
f 27 5 4
f 25 23 54
f 25 26 23
f 54 87 25
f 25 87 55
f 55 26 25
f 59 29 58
f 60 29 59
f 59 57 95
f 59 58 57
f 59 95 97
f 59 97 60
f 1 2 11
f 11 12 1
f 3 4 1
f 1 5 2
f 1 4 5
f 13 1 12
f 13 26 3
f 3 1 13
f 12 16 14
f 14 13 12
f 14 16 26
f 26 13 14

