# https://github.com/mikedh/trimesh
v -0.02089444 0.02221872 -0.06830053
v -0.02064554 0.02241637 -0.06830053
v -0.02026122 0.02262135 -0.06830052
v -0.02089452 0.02221872 -0.04749925
v -0.02221945 0.02089370 -0.06830053
v -0.02001606 0.02301300 -0.04749924
v -0.00903165 0.02913300 -0.04201247
v -0.00896211 0.02915496 -0.04204175
v -0.00890720 0.02916960 -0.04206005
v -0.00887426 0.02918058 -0.04208567
v -0.00879373 0.02920620 -0.04214424
v -0.00873151 0.02922450 -0.04221744
v -0.00883034 0.02864618 -0.04151467
v -0.00899871 0.02762131 -0.04150003
v -0.02939362 0.00600006 -0.04150011
v -0.02906420 0.00743122 -0.04150011
v -0.02810521 0.00733972 -0.04150010
v -0.02160462 0.01941861 -0.04150008
v -0.01681702 0.02484315 -0.04150006
v -0.01709520 0.02525675 -0.04200152
v -0.01369848 0.02669159 -0.04150005
v -0.01037863 0.02814838 -0.04150004
v -0.00899871 0.02861691 -0.04150003
v -0.00914878 0.02909639 -0.04200149
v -0.00868393 0.02923915 -0.04230529
v -0.00867295 0.02924281 -0.04233091
v -0.00864366 0.02925013 -0.04244072
v -0.02998289 0.00559011 -0.04749928
v -0.02998291 0.00559011 -0.04249936
v -0.02997925 0.00560841 -0.04237491
v -0.02997559 0.00563403 -0.04230903
v -0.02997193 0.00565233 -0.04226510
v -0.02995729 0.00572188 -0.04216628
v -0.02995363 0.00574384 -0.04214798
v -0.02993899 0.00582071 -0.04208209
v -0.02992069 0.00590855 -0.04203817
v -0.02991703 0.00593051 -0.04203085
v -0.02990239 0.00600371 -0.04201254
v -0.02989141 0.00605496 -0.04200156
v -0.02988409 0.00609888 -0.04200156
v -0.02955101 0.00755567 -0.04200156
v -0.02795515 0.01088286 -0.04150010
v -0.02643981 0.01417344 -0.04150010
v -0.02453649 0.01725905 -0.04150009
v -0.02227445 0.02009576 -0.04150008
v -0.01969032 0.02263600 -0.04150007
v -0.02001608 0.02301300 -0.04200153
v -0.02221953 0.02089370 -0.04749925
v -0.02241711 0.02064480 -0.06830053
v -0.02262208 0.02026047 -0.06830053
v -0.01709518 0.02525675 -0.04749923
v -0.01392542 0.02713447 -0.04200151
v -0.01055066 0.02861690 -0.04200149
v -0.00864000 0.02925013 -0.04249928
v 0.01599390 -0.01973509 -0.08149930
v 0.02064605 -0.02241805 -0.06830037
v 0.02026173 -0.02262302 -0.06830038
v 0.02089487 -0.02222039 -0.04749909
v 0.02089495 -0.02222039 -0.06830037
v 0.01896592 -0.02388582 -0.04749910
v -0.00186096 -0.03044509 -0.04749918
v -0.00186098 -0.03044509 -0.04200146
v -0.00555052 -0.02999123 -0.04200148
v -0.00900948 -0.02861498 -0.04150003
v -0.00545902 -0.02950075 -0.04150002
v -0.00182804 -0.02994363 -0.04150001
v 0.00186151 -0.03044507 -0.04200145
v 0.00186153 -0.03044507 -0.04749917
v -0.00555050 -0.02999123 -0.04749919
v -0.00915955 -0.02909082 -0.04200149
v -0.01242451 -0.02730462 -0.04150005
v -0.02770618 -0.00873615 -0.04150010
v -0.02417399 -0.01859689 -0.04200154
v -0.02377868 -0.01829309 -0.04150009
v -0.02582844 -0.01526240 -0.04150009
v -0.02249393 -0.01838093 -0.04150008
v -0.01076275 -0.02698251 -0.04150004
v -0.01565653 -0.02559163 -0.04150006
v -0.01865429 -0.02349431 -0.04150007
v -0.02137388 -0.02104926 -0.04150008
v -0.02172892 -0.02140065 -0.04200153
v -0.02262193 -0.02026231 -0.06830053
v -0.02241696 -0.02064664 -0.06830053
v -0.02221930 -0.02089553 -0.06830053
v -0.02221938 -0.02089553 -0.04749925
v -0.02172882 -0.02140065 -0.06830053
v -0.02089428 -0.02222055 -0.06830053
v -0.02064538 -0.02241820 -0.06830053
v -0.02026105 -0.02262317 -0.06830052
v -0.02417397 -0.01859689 -0.04749926
v -0.02625669 -0.01551862 -0.04200155
v -0.02749387 -0.01200477 -0.04150010
v -0.02874936 -0.00857145 -0.04150011
v -0.02939357 -0.00599829 -0.04150011
v -0.02940455 -0.00588116 -0.04150743
v 0.00182857 -0.02994362 -0.04149999
v 0.01408311 -0.02540851 -0.04149995
v 0.01242502 -0.02730453 -0.04149995
v 0.01565703 -0.02559151 -0.04149994
v 0.01865477 -0.02349417 -0.04149993
v 0.01896590 -0.02388582 -0.04200138
v 0.01591691 -0.02601610 -0.04200140
v 0.01263366 -0.02776206 -0.04200141
v 0.00901000 -0.02861492 -0.04149997
v 0.00916007 -0.02909075 -0.04200142
v 0.00545955 -0.02950072 -0.04149998
v 0.00555106 -0.02999119 -0.04200143
v 0.00555108 -0.02999119 -0.04749915
v -0.00915953 -0.02909082 -0.04749921
v -0.01263314 -0.02776216 -0.04200150
v -0.01591641 -0.02601622 -0.04200151
v -0.01896541 -0.02388595 -0.04200152
v -0.02089436 -0.02222055 -0.04749925
v -0.02625667 -0.01551862 -0.04749927
v -0.02795140 -0.01220609 -0.04200156
v -0.02922885 -0.00871420 -0.04200156
v -0.02988405 -0.00610077 -0.04200157
v -0.02990235 -0.00600195 -0.04201255
v -0.02990601 -0.00597998 -0.04201254
v -0.02993163 -0.00585919 -0.04206013
v -0.02995359 -0.00575305 -0.04213334
v -0.02996823 -0.00567985 -0.04222118
v -0.02997555 -0.00563226 -0.04230903
v -0.02998287 -0.00559566 -0.04244446
v 0.01999442 -0.02107473 -0.04149992
v 0.02939392 -0.00599807 -0.04149989
v 0.02874973 -0.00857124 -0.04149989
v 0.02770655 -0.00873596 -0.04149990
v 0.02749427 -0.01200457 -0.04149990
v 0.02582886 -0.01526221 -0.04149990
v 0.02377912 -0.01829292 -0.04149991
v 0.02137434 -0.02104911 -0.04149992
v 0.02172939 -0.02140049 -0.04200137
v 0.02172949 -0.02140049 -0.06830037
v 0.02221996 -0.02089537 -0.06830037
v 0.02242859 -0.02062817 -0.06830037
v 0.02262259 -0.02026214 -0.06830037
v 0.01591693 -0.02601610 -0.04749911
v 0.01263368 -0.02776206 -0.04749912
v 0.00916009 -0.02909075 -0.04749914
v -0.01263312 -0.02776215 -0.04749922
v -0.01591639 -0.02601622 -0.04749923
v -0.01896539 -0.02388595 -0.04749924
v 0.02998323 -0.00559178 -0.04249914
v 0.02997957 -0.00560642 -0.04237469
v 0.02997591 -0.00563570 -0.04230881
v 0.02997225 -0.00565035 -0.04226488
v 0.02995761 -0.00571989 -0.04216606
v 0.02995395 -0.00574551 -0.04214776
v 0.02993930 -0.00581872 -0.04208187
v 0.02992100 -0.00590656 -0.04203795
v 0.02991734 -0.00592853 -0.04203063
v 0.02990270 -0.00600173 -0.04201233
v 0.02989172 -0.00605663 -0.04200134
v 0.02988440 -0.00610056 -0.04200135
v 0.02922922 -0.00871399 -0.04200135
v 0.02795180 -0.01220589 -0.04200135
v 0.02625711 -0.01551843 -0.04200136
v 0.02417443 -0.01859672 -0.04200137
v 0.02221988 -0.02089537 -0.04749909
v 0.02998325 -0.00559178 -0.04749906
v 0.02922924 -0.00871399 -0.04749906
v 0.02795182 -0.01220589 -0.04749907
v 0.02625714 -0.01551843 -0.04749907
v 0.02417445 -0.01859672 -0.04749908
v 0.01610371 -0.01917873 -0.08185801
v 0.01566447 -0.01999497 -0.08149931
v 0.01287536 -0.02189466 -0.08149931
v 0.01618423 -0.01892251 -0.08200076
v 0.01535701 -0.01959967 -0.08200076
v 0.01262280 -0.02146275 -0.08200077
v 0.00986297 -0.02340635 -0.08149932
v 0.00769243 -0.02156891 -0.08200079
v 0.00966897 -0.02294516 -0.08200079
v 0.00667488 -0.02450811 -0.08149933
v 0.00654311 -0.02402495 -0.08200080
v 0.00000223 -0.02540124 -0.08149936
v 0.00330012 -0.02468015 -0.08200081
v 0.00336601 -0.02517429 -0.08149935
v 0.00000223 -0.02489978 -0.08200082
v -0.00336522 -0.02517431 -0.08149937
v -0.00329933 -0.02468017 -0.08200083
v -0.00667410 -0.02450815 -0.08149938
v -0.00654233 -0.02402500 -0.08200085
v -0.00986219 -0.02340643 -0.08149940
v -0.00769166 -0.02156897 -0.08200085
v -0.00966820 -0.02294523 -0.08200086
v -0.01287459 -0.02189475 -0.08149941
v -0.01262204 -0.02146284 -0.08200087
v -0.01566372 -0.01999508 -0.08149942
v -0.01599315 -0.01973521 -0.08149942
v -0.01535626 -0.01959977 -0.08200088
v -0.01603341 -0.01946801 -0.08167878
v -0.01618348 -0.01892262 -0.08200088
v -0.01973395 -0.01599077 -0.08149943
v -0.02795138 -0.01220609 -0.04749927
v -0.02922883 -0.00871420 -0.04749928
v -0.02998285 -0.00559200 -0.04749928
v -0.01917759 -0.01610423 -0.08185814
v -0.01959852 -0.01602005 -0.08158728
v -0.02036718 -0.01517820 -0.08149943
v -0.02219732 -0.01234515 -0.08149945
v -0.01848214 -0.01574187 -0.08200089
v -0.01892137 -0.01618477 -0.08200089
v -0.01996455 -0.01487805 -0.08200090
v -0.02176175 -0.01209992 -0.08200090
v -0.02363948 -0.00929250 -0.08149945
v -0.02317462 -0.00910948 -0.08200091
v -0.02466070 -0.00607879 -0.08149945
v -0.02525002 -0.00275528 -0.08149946
v -0.02417755 -0.00595800 -0.08200091
v -0.02475222 -0.00270403 -0.08200091
v -0.02540010 0.00000090 -0.08149946
v -0.02955099 0.00755567 -0.04749928
v -0.02842366 0.01106587 -0.04200156
v -0.02687904 0.01441135 -0.04200155
v -0.02494643 0.01754821 -0.04200155
v -0.02264780 0.02042885 -0.04200154
v -0.02264778 0.02042884 -0.04749925
v -0.01392540 0.02713448 -0.04749922
v -0.01055064 0.02861690 -0.04749921
v -0.00863998 0.02925013 -0.04749920
v -0.02271713 0.00287788 -0.08200091
v -0.02489864 0.00000090 -0.08200091
v -0.02525004 0.00275708 -0.08149945
v -0.02842364 0.01106586 -0.04749927
v -0.02687902 0.01441135 -0.04749927
v -0.02494641 0.01754821 -0.04749926
v -0.02475224 0.00270218 -0.08200091
v -0.02466075 0.00607694 -0.08149945
v -0.02417759 0.00595982 -0.08200091
v -0.02363955 0.00929432 -0.08149945
v -0.02317469 0.00911131 -0.08200090
v -0.02219741 0.01234333 -0.08149944
v -0.02176184 0.01210175 -0.08200090
v -0.02036729 0.01517637 -0.08149944
v -0.01973407 0.01599261 -0.08149943
v -0.01996466 0.01487990 -0.08200089
v -0.01946687 0.01603288 -0.08167879
v -0.01892149 0.01618295 -0.08200089
v -0.01599329 0.01973342 -0.08149942
v -0.01324077 0.01868293 -0.08200087
v -0.01610310 0.01917706 -0.08185813
v -0.01566387 0.01999330 -0.08149942
v -0.01287476 0.02189299 -0.08149941
v -0.01618362 0.01892450 -0.08200088
v -0.01535640 0.01960165 -0.08200087
v -0.01262219 0.02146474 -0.08200086
v -0.00986236 0.02340835 -0.08149940
v -0.00769182 0.02157090 -0.08200085
v -0.00966837 0.02294715 -0.08200086
v -0.00667428 0.02450644 -0.08149939
v -0.00654250 0.02402694 -0.08200084
v -0.00336540 0.02517628 -0.08149937
v 0.00000204 0.02539956 -0.08149936
v -0.00329951 0.02468215 -0.08200083
v 0.00000204 0.02490177 -0.08200082
v 0.00336582 0.02517630 -0.08149935
v 0.00329994 0.02468217 -0.08200081
v 0.00667470 0.02450648 -0.08149934
v 0.02026156 0.02262150 -0.06830037
v 0.02064589 0.02241652 -0.06830037
v 0.02001625 0.02301315 -0.04749910
v 0.02242844 0.02062666 -0.06830037
v 0.02221981 0.02089386 -0.06830037
v 0.02089479 0.02221887 -0.06830037
v 0.02089471 0.02221887 -0.04749909
v 0.02001622 0.02301315 -0.04200138
v 0.00876455 0.02865357 -0.04152925
v 0.00883410 0.02864259 -0.04151827
v 0.00899881 0.02861697 -0.04149997
v 0.01037873 0.02814846 -0.04149996
v 0.01369859 0.02669168 -0.04149995
v 0.01969046 0.02263614 -0.04149993
v 0.01681715 0.02484327 -0.04149994
v 0.00864012 0.02925020 -0.04749914
v 0.00864010 0.02925019 -0.04249922
v 0.00865840 0.02924654 -0.04238209
v 0.00869867 0.02923189 -0.04226862
v 0.00873527 0.02922457 -0.04222104
v 0.00876821 0.02921359 -0.04216980
v 0.00885606 0.02918431 -0.04208927
v 0.00887436 0.02918065 -0.04208195
v 0.00895855 0.02915503 -0.04203436
v 0.00907933 0.02911842 -0.04200508
v 0.00914888 0.02909646 -0.04200142
v 0.01055076 0.02861697 -0.04200142
v 0.01392553 0.02713458 -0.04200140
v 0.01709532 0.02525688 -0.04200139
v 0.02227462 0.02009592 -0.04149992
v 0.01055078 0.02861698 -0.04749913
v 0.01392555 0.02713458 -0.04749912
v 0.01709534 0.02525688 -0.04749911
v 0.02262244 0.02026064 -0.06830037
v 0.02221973 0.02089386 -0.04749909
v 0.02264796 0.02042901 -0.04200137
v 0.02453667 0.01725923 -0.04149991
v 0.02264798 0.02042901 -0.04749909
v 0.02494662 0.01754839 -0.04200136
v 0.02644001 0.01417363 -0.04149990
v 0.02810546 0.00733992 -0.04149989
v 0.02940486 0.00588315 -0.04150721
v 0.02990632 0.00598197 -0.04201233
v 0.00654294 0.02402699 -0.08200079
v 0.00986280 0.02340842 -0.08149932
v 0.00769227 0.02157096 -0.08200079
v 0.00966880 0.02294722 -0.08200078
v 0.01287520 0.02189308 -0.08149931
v 0.01262265 0.02146483 -0.08200077
v 0.01566433 0.01999341 -0.08149930
v 0.01599375 0.01973353 -0.08149931
v 0.01535687 0.01960176 -0.08200076
v 0.01601571 0.01959810 -0.08159081
v 0.01618409 0.01892461 -0.08200076
v 0.02494664 0.01754839 -0.04749908
v 0.02687925 0.01441154 -0.04200136
v 0.02795538 0.01088306 -0.04149989
v 0.02906445 0.00743143 -0.04149989
v 0.02939388 0.00600027 -0.04149989
v 0.02988436 0.00609910 -0.04200134
v 0.02993194 0.00586119 -0.04205991
v 0.02995390 0.00575503 -0.04213311
v 0.02996854 0.00567817 -0.04222096
v 0.02997586 0.00563425 -0.04230881
v 0.02998318 0.00559399 -0.04244424
v 0.01973456 0.01599276 -0.08149929
v 0.01917820 0.01610256 -0.08185800
v 0.02012254 0.01549863 -0.08149929
v 0.02687927 0.01441155 -0.04749907
v 0.02842389 0.01106607 -0.04200135
v 0.02955127 0.00755588 -0.04200135
v 0.01892198 0.01618309 -0.08200075
v 0.01972724 0.01519482 -0.08200075
v 0.02034948 0.01516554 -0.08149929
v 0.02197831 0.01273147 -0.08149928
v 0.02842391 0.01106608 -0.04749907
v 0.02955129 0.00755588 -0.04749906
v 0.02998320 0.00559032 -0.04749906
v 0.02154640 0.01248258 -0.08200074
v 0.02345707 0.00974837 -0.08149928
v 0.02299588 0.00955437 -0.08200074
v 0.02452954 0.00659322 -0.08149927
v 0.02404638 0.00646145 -0.08200073
v 0.02518107 0.00332461 -0.08149927
v 0.02540070 0.00000109 -0.08149927
v 0.02518110 -0.00332610 -0.08149927
v 0.02452958 -0.00659105 -0.08149927
v 0.02361453 -0.00928501 -0.08149928
v 0.02345714 -0.00974620 -0.08149928
v 0.02217606 -0.01233401 -0.08149928
v 0.02197841 -0.01273298 -0.08149928
v 0.02034959 -0.01516340 -0.08149929
v 0.02012266 -0.01550015 -0.08149929
v 0.01973467 -0.01599063 -0.08149929
v 0.02489925 0.00000109 -0.08200073
v 0.02468694 0.00325872 -0.08200073
v 0.02468696 -0.00326021 -0.08200073
v 0.02404643 -0.00646295 -0.08200073
v 0.02299595 -0.00955587 -0.08200074
v 0.02154649 -0.01248043 -0.08200074
v 0.01972735 -0.01519635 -0.08200075
v 0.01946747 -0.01603455 -0.08167865
v 0.01892210 -0.01618463 -0.08200075
f 317 301 319
f 276 222 54
f 268 266 263
f 140 107 108
f 142 89 141
f 141 110 142
f 156 127 129
f 163 162 156
f 137 162 163
f 91 196 114
f 115 196 91
f 91 73 74
f 301 125 128
f 338 323 325
f 155 127 156
f 156 162 155
f 155 162 161
f 60 138 56
f 100 101 132
f 100 99 101
f 132 125 100
f 102 99 103
f 101 99 102
f 102 60 101
f 138 60 102
f 271 13 23
f 318 317 319
f 317 318 330
f 256 250 251
f 108 107 67
f 67 68 108
f 103 140 139
f 105 140 103
f 107 140 105
f 103 104 105
f 105 104 107
f 141 89 109
f 109 110 141
f 109 70 110
f 143 112 87
f 143 142 112
f 108 68 179
f 340 342 341
f 341 355 360
f 360 363 341
f 186 250 341
f 341 363 173
f 341 173 186
f 294 342 340
f 338 342 337
f 337 294 336
f 342 294 337
f 349 348 137
f 137 350 349
f 349 359 348
f 350 359 349
f 176 173 174
f 173 363 174
f 361 363 360
f 132 101 133
f 132 133 131
f 131 133 159
f 131 159 158
f 158 159 165
f 157 163 156
f 156 129 157
f 137 163 164
f 158 165 164
f 90 73 91
f 91 114 90
f 196 197 82
f 82 114 196
f 87 112 113
f 116 197 196
f 196 115 116
f 14 271 23
f 75 115 91
f 91 74 75
f 75 94 93
f 72 94 75
f 81 74 73
f 73 85 81
f 81 113 112
f 87 113 81
f 319 301 126
f 301 128 126
f 127 155 126
f 203 250 186
f 191 192 190
f 89 188 185
f 254 256 253
f 253 256 251
f 222 254 252
f 252 3 222
f 254 253 252
f 324 323 147
f 324 325 323
f 274 14 317
f 271 14 274
f 272 271 273
f 13 271 270
f 270 271 284
f 291 261 276
f 292 261 291
f 292 291 288
f 10 9 11
f 284 9 7
f 13 284 7
f 23 13 7
f 26 222 11
f 277 276 54
f 277 278 276
f 262 263 266
f 262 293 263
f 262 261 292
f 292 293 262
f 311 262 266
f 255 276 258
f 222 276 255
f 255 254 222
f 103 99 98
f 98 104 103
f 69 181 61
f 69 61 62
f 62 63 69
f 63 70 69
f 70 109 69
f 176 174 175
f 175 174 172
f 175 178 176
f 179 178 175
f 175 140 108
f 108 179 175
f 177 68 61
f 61 181 177
f 177 179 68
f 181 182 177
f 177 178 179
f 355 341 356
f 345 338 161
f 355 356 345
f 161 162 347
f 137 348 347
f 347 162 137
f 348 359 347
f 335 294 340
f 338 337 320
f 336 330 331
f 331 337 336
f 331 320 337
f 331 330 318
f 331 318 319
f 319 320 331
f 172 174 168
f 168 167 56
f 351 350 137
f 351 361 360
f 360 359 351
f 351 359 350
f 59 60 56
f 363 361 362
f 57 139 140
f 140 175 57
f 57 175 172
f 138 139 57
f 56 138 57
f 57 168 56
f 172 168 57
f 130 131 158
f 158 157 130
f 130 157 129
f 130 129 127
f 130 128 125
f 127 126 130
f 130 126 128
f 130 125 132
f 132 131 130
f 160 133 134
f 159 133 160
f 160 165 159
f 83 90 114
f 114 82 83
f 201 195 83
f 201 83 202
f 202 83 82
f 93 94 117
f 117 116 93
f 197 116 117
f 117 198 197
f 92 75 93
f 115 75 92
f 93 116 92
f 92 116 115
f 80 81 112
f 74 81 80
f 80 75 74
f 112 142 111
f 111 142 110
f 319 126 302
f 153 302 126
f 97 100 125
f 99 100 97
f 193 192 191
f 205 195 201
f 88 190 188
f 88 188 89
f 87 191 88
f 191 190 88
f 89 142 88
f 88 143 87
f 142 143 88
f 251 250 242
f 250 203 223
f 234 232 50
f 197 198 209
f 209 82 197
f 50 232 230
f 3 252 249
f 249 253 251
f 249 252 253
f 301 317 18
f 317 14 18
f 28 213 198
f 325 324 145
f 144 325 145
f 147 323 148
f 149 150 155
f 147 148 149
f 273 271 275
f 271 274 275
f 297 274 317
f 290 274 297
f 297 299 290
f 269 284 13
f 13 270 269
f 269 270 284
f 289 293 292
f 292 288 289
f 289 274 268
f 289 275 274
f 289 288 273
f 273 275 289
f 287 288 291
f 287 272 273
f 273 288 287
f 9 10 8
f 8 7 9
f 8 10 11
f 11 222 8
f 54 222 27
f 222 26 27
f 27 26 278
f 27 277 54
f 278 277 27
f 282 281 11
f 11 9 282
f 12 26 11
f 11 281 12
f 278 26 279
f 290 299 296
f 268 274 296
f 296 274 290
f 336 294 329
f 258 276 260
f 276 261 260
f 261 305 260
f 307 306 259
f 326 311 266
f 328 333 326
f 262 311 310
f 310 311 312
f 257 306 250
f 259 306 257
f 250 256 257
f 258 259 257
f 257 255 258
f 257 256 254
f 254 255 257
f 107 104 106
f 106 96 67
f 106 67 107
f 99 97 106
f 66 96 106
f 106 98 99
f 104 98 106
f 106 97 125
f 106 125 301
f 189 190 192
f 188 190 189
f 183 184 182
f 183 182 181
f 181 69 183
f 183 69 109
f 183 109 89
f 89 185 183
f 180 177 182
f 178 177 180
f 180 184 176
f 182 184 180
f 176 178 180
f 343 341 342
f 342 356 343
f 343 356 341
f 344 342 338
f 338 345 344
f 344 356 342
f 344 345 356
f 161 347 346
f 346 345 161
f 334 333 328
f 340 341 339
f 339 335 340
f 333 334 339
f 339 334 335
f 322 323 338
f 338 320 322
f 150 149 322
f 322 148 323
f 322 149 148
f 169 174 363
f 169 166 170
f 134 133 58
f 58 59 134
f 58 133 101
f 101 60 58
f 60 59 58
f 134 59 55
f 56 167 55
f 55 59 56
f 167 170 55
f 170 166 55
f 55 169 363
f 166 169 55
f 90 83 84
f 84 85 73
f 73 90 84
f 84 81 85
f 84 83 195
f 119 94 95
f 119 117 94
f 118 117 119
f 64 70 63
f 110 70 64
f 64 71 110
f 154 126 155
f 155 153 154
f 154 153 126
f 155 150 152
f 152 153 155
f 152 150 151
f 195 205 200
f 191 195 200
f 201 202 206
f 206 205 201
f 206 202 208
f 208 205 206
f 237 5 241
f 247 241 244
f 198 213 210
f 210 209 198
f 207 202 82
f 82 209 207
f 208 202 207
f 213 28 225
f 225 28 230
f 3 249 245
f 222 3 221
f 122 124 198
f 122 117 121
f 198 117 122
f 31 28 29
f 50 230 214
f 230 28 214
f 146 324 147
f 146 145 324
f 144 145 146
f 161 144 146
f 147 149 146
f 146 155 161
f 146 149 155
f 299 297 300
f 317 330 300
f 300 297 317
f 286 287 291
f 286 291 276
f 271 272 286
f 272 287 286
f 281 282 283
f 283 9 284
f 283 282 9
f 26 12 25
f 25 279 26
f 280 12 281
f 278 279 280
f 280 25 12
f 279 25 280
f 276 278 280
f 280 283 284
f 281 283 280
f 267 266 268
f 268 296 267
f 265 326 266
f 328 326 265
f 316 329 299
f 316 300 330
f 299 300 316
f 316 330 336
f 336 329 316
f 304 307 259
f 304 259 258
f 258 260 304
f 304 260 305
f 305 307 304
f 262 310 308
f 261 262 308
f 308 305 261
f 75 80 76
f 76 106 75
f 186 184 187
f 187 183 185
f 184 183 187
f 187 185 188
f 188 189 187
f 357 346 347
f 360 355 357
f 357 359 360
f 355 345 357
f 345 346 357
f 151 150 321
f 150 322 321
f 321 152 151
f 321 322 320
f 174 169 171
f 171 169 170
f 171 168 174
f 171 170 167
f 167 168 171
f 363 362 354
f 354 55 363
f 354 362 361
f 361 353 354
f 134 55 354
f 361 351 352
f 352 353 361
f 134 354 135
f 135 354 353
f 135 160 134
f 165 160 135
f 87 81 86
f 81 84 86
f 86 191 87
f 86 195 191
f 86 84 195
f 215 43 216
f 16 215 41
f 38 119 95
f 118 119 120
f 121 117 120
f 120 117 118
f 71 64 78
f 78 64 80
f 112 111 78
f 110 71 78
f 78 111 110
f 80 64 77
f 77 76 80
f 106 76 77
f 66 106 65
f 65 64 63
f 106 77 65
f 65 77 64
f 62 66 65
f 65 63 62
f 199 200 205
f 216 43 217
f 43 44 217
f 49 236 234
f 49 234 50
f 49 5 237
f 237 236 49
f 237 240 239
f 234 236 235
f 235 233 232
f 232 234 235
f 250 223 235
f 235 242 250
f 251 242 235
f 235 247 251
f 246 247 240
f 246 240 237
f 237 241 246
f 209 210 211
f 208 207 211
f 211 207 209
f 231 225 230
f 232 233 231
f 231 230 232
f 248 247 244
f 244 245 248
f 251 247 248
f 248 249 251
f 248 245 249
f 23 7 24
f 24 221 53
f 222 221 24
f 24 8 222
f 7 8 24
f 22 14 23
f 22 18 14
f 23 24 22
f 22 24 53
f 45 19 46
f 45 44 18
f 18 22 45
f 45 22 19
f 45 217 44
f 52 53 220
f 53 221 220
f 220 221 3
f 124 122 123
f 30 29 124
f 31 29 30
f 30 123 31
f 124 123 30
f 285 286 276
f 276 280 285
f 285 280 284
f 284 271 285
f 271 286 285
f 295 267 296
f 296 265 295
f 298 265 296
f 299 329 315
f 265 298 315
f 312 311 313
f 332 339 341
f 333 339 332
f 327 326 333
f 333 332 327
f 327 332 326
f 309 310 312
f 309 308 310
f 312 307 309
f 309 307 305
f 305 308 309
f 358 347 359
f 359 357 358
f 358 357 347
f 303 321 320
f 302 153 303
f 153 152 303
f 152 321 303
f 303 320 319
f 319 302 303
f 353 352 136
f 136 135 353
f 136 352 351
f 136 351 137
f 137 164 136
f 136 164 165
f 165 135 136
f 50 214 226
f 226 215 216
f 226 214 41
f 41 215 226
f 43 215 42
f 215 16 42
f 42 44 43
f 18 44 42
f 121 120 35
f 35 28 31
f 15 38 95
f 95 94 15
f 15 16 41
f 15 42 16
f 79 80 112
f 112 78 79
f 79 78 80
f 191 200 204
f 200 199 204
f 204 199 205
f 5 48 1
f 1 241 5
f 218 48 5
f 217 45 218
f 46 47 218
f 218 45 46
f 5 49 228
f 238 235 236
f 238 239 240
f 240 247 238
f 247 235 238
f 238 236 237
f 237 239 238
f 241 247 243
f 243 246 241
f 247 246 243
f 212 211 210
f 213 224 212
f 212 210 213
f 208 211 212
f 212 205 208
f 212 223 203
f 203 205 212
f 225 231 229
f 229 224 213
f 213 225 229
f 229 231 233
f 229 212 224
f 223 212 229
f 233 235 229
f 229 235 223
f 19 22 21
f 21 53 52
f 21 22 53
f 52 220 20
f 20 21 52
f 19 21 20
f 46 19 20
f 20 47 46
f 264 329 294
f 264 315 329
f 265 315 264
f 294 335 264
f 335 334 264
f 264 334 328
f 328 265 264
f 314 341 250
f 314 332 341
f 250 306 314
f 306 307 314
f 314 307 312
f 312 313 314
f 326 332 314
f 311 326 314
f 314 313 311
f 50 226 227
f 227 226 216
f 227 49 50
f 227 228 49
f 33 122 121
f 119 38 37
f 37 120 119
f 40 15 41
f 41 214 40
f 40 214 28
f 28 35 40
f 40 37 38
f 35 37 40
f 17 94 72
f 17 15 94
f 42 15 17
f 72 75 17
f 17 106 301
f 75 106 17
f 301 18 17
f 18 42 17
f 194 193 191
f 191 204 194
f 192 193 194
f 194 204 205
f 194 205 203
f 194 189 192
f 194 187 189
f 194 203 186
f 186 187 194
f 4 1 48
f 47 1 4
f 48 218 4
f 4 218 47
f 219 218 5
f 5 228 219
f 6 1 47
f 51 20 220
f 121 35 34
f 34 33 121
f 122 33 32
f 31 123 32
f 32 123 122
f 33 34 32
f 32 35 31
f 32 34 35
f 36 35 120
f 120 37 36
f 36 37 35
f 38 15 39
f 39 40 38
f 15 40 39
f 2 220 3
f 2 51 220
f 3 245 2
f 6 51 2
f 1 6 2
f 2 245 244
f 244 241 2
f 241 1 2
f 325 144 161
f 161 338 325
f 61 68 67
f 62 61 67
f 138 102 139
f 139 102 103
f 163 157 164
f 164 157 158
f 62 67 96
f 96 66 62
f 184 173 176
f 186 173 184
f 263 293 289
f 268 263 289
f 29 28 198
f 198 124 29
f 295 265 266
f 266 267 295
f 315 298 296
f 315 296 299
f 217 228 227
f 216 217 227
f 219 228 217
f 217 218 219
f 51 6 47
f 47 20 51

