# https://github.com/mikedh/trimesh

o camera_in_mount_frame_mm.stl
v 0.05450000 0.01299038 -0.00222500
v 0.05533355 0.01247205 -0.00222500
v 0.05533355 0.01247204 -0.02622500
v 0.05613142 0.01190030 -0.00222500
v 0.05689019 0.01127760 -0.00222500
v 0.05613142 0.01190030 -0.02622500
v 0.05760660 0.01060660 -0.00222500
v 0.05760660 0.01060661 -0.02622500
v 0.05182159 0.01420395 -0.00222500
v 0.05274025 0.01385820 -0.00222500
v 0.05274025 0.01385819 -0.02622500
v 0.05363433 0.01345309 -0.00222500
v 0.05088229 0.01448889 -0.02622500
v 0.05088229 0.01448889 -0.00222500
v 0.04992635 0.01471178 -0.00222500
v 0.04895789 0.01487167 -0.00222500
v 0.04895789 0.01487167 -0.02622500
v 0.04798105 0.01496788 -0.00222500
v 0.04700000 0.01500000 -0.02622500
v 0.04700000 0.01500000 -0.00222500
v 0.05450000 0.01299038 -0.02622500
v 0.05827760 0.00989019 -0.00222500
v 0.05890030 0.00913142 -0.00222500
v 0.05890030 0.00913142 -0.02622500
v 0.05947205 0.00833355 -0.00222500
v 0.05827760 0.00989019 -0.02622500
v 0.06045309 0.00663433 -0.00222500
v 0.05999038 0.00750000 -0.02622500
v 0.05999038 0.00750000 -0.00222500
v 0.06085819 0.00574026 -0.00222500
v 0.06085819 0.00574025 -0.02622500
v 0.00382683 0.00923880 -0.00222500
v 0.00471397 0.00881921 -0.00222500
v 0.00290285 0.00956940 -0.00222500
v 0.00195090 0.00980785 -0.00222500
v 0.00098017 0.00995185 -0.00222500
v -0.00000000 0.01000000 -0.00222500
v 0.00555570 0.00831470 -0.00222500
v 0.00634393 0.00773011 -0.00222500
v 0.00707107 0.00707107 -0.00222500
v 0.00773010 0.00634393 -0.00222500
v 0.00831470 0.00555571 -0.00222500
v 0.00881921 0.00471397 -0.00222500
v 0.00923880 0.00382684 -0.00222500
v 0.00956940 0.00290285 -0.00222500
v 0.00980785 0.00195090 -0.00222500
v 0.00995185 0.00098017 -0.00222500
v -0.00098017 0.00995185 -0.00222500
v 0.01005000 0.01500000 -0.01188624
v 0.01005000 0.01500000 -0.00972483
v -0.01005000 0.01500000 -0.00972483
v 0.01005000 0.01500000 -0.01872483
v 0.05182159 -0.01420395 -0.00222500
v 0.06120395 0.00482159 -0.00222500
v 0.06148889 0.00388228 -0.00222500
v 0.06171178 0.00292636 -0.00222500
v 0.06187167 0.00195789 -0.00222500
v 0.06196788 0.00098105 -0.00222500
v 0.06200000 -0.00000000 -0.00222500
v 0.00995185 -0.00098017 -0.00222500
v 0.06196788 -0.00098104 -0.00222500
v 0.06187167 -0.00195789 -0.00222500
v 0.06171178 -0.00292636 -0.00222500
v 0.06148889 -0.00388228 -0.00222500
v 0.06120395 -0.00482159 -0.00222500
v 0.06085819 -0.00574025 -0.00222500
v 0.06045309 -0.00663433 -0.00222500
v 0.05999038 -0.00750000 -0.00222500
v 0.05947205 -0.00833355 -0.00222500
v 0.05890030 -0.00913142 -0.00222500
v 0.05827760 -0.00989019 -0.00222500
v 0.05760660 -0.01060660 -0.00222500
v 0.05689019 -0.01127760 -0.00222500
v 0.05613142 -0.01190030 -0.00222500
v 0.05533355 -0.01247204 -0.00222500
v 0.05450000 -0.01299038 -0.00222500
v 0.05363433 -0.01345309 -0.00222500
v 0.05274025 -0.01385819 -0.00222500
v 0.04992635 -0.01471178 -0.00222500
v 0.05088229 -0.01448889 -0.00222500
v 0.04895789 -0.01487167 -0.00222500
v 0.04798105 -0.01496788 -0.00222500
v 0.04700000 -0.01500000 -0.00222500
v 0.06148889 0.00388228 -0.02622500
v 0.06187167 0.00195789 -0.02622500
v 0.06200000 0.00000000 -0.02622500
v 0.06187167 -0.00195789 -0.02622500
v 0.06171178 -0.00292636 -0.02622500
v 0.06120395 -0.00482159 -0.02622500
v 0.06045309 -0.00663433 -0.02622500
v 0.05999038 -0.00750000 -0.02622500
v 0.05947205 -0.00833355 -0.02622500
v 0.05827760 -0.00989019 -0.02622500
v 0.05760660 -0.01060660 -0.02622500
v 0.05613142 -0.01190030 -0.02622500
v 0.05450000 -0.01299038 -0.02622500
v 0.05363433 -0.01345309 -0.02622500
v 0.05274025 -0.01385820 -0.02622500
v 0.05088229 -0.01448889 -0.02622500
v 0.04992635 -0.01471178 -0.02622500
v 0.04798105 -0.01496788 -0.02622500
v 0.01000000 -0.00000000 -0.00222500
v 0.00980785 -0.00195090 -0.00222500
v 0.00956940 -0.00290285 -0.00222500
v 0.00923880 -0.00382683 -0.00222500
v 0.00881921 -0.00471397 -0.00222500
v 0.00831470 -0.00555570 -0.00222500
v 0.00773010 -0.00634394 -0.00222500
v 0.00707107 -0.00707107 -0.00222500
v 0.00634393 -0.00773010 -0.00222500
v 0.00555570 -0.00831469 -0.00222500
v 0.00471397 -0.00881921 -0.00222500
v 0.00382683 -0.00923880 -0.00222500
v 0.00290285 -0.00956940 -0.00222500
v 0.00195090 -0.00980785 -0.00222500
v 0.00098017 -0.00995185 -0.00222500
v -0.00000000 -0.01000000 -0.00222500
v -0.00098017 -0.00995185 -0.00222500
v -0.04700000 -0.01500000 -0.00222500
v 0.05689019 0.01127760 -0.02622500
v 0.05363433 0.01345309 -0.02622500
v 0.05182159 0.01420395 -0.02622500
v 0.04992635 0.01471178 -0.02622500
v 0.04798105 0.01496788 -0.02622500
v 0.05947205 0.00833355 -0.02622500
v 0.06045309 0.00663433 -0.02622500
v -0.05890030 -0.00913142 -0.02622500
v -0.04700000 0.01500000 -0.02622500
v 0.06120395 0.00482159 -0.02622500
v 0.06171178 0.00292635 -0.02622500
v 0.06196788 0.00098104 -0.02622500
v 0.06196788 -0.00098105 -0.02622500
v 0.06148889 -0.00388228 -0.02622500
v 0.06085819 -0.00574025 -0.02622500
v 0.05890030 -0.00913142 -0.02622500
v 0.05689019 -0.01127759 -0.02622500
v 0.05533355 -0.01247204 -0.02622500
v 0.05182159 -0.01420395 -0.02622500
v 0.04895789 -0.01487167 -0.02622500
v 0.04700000 -0.01500000 -0.02622500
v -0.04700000 -0.01500000 -0.02622500
v -0.04700000 0.01500000 -0.00222500
v -0.00195090 0.00980785 -0.00222500
v -0.00290285 0.00956940 -0.00222500
v -0.00382683 0.00923880 -0.00222500
v -0.00471397 0.00881921 -0.00222500
v -0.00555570 0.00831470 -0.00222500
v -0.00634393 0.00773011 -0.00222500
v -0.00707107 0.00707107 -0.00222500
v -0.00773010 0.00634393 -0.00222500
v -0.00831470 0.00555571 -0.00222500
v -0.00881921 0.00471397 -0.00222500
v -0.00923880 0.00382684 -0.00222500
v -0.00956940 0.00290285 -0.00222500
v -0.05088229 0.01448889 -0.00222500
v -0.00980785 0.00195090 -0.00222500
v -0.04798105 0.01496788 -0.00222500
v -0.04895789 0.01487167 -0.00222500
v -0.04992635 0.01471178 -0.00222500
v -0.05182159 0.01420395 -0.00222500
v -0.05274025 0.01385820 -0.00222500
v -0.05363433 0.01345309 -0.00222500
v -0.05450000 0.01299038 -0.00222500
v -0.00995185 0.00098017 -0.00222500
v -0.05533355 0.01247205 -0.00222500
v -0.05613142 0.01190030 -0.00222500
v -0.01000000 -0.00000000 -0.00222500
v -0.05689019 0.01127760 -0.00222500
v -0.05760660 0.01060660 -0.00222500
v -0.00995185 -0.00098017 -0.00222500
v -0.05827760 0.00989019 -0.00222500
v -0.05890030 0.00913142 -0.00222500
v -0.00980785 -0.00195090 -0.00222500
v -0.04798105 0.01496788 -0.02622500
v -0.04992635 0.01471178 -0.02622500
v -0.05088229 0.01448889 -0.02622500
v -0.05274025 0.01385819 -0.02622500
v -0.05450000 0.01299038 -0.02622500
v -0.05613142 0.01190030 -0.02622500
v -0.05689019 0.01127760 -0.02622500
v -0.05827760 0.00989019 -0.02622500
v -0.05947205 0.00833355 -0.02622500
v -0.05947205 0.00833355 -0.00222500
v -0.05999038 0.00750000 -0.00222500
v -0.06045309 0.00663433 -0.02622500
v -0.06045309 0.00663433 -0.00222500
v -0.06085819 0.00574026 -0.00222500
v -0.00956940 -0.00290285 -0.00222500
v -0.00923880 -0.00382683 -0.00222500
v -0.06120395 0.00482159 -0.00222500
v -0.00881921 -0.00471397 -0.00222500
v -0.06171178 0.00292636 -0.00222500
v -0.00831470 -0.00555570 -0.00222500
v -0.06187167 0.00195789 -0.00222500
v -0.00773010 -0.00634394 -0.00222500
v -0.06200000 -0.00000000 -0.00222500
v -0.00707107 -0.00707107 -0.00222500
v -0.06085819 -0.00574025 -0.00222500
v -0.04798105 -0.01496788 -0.00222500
v -0.04895789 -0.01487167 -0.00222500
v -0.00195090 -0.00980785 -0.00222500
v -0.06120395 -0.00482159 -0.00222500
v -0.00290285 -0.00956940 -0.00222500
v -0.00382683 -0.00923880 -0.00222500
v -0.06045309 -0.00663433 -0.00222500
v -0.05999038 -0.00750000 -0.00222500
v -0.06196788 -0.00098104 -0.00222500
v -0.00634393 -0.00773010 -0.00222500
v -0.06187167 -0.00195789 -0.00222500
v -0.00555570 -0.00831469 -0.00222500
v -0.06171178 -0.00292636 -0.00222500
v -0.00471397 -0.00881921 -0.00222500
v -0.06148889 -0.00388228 -0.00222500
v -0.05947205 -0.00833355 -0.00222500
v -0.05890030 -0.00913142 -0.00222500
v -0.05827760 -0.00989019 -0.00222500
v -0.05760660 -0.01060660 -0.00222500
v -0.05689019 -0.01127760 -0.00222500
v -0.05533355 -0.01247204 -0.00222500
v -0.05450000 -0.01299038 -0.00222500
v -0.05363433 -0.01345309 -0.00222500
v -0.05182159 -0.01420395 -0.00222500
v -0.05088229 -0.01448889 -0.00222500
v -0.04992635 -0.01471178 -0.00222500
v -0.05274025 -0.01385819 -0.00222500
v -0.05613142 -0.01190030 -0.00222500
v -0.06148889 0.00388228 -0.00222500
v -0.06196788 0.00098105 -0.00222500
v -0.06085819 0.00574025 -0.02622500
v -0.06148889 0.00388228 -0.02622500
v -0.06187167 0.00195789 -0.02622500
v -0.06200000 0.00000000 -0.02622500
v -0.06187167 -0.00195789 -0.02622500
v -0.06171178 -0.00292636 -0.02622500
v -0.06120395 -0.00482159 -0.02622500
v -0.06085819 -0.00574025 -0.02622500
v -0.06045309 -0.00663433 -0.02622500
v -0.05999038 -0.00750000 -0.02622500
v -0.04895789 -0.01487167 -0.02622500
v -0.05363433 -0.01345309 -0.02622500
v -0.05088229 -0.01448889 -0.02622500
v -0.05274025 -0.01385820 -0.02622500
v -0.05827760 -0.00989019 -0.02622500
v -0.05760660 -0.01060660 -0.02622500
v -0.05533355 -0.01247204 -0.02622500
v -0.05613142 -0.01190030 -0.02622500
v -0.01005000 0.01500000 -0.01872483
v -0.04895789 0.01487167 -0.02622500
v -0.05182159 0.01420395 -0.02622500
v -0.05363433 0.01345309 -0.02622500
v -0.05533355 0.01247204 -0.02622500
v -0.05760660 0.01060661 -0.02622500
v -0.05890030 0.00913142 -0.02622500
v -0.05999038 0.00750000 -0.02622500
v -0.06120395 0.00482159 -0.02622500
v -0.06171178 0.00292635 -0.02622500
v -0.06196788 0.00098104 -0.02622500
v -0.06196788 -0.00098105 -0.02622500
v -0.06148889 -0.00388228 -0.02622500
v -0.05947205 -0.00833355 -0.02622500
v -0.04798105 -0.01496788 -0.02622500
v -0.04992635 -0.01471178 -0.02622500
v -0.05450000 -0.01299038 -0.02622500
v -0.05182159 -0.01420395 -0.02622500
v -0.05689019 -0.01127759 -0.02622500
v 0.01005000 0.02374273 -0.00965175
v 0.01005000 0.02382169 -0.00971031
v -0.01005000 0.02382169 -0.00971031
v 0.01005000 0.02228366 -0.00896166
v -0.01005000 0.02176009 -0.00883051
v 0.01005000 0.02176009 -0.00883051
v -0.01005000 0.02122619 -0.00875132
v 0.01005000 0.02122619 -0.00875132
v 0.01005000 0.02279185 -0.00914350
v 0.01005000 0.02327978 -0.00937427
v -0.01005000 0.02279185 -0.00914350
v -0.01005000 0.02228366 -0.00896166
v -0.01005000 0.02327978 -0.00937427
v 0.01005000 0.01753291 -0.00972483
v 0.01005000 0.01719793 -0.00997328
v -0.01005000 0.02068709 -0.00872483
v 0.01005000 0.02068709 -0.00872483
v -0.01005000 0.02014800 -0.00875132
v 0.01005000 0.02014800 -0.00875132
v -0.01005000 0.01961410 -0.00883051
v 0.01005000 0.01961410 -0.00883051
v -0.01005000 0.01909053 -0.00896166
v 0.01005000 0.01909053 -0.00896166
v -0.01005000 0.01858233 -0.00914350
v 0.01005000 0.01858233 -0.00914350
v -0.01005000 0.01809441 -0.00937427
v 0.01005000 0.01809441 -0.00937427
v -0.01005000 0.01763146 -0.00965175
v 0.01005000 0.01763146 -0.00965175
v -0.01005000 0.01753291 -0.00972483
v 0.01005000 0.02182601 -0.01252032
v 0.01005000 0.02165345 -0.01241690
v 0.01005000 0.02128218 -0.01226311
v 0.01005000 0.02147159 -0.01233088
v 0.01005000 0.02108703 -0.01221422
v 0.01005000 0.02198760 -0.01264016
v 0.01005000 0.02088803 -0.01218471
v 0.01005000 0.02213666 -0.01277526
v 0.01005000 0.02227177 -0.01292433
v 0.01005000 0.02249503 -0.01325847
v 0.01005000 0.02258104 -0.01344033
v 0.01005000 0.02264882 -0.01362975
v 0.01005000 0.02239160 -0.01308591
v 0.01005000 0.02269770 -0.01382490
v 0.01005000 0.02272722 -0.01402390
v 0.01005000 0.02273709 -0.01422483
v 0.01005000 0.02272722 -0.01442577
v 0.01005000 0.02269770 -0.01462477
v 0.01005000 0.02613839 -0.01491370
v -0.01005000 0.02128218 -0.01226311
v -0.01005000 0.02108703 -0.01221422
v -0.01005000 0.02227177 -0.01292433
v -0.01005000 0.02165345 -0.01241690
v -0.01005000 0.02198760 -0.01264016
v -0.01005000 0.02182601 -0.01252032
v -0.01005000 0.02147159 -0.01233088
v -0.01005000 0.02213666 -0.01277526
v 0.01005000 0.02068709 -0.01217483
v 0.01005000 0.02048616 -0.01218470
v 0.01005000 0.02028716 -0.01221422
v 0.01005000 0.02009201 -0.01226311
v 0.01005000 0.01990259 -0.01233088
v 0.01005000 0.01972073 -0.01241690
v 0.01005000 0.01954817 -0.01252032
v 0.01005000 0.01679800 -0.01033575
v 0.01005000 0.01938659 -0.01264016
v 0.01005000 0.01923753 -0.01277526
v 0.01005000 0.01643553 -0.01073567
v 0.01005000 0.01910242 -0.01292432
v 0.01005000 0.01611401 -0.01116919
v 0.01005000 0.01898258 -0.01308592
v 0.01005000 0.01583653 -0.01163215
v 0.01005000 0.01887916 -0.01325847
v 0.01005000 0.01560575 -0.01212007
v 0.01005000 0.01879314 -0.01344033
v 0.01005000 0.01542392 -0.01262827
v -0.01005000 0.02068709 -0.01217483
v -0.01005000 0.02088803 -0.01218471
v -0.01005000 0.02048616 -0.01218470
v -0.01005000 0.02028716 -0.01221422
v -0.01005000 0.02009201 -0.01226311
v -0.01005000 0.01990259 -0.01233088
v -0.01005000 0.01972073 -0.01241690
v -0.01005000 0.01954817 -0.01252032
v -0.01005000 0.01938659 -0.01264016
v -0.01005000 0.01923753 -0.01277526
v -0.01005000 0.01910242 -0.01292432
v -0.01005000 0.01898258 -0.01308592
v 0.01005000 0.01529278 -0.01315183
v 0.01005000 0.01521358 -0.01368574
v 0.01005000 0.02608141 -0.01529783
v 0.01005000 0.02264882 -0.01481992
v 0.01005000 0.02595027 -0.01582140
v 0.01005000 0.02258105 -0.01500933
v 0.01005000 0.02249503 -0.01519120
v 0.01005000 0.02576843 -0.01632959
v 0.01005000 0.02553766 -0.01681752
v 0.01005000 0.02239160 -0.01536375
v 0.01005000 0.02227177 -0.01552534
v 0.01005000 0.02526018 -0.01728047
v 0.01005000 0.02213666 -0.01567440
v 0.01005000 0.02493865 -0.01771400
v -0.01005000 0.02239160 -0.01308591
v -0.01005000 0.02258104 -0.01344033
v -0.01005000 0.02249503 -0.01325847
v -0.01005000 0.02264882 -0.01362975
v -0.01005000 0.02269770 -0.01382490
v -0.01005000 0.02272722 -0.01402390
v -0.01005000 0.02273709 -0.01422483
v -0.01005000 0.02272722 -0.01442577
v -0.01005000 0.02269770 -0.01462477
v -0.01005000 0.02608141 -0.01529783
v -0.01005000 0.02595027 -0.01582140
v -0.01005000 0.02264882 -0.01481992
v -0.01005000 0.02258105 -0.01500933
v -0.01005000 0.02249503 -0.01519120
v -0.01005000 0.02239160 -0.01536375
v -0.01005000 0.02227177 -0.01552534
v -0.01005000 0.02213666 -0.01567440
v 0.01005000 0.02198760 -0.01580951
v -0.01005000 0.02198760 -0.01580951
v 0.01005000 0.02182601 -0.01592935
v -0.01005000 0.02182601 -0.01592935
v 0.01005000 0.02165345 -0.01603277
v -0.01005000 0.02165345 -0.01603277
v 0.01005000 0.02147160 -0.01611878
v -0.01005000 0.02147160 -0.01611878
v 0.01005000 0.02128217 -0.01618656
v -0.01005000 0.02128217 -0.01618656
v 0.01005000 0.02108703 -0.01623544
v -0.01005000 0.02108703 -0.01623544
v 0.01005000 0.02088803 -0.01626496
v 0.01005000 0.01872536 -0.01362975
v 0.01005000 0.01867649 -0.01382490
v 0.01005000 0.01864696 -0.01402390
v 0.01005000 0.01518709 -0.01422483
v 0.01005000 0.01863709 -0.01422483
v 0.01005000 0.01521358 -0.01476393
v 0.01005000 0.01864696 -0.01442577
v 0.01005000 0.01529278 -0.01529783
v 0.01005000 0.01867648 -0.01462477
v 0.01005000 0.01542392 -0.01582140
v 0.01005000 0.01872536 -0.01481992
v 0.01005000 0.01560575 -0.01632959
v 0.01005000 0.01879314 -0.01500933
v 0.01005000 0.01583653 -0.01681751
v 0.01005000 0.01887916 -0.01519119
v 0.01005000 0.01611401 -0.01728047
v 0.01005000 0.01898258 -0.01536375
v 0.01005000 0.01643553 -0.01771400
v 0.01005000 0.01910242 -0.01552534
v -0.01005000 0.01887916 -0.01325847
v -0.01005000 0.01879314 -0.01344033
v -0.01005000 0.01872536 -0.01362975
v -0.01005000 0.01867649 -0.01382490
v -0.01005000 0.01864696 -0.01402390
v -0.01005000 0.01863709 -0.01422483
v -0.01005000 0.01864696 -0.01442577
v -0.01005000 0.01867648 -0.01462477
v -0.01005000 0.01879314 -0.01500933
v -0.01005000 0.01872536 -0.01481992
v -0.01005000 0.01887916 -0.01519119
v -0.01005000 0.01898258 -0.01536375
v -0.01005000 0.01910242 -0.01552534
v -0.01005000 0.02088803 -0.01626496
v 0.01005000 0.02068709 -0.01627483
v -0.01005000 0.02068709 -0.01627483
v 0.01005000 0.02048616 -0.01626496
v -0.01005000 0.02048616 -0.01626496
v 0.01005000 0.02028716 -0.01623544
v 0.01005000 0.02009201 -0.01618656
v -0.01005000 0.02009201 -0.01618656
v 0.01005000 0.01990259 -0.01611879
v 0.01005000 0.01972073 -0.01603277
v -0.01005000 0.01990259 -0.01611879
v -0.01005000 0.02028716 -0.01623544
v 0.01005000 0.01923752 -0.01567440
v -0.01005000 0.01923752 -0.01567440
v 0.01005000 0.01938659 -0.01580950
v -0.01005000 0.01938659 -0.01580950
v 0.01005000 0.01954817 -0.01592935
v -0.01005000 0.01954817 -0.01592935
v -0.01005000 0.01972073 -0.01603277
v 0.01005000 0.02457618 -0.01811392
v 0.01005000 0.02417625 -0.01847639
v 0.01005000 0.02374273 -0.01879792
v 0.01005000 0.02327977 -0.01907540
v 0.01005000 0.02279185 -0.01930617
v 0.01005000 0.02228366 -0.01948801
v 0.01005000 0.02176009 -0.01961915
v 0.01005000 0.02122619 -0.01969835
v -0.01005000 0.02576843 -0.01632959
v -0.01005000 0.02553766 -0.01681752
v -0.01005000 0.02526018 -0.01728047
v -0.01005000 0.02493865 -0.01771400
v -0.01005000 0.02457618 -0.01811392
v -0.01005000 0.02417625 -0.01847639
v -0.01005000 0.02374273 -0.01879792
v -0.01005000 0.02327977 -0.01907540
v -0.01005000 0.02279185 -0.01930617
v -0.01005000 0.02228366 -0.01948801
v -0.01005000 0.02176009 -0.01961915
v 0.01005000 0.01719793 -0.01847639
v 0.01005000 0.01858234 -0.01930617
v 0.01005000 0.01809441 -0.01907540
v 0.01005000 0.01753291 -0.01872483
v 0.01005000 0.02068709 -0.01972483
v 0.01005000 0.02014800 -0.01969835
v 0.01005000 0.01961410 -0.01961915
v 0.01005000 0.01909053 -0.01948800
v 0.01005000 0.01679801 -0.01811392
v 0.01005000 0.01763145 -0.01879792
v -0.01005000 0.01961410 -0.01961915
v -0.01005000 0.01909053 -0.01948800
v -0.01005000 0.01753291 -0.01872483
v -0.01005000 0.01809441 -0.01907540
v -0.01005000 0.01858234 -0.01930617
v -0.01005000 0.02122619 -0.01969835
v -0.01005000 0.02068709 -0.01972483
v -0.01005000 0.02014800 -0.01969835
v -0.01005000 0.02374273 -0.00965175
v -0.01005000 0.01719793 -0.00997328
v -0.01005000 0.02613839 -0.01491370
v -0.01005000 0.01679800 -0.01033575
v -0.01005000 0.01643553 -0.01073567
v -0.01005000 0.01611401 -0.01116919
v -0.01005000 0.01583653 -0.01163215
v -0.01005000 0.01560575 -0.01212007
v -0.01005000 0.01542392 -0.01262827
v -0.01005000 0.01529278 -0.01315183
v -0.01005000 0.01521358 -0.01368574
v -0.01005000 0.01518709 -0.01422483
v -0.01005000 0.01521358 -0.01476393
v -0.01005000 0.01529278 -0.01529783
v -0.01005000 0.01542392 -0.01582140
v -0.01005000 0.01560575 -0.01632959
v -0.01005000 0.01583653 -0.01681751
v -0.01005000 0.01611401 -0.01728047
v -0.01005000 0.01643553 -0.01771400
v -0.01005000 0.01763145 -0.01879792
v -0.01005000 0.01679801 -0.01811392
v -0.01005000 0.01719793 -0.01847639
v 0.00773010 0.00634393 -0.00022500
v 0.00831470 0.00555570 -0.00022500
v 0.00471397 0.00881922 -0.00022500
v 0.00382683 0.00923880 -0.00022500
v 0.00555570 0.00831470 -0.00022500
v 0.00290285 0.00956941 -0.00022500
v 0.00260225 0.00628238 -0.00022500
v 0.00195090 0.00980786 -0.00022500
v 0.00197394 0.00650719 -0.00022500
v 0.00098017 0.00995185 -0.00022500
v 0.00066652 0.00676726 -0.00022500
v -0.00000000 0.01000000 -0.00022500
v -0.00000000 0.00680000 -0.00022500
v 0.00320550 0.00599707 -0.00022500
v 0.00377788 0.00565400 -0.00022500
v 0.00431387 0.00525647 -0.00022500
v 0.00634393 0.00773011 -0.00022500
v 0.00707107 0.00707107 -0.00022500
v 0.00480833 0.00480833 -0.00022500
v 0.00132661 0.00666934 -0.00022500
v 0.00881921 0.00471397 -0.00022500
v 0.00628238 0.00260225 -0.00022500
v 0.00923880 0.00382683 -0.00022500
v 0.00956940 0.00290285 -0.00022500
v 0.00666934 0.00132661 -0.00022500
v 0.00980785 0.00195091 -0.00022500
v 0.00676726 0.00066652 -0.00022500
v 0.00995185 0.00098017 -0.00022500
v 0.01000000 0.00000000 -0.00022500
v 0.00525647 0.00431387 -0.00022500
v 0.00599706 0.00320550 -0.00022500
v 0.00565399 0.00377788 -0.00022500
v 0.00650719 0.00197394 -0.00022500
v 0.00680000 0.00000000 -0.00022500
v 0.00995185 -0.00098017 -0.00022500
v 0.00676726 -0.00066652 -0.00022500
v 0.00666934 -0.00132661 -0.00022500
v 0.00980785 -0.00195091 -0.00022500
v 0.00956940 -0.00290285 -0.00022500
v 0.00628238 -0.00260225 -0.00022500
v 0.00923880 -0.00382683 -0.00022500
v 0.00881921 -0.00471397 -0.00022500
v 0.00650719 -0.00197394 -0.00022500
v 0.00599706 -0.00320550 -0.00022500
v 0.00565399 -0.00377788 -0.00022500
v 0.00831470 -0.00555570 -0.00022500
v 0.00773010 -0.00634393 -0.00022500
v 0.00525647 -0.00431387 -0.00022500
v 0.00707107 -0.00707107 -0.00022500
v 0.00480833 -0.00480833 -0.00022500
v 0.00634393 -0.00773010 -0.00022500
v 0.00431387 -0.00525647 -0.00022500
v 0.00555570 -0.00831469 -0.00022500
v 0.00377788 -0.00565399 -0.00022500
v 0.00471397 -0.00881921 -0.00022500
v 0.00320550 -0.00599707 -0.00022500
v 0.00382683 -0.00923880 -0.00022500
v 0.00260225 -0.00628238 -0.00022500
v 0.00290285 -0.00956940 -0.00022500
v 0.00197394 -0.00650719 -0.00022500
v 0.00195090 -0.00980786 -0.00022500
v 0.00132661 -0.00666934 -0.00022500
v 0.00066652 -0.00676726 -0.00022500
v 0.00098017 -0.00995184 -0.00022500
v -0.00000000 -0.00680000 -0.00022500
v -0.00000000 -0.01000000 -0.00022500
v -0.00098017 0.00995185 -0.00022500
v -0.00195090 0.00980786 -0.00022500
v -0.00132661 0.00666934 -0.00022500
v -0.00290285 0.00956941 -0.00022500
v -0.00197394 0.00650719 -0.00022500
v -0.00382683 0.00923880 -0.00022500
v -0.00260225 0.00628238 -0.00022500
v -0.00471397 0.00881922 -0.00022500
v -0.00555570 0.00831470 -0.00022500
v -0.00066652 0.00676726 -0.00022500
v -0.00320550 0.00599707 -0.00022500
v -0.00377788 0.00565400 -0.00022500
v -0.00634393 0.00773011 -0.00022500
v -0.00431387 0.00525647 -0.00022500
v -0.00707107 0.00707107 -0.00022500
v -0.00480833 0.00480833 -0.00022500
v -0.00773010 0.00634393 -0.00022500
v -0.00831470 0.00555570 -0.00022500
v -0.00525647 0.00431387 -0.00022500
v -0.00565399 0.00377788 -0.00022500
v -0.00881921 0.00471397 -0.00022500
v -0.00599706 0.00320550 -0.00022500
v -0.00923880 0.00382683 -0.00022500
v -0.00628238 0.00260225 -0.00022500
v -0.00650719 0.00197394 -0.00022500
v -0.00956940 0.00290285 -0.00022500
v -0.00666934 0.00132661 -0.00022500
v -0.00980785 0.00195091 -0.00022500
v -0.00995185 0.00098017 -0.00022500
v -0.00676726 0.00066652 -0.00022500
v -0.00680000 0.00000000 -0.00022500
v -0.00980785 -0.00195091 -0.00022500
v -0.00666934 -0.00132661 -0.00022500
v -0.00676726 -0.00066652 -0.00022500
v -0.00650719 -0.00197394 -0.00022500
v -0.00923880 -0.00382683 -0.00022500
v -0.00628238 -0.00260225 -0.00022500
v -0.00599706 -0.00320550 -0.00022500
v -0.00831470 -0.00555570 -0.00022500
v -0.00565399 -0.00377788 -0.00022500
v -0.00881921 -0.00471397 -0.00022500
v -0.01000000 0.00000000 -0.00022500
v -0.00995185 -0.00098017 -0.00022500
v -0.00956940 -0.00290285 -0.00022500
v -0.00382683 -0.00923880 -0.00022500
v -0.00260225 -0.00628238 -0.00022500
v -0.00320550 -0.00599707 -0.00022500
v -0.00707107 -0.00707107 -0.00022500
v -0.00480833 -0.00480833 -0.00022500
v -0.00525647 -0.00431387 -0.00022500
v -0.00634393 -0.00773010 -0.00022500
v -0.00431387 -0.00525647 -0.00022500
v -0.00773010 -0.00634393 -0.00022500
v -0.00555570 -0.00831469 -0.00022500
v -0.00377788 -0.00565399 -0.00022500
v -0.00471397 -0.00881921 -0.00022500
v -0.00098017 -0.00995184 -0.00022500
v -0.00066652 -0.00676726 -0.00022500
v -0.00195090 -0.00980786 -0.00022500
v -0.00132661 -0.00666934 -0.00022500
v -0.00290285 -0.00956940 -0.00022500
v -0.00197394 -0.00650719 -0.00022500
v 0.00197394 0.00650719 0.00000000
v 0.00260225 0.00628238 0.00000000
v 0.00320550 0.00599706 -0.00000000
v 0.00377788 0.00565400 0.00000000
v 0.00132661 0.00666934 0.00000000
v 0.00066652 0.00676726 0.00000000
v -0.00000000 0.00680000 0.00000000
v 0.00431387 0.00525647 -0.00000000
v 0.00480833 0.00480832 -0.00000000
v 0.00525647 0.00431388 0.00000000
v 0.00565399 0.00377788 -0.00000000
v 0.00599706 0.00320550 -0.00000000
v -0.00000000 -0.00000000 -0.00000000
v 0.00628238 0.00260225 0.00000000
v 0.00650719 0.00197394 0.00000000
v 0.00666934 0.00132661 -0.00000000
v 0.00676726 0.00066652 0.00000000
v 0.00680000 -0.00000000 -0.00000000
v 0.00676726 -0.00066652 -0.00000000
v 0.00666934 -0.00132661 -0.00000000
v 0.00650719 -0.00197393 0.00000000
v 0.00628238 -0.00260224 0.00000000
v 0.00599706 -0.00320550 -0.00000000
v 0.00565399 -0.00377788 -0.00000000
v 0.00525647 -0.00431387 0.00000000
v 0.00480833 -0.00480833 0.00000000
v 0.00431387 -0.00525647 0.00000000
v 0.00377788 -0.00565399 0.00000000
v 0.00320550 -0.00599707 -0.00000000
v 0.00260225 -0.00628238 -0.00000000
v 0.00197394 -0.00650720 -0.00000000
v 0.00132661 -0.00666934 0.00000000
v 0.00066652 -0.00676726 -0.00000000
v -0.00000000 -0.00680000 0.00000000
v -0.00066652 0.00676726 0.00000000
v -0.00132661 0.00666934 0.00000000
v -0.00197394 0.00650719 0.00000000
v -0.00260225 0.00628238 0.00000000
v -0.00320550 0.00599706 -0.00000000
v -0.00377788 0.00565400 0.00000000
v -0.00431387 0.00525647 -0.00000000
v -0.00480833 0.00480832 -0.00000000
v -0.00525647 0.00431388 0.00000000
v -0.00565399 0.00377788 -0.00000000
v -0.00599706 0.00320550 -0.00000000
v -0.00628238 0.00260225 0.00000000
v -0.00650719 0.00197394 0.00000000
v -0.00666934 0.00132661 -0.00000000
v -0.00676726 0.00066652 0.00000000
v -0.00680000 -0.00000000 -0.00000000
v -0.00676726 -0.00066652 -0.00000000
v -0.00666934 -0.00132661 -0.00000000
v -0.00650719 -0.00197393 0.00000000
v -0.00628238 -0.00260224 0.00000000
v -0.00599706 -0.00320550 -0.00000000
v -0.00565399 -0.00377788 -0.00000000
v -0.00525647 -0.00431387 0.00000000
v -0.00480833 -0.00480833 0.00000000
v -0.00431387 -0.00525647 0.00000000
v -0.00066652 -0.00676726 -0.00000000
v -0.00132661 -0.00666934 0.00000000
v -0.00197394 -0.00650720 -0.00000000
v -0.00320550 -0.00599707 -0.00000000
v -0.00260225 -0.00628238 -0.00000000
v -0.00377788 -0.00565399 0.00000000
f 1 2 3
f 2 4 3
f 5 6 4
f 5 7 8
f 9 10 11
f 10 12 11
f 9 13 14
f 14 13 15
f 16 17 18
f 15 17 16
f 18 19 20
f 1 21 12
f 22 23 24
f 23 25 24
f 22 26 7
f 27 28 29
f 25 29 28
f 27 30 31
f 20 32 33
f 20 34 32
f 20 35 34
f 20 36 35
f 20 37 36
f 20 38 39
f 20 40 41
f 20 39 40
f 20 42 43
f 20 41 42
f 20 33 38
f 20 43 44
f 20 44 45
f 20 45 46
f 20 46 47
f 20 48 37
f 20 49 50
f 20 50 51
f 20 52 49
f 2 53 4
f 5 53 7
f 5 4 53
f 22 7 53
f 22 53 23
f 23 53 25
f 25 53 29
f 10 53 12
f 14 15 53
f 9 53 10
f 9 14 53
f 1 12 53
f 1 53 2
f 15 16 53
f 16 18 53
f 18 20 53
f 54 53 55
f 27 29 53
f 27 53 30
f 30 53 54
f 55 53 56
f 56 53 57
f 57 53 58
f 58 53 59
f 20 60 53
f 59 53 61
f 61 53 62
f 62 53 63
f 63 53 64
f 64 53 65
f 65 53 66
f 66 53 67
f 67 53 68
f 68 53 69
f 69 53 70
f 70 53 71
f 71 53 72
f 72 53 73
f 73 53 74
f 74 53 75
f 75 53 76
f 76 53 77
f 77 53 78
f 53 79 80
f 53 81 79
f 53 82 81
f 53 83 82
f 30 54 31
f 54 55 84
f 55 56 84
f 56 57 85
f 57 58 85
f 58 59 86
f 59 61 86
f 61 62 87
f 62 63 87
f 63 64 88
f 64 65 89
f 65 66 89
f 66 67 90
f 67 68 90
f 68 69 91
f 69 70 92
f 70 71 93
f 71 72 93
f 72 73 94
f 73 74 95
f 74 75 95
f 75 76 96
f 76 77 97
f 77 78 97
f 78 53 98
f 53 80 99
f 80 79 100
f 79 81 100
f 81 82 101
f 82 83 101
f 20 47 102
f 20 102 60
f 53 60 103
f 53 103 104
f 53 104 105
f 53 105 106
f 53 106 107
f 53 107 108
f 53 108 109
f 53 109 110
f 53 110 111
f 53 111 112
f 53 112 113
f 53 113 114
f 53 114 115
f 53 115 116
f 53 116 117
f 53 117 118
f 53 119 83
f 1 3 21
f 4 6 3
f 5 120 6
f 5 8 120
f 12 21 121
f 12 121 11
f 9 122 13
f 9 11 122
f 15 13 123
f 15 123 17
f 18 17 124
f 18 124 19
f 22 24 26
f 25 125 24
f 7 26 8
f 27 126 28
f 25 28 125
f 27 31 126
f 20 19 52
f 11 121 127
f 21 127 121
f 19 128 52
f 17 127 124
f 124 127 19
f 122 11 127
f 122 127 13
f 13 127 123
f 123 127 17
f 54 129 31
f 54 84 129
f 56 130 84
f 56 85 130
f 58 131 85
f 58 86 131
f 61 132 86
f 61 87 132
f 63 88 87
f 64 133 88
f 64 89 133
f 66 134 89
f 66 90 134
f 68 91 90
f 69 92 91
f 70 135 92
f 70 93 135
f 72 94 93
f 73 136 94
f 73 95 136
f 75 137 95
f 75 96 137
f 76 97 96
f 78 98 97
f 53 138 98
f 53 99 138
f 80 100 99
f 81 139 100
f 81 101 139
f 83 140 101
f 83 141 140
f 26 24 127
f 3 6 127
f 120 127 6
f 21 3 127
f 120 8 127
f 26 127 8
f 24 125 127
f 125 28 127
f 126 127 28
f 126 31 127
f 31 129 127
f 84 130 127
f 129 84 127
f 130 85 127
f 85 131 127
f 131 86 127
f 86 132 127
f 132 87 127
f 87 88 127
f 88 133 127
f 133 89 127
f 89 134 127
f 134 90 127
f 90 91 127
f 91 92 127
f 92 135 127
f 135 93 127
f 93 94 127
f 94 136 127
f 136 95 127
f 95 137 127
f 137 96 127
f 96 97 127
f 97 98 127
f 98 138 127
f 138 99 127
f 99 100 127
f 100 139 127
f 139 101 127
f 101 140 127
f 20 142 48
f 20 51 142
f 142 143 48
f 142 144 143
f 142 145 144
f 142 146 145
f 142 147 146
f 142 148 147
f 142 149 148
f 142 150 149
f 142 151 150
f 142 152 151
f 142 153 152
f 142 154 153
f 155 156 154
f 142 157 154
f 157 158 154
f 158 159 154
f 159 155 154
f 155 160 156
f 160 161 156
f 161 162 156
f 162 163 164
f 163 165 164
f 165 166 167
f 166 168 167
f 168 169 170
f 169 171 170
f 171 172 173
f 142 51 128
f 142 174 157
f 157 174 158
f 158 175 159
f 159 175 155
f 155 176 160
f 160 177 161
f 161 177 162
f 162 178 163
f 163 178 165
f 165 179 166
f 166 180 168
f 168 180 169
f 169 181 171
f 171 181 172
f 172 182 183
f 183 182 184
f 184 185 186
f 186 185 187
f 162 164 156
f 165 167 164
f 168 170 167
f 171 173 170
f 183 188 173
f 187 189 188
f 190 191 189
f 192 193 191
f 194 195 193
f 196 197 195
f 53 118 198
f 53 199 119
f 53 200 199
f 198 118 201
f 202 203 204
f 202 201 203
f 53 198 205
f 53 205 206
f 207 208 197
f 209 210 208
f 211 212 210
f 213 204 212
f 53 206 214
f 53 214 215
f 53 215 216
f 53 217 218
f 53 216 217
f 53 219 220
f 53 220 221
f 53 222 223
f 53 224 200
f 53 223 224
f 53 221 225
f 53 225 222
f 53 226 219
f 53 218 226
f 83 119 141
f 172 183 173
f 183 184 188
f 184 186 188
f 186 187 188
f 187 190 189
f 190 227 191
f 227 192 191
f 192 194 193
f 194 228 195
f 228 196 195
f 196 207 197
f 207 209 208
f 209 211 210
f 213 202 204
f 202 198 201
f 211 213 212
f 187 229 190
f 190 230 227
f 227 230 192
f 192 231 194
f 194 231 228
f 228 232 196
f 196 232 207
f 207 233 209
f 209 233 211
f 211 234 213
f 213 235 202
f 202 236 198
f 198 237 205
f 205 238 206
f 206 238 214
f 214 127 215
f 215 127 216
f 119 199 141
f 199 200 239
f 200 224 239
f 221 220 240
f 224 223 241
f 223 222 241
f 225 242 222
f 221 242 225
f 217 216 243
f 217 244 218
f 226 245 219
f 226 218 246
f 219 245 220
f 128 51 247
f 128 247 52
f 19 127 128
f 142 128 174
f 158 174 248
f 158 248 175
f 155 175 176
f 160 176 249
f 160 249 177
f 162 177 250
f 162 250 178
f 165 178 251
f 165 251 179
f 166 179 180
f 169 180 252
f 169 252 181
f 172 181 253
f 172 253 182
f 184 182 254
f 184 254 185
f 187 185 229
f 128 127 174
f 174 127 248
f 248 127 175
f 175 127 176
f 176 127 249
f 249 127 177
f 177 127 250
f 250 127 178
f 140 141 127
f 190 229 255
f 190 255 230
f 192 230 256
f 192 256 231
f 228 231 257
f 228 257 232
f 207 232 258
f 207 258 233
f 211 233 234
f 213 234 259
f 213 259 235
f 202 235 236
f 198 236 237
f 205 237 238
f 214 238 260
f 214 260 127
f 216 127 243
f 199 261 141
f 199 239 261
f 224 241 262
f 224 262 239
f 220 263 240
f 221 240 242
f 222 264 241
f 222 242 264
f 217 243 244
f 218 244 265
f 226 246 245
f 218 265 246
f 220 245 263
f 178 127 251
f 251 127 179
f 179 127 180
f 180 127 252
f 252 127 181
f 181 127 253
f 253 127 182
f 182 127 254
f 254 127 185
f 185 127 229
f 229 127 255
f 255 127 230
f 230 127 256
f 256 127 231
f 231 127 257
f 257 127 232
f 232 127 258
f 258 127 233
f 233 127 234
f 234 127 259
f 259 127 235
f 235 127 236
f 236 127 237
f 237 127 238
f 238 127 260
f 127 141 261
f 127 261 239
f 127 239 262
f 127 262 241
f 127 241 264
f 127 265 244
f 127 246 265
f 127 264 242
f 127 242 240
f 127 240 263
f 127 245 246
f 127 263 245
f 127 244 243
f 266 267 268
f 269 270 271
f 271 272 273
f 274 275 276
f 274 277 269
f 266 278 275
f 279 50 280
f 273 281 282
f 282 283 284
f 284 285 286
f 286 287 288
f 288 289 290
f 290 291 292
f 292 293 294
f 294 293 279
f 279 295 50
f 266 275 296
f 274 297 275
f 269 271 298
f 274 269 299
f 271 273 300
f 266 301 267
f 273 302 300
f 269 298 299
f 274 299 297
f 275 297 296
f 271 300 298
f 266 296 301
f 267 301 303
f 267 303 304
f 267 305 306
f 267 306 307
f 267 304 308
f 267 308 305
f 267 307 309
f 267 309 310
f 267 310 311
f 267 311 312
f 267 312 313
f 267 314 268
f 299 298 315
f 300 316 298
f 304 317 308
f 297 318 296
f 301 319 303
f 296 320 301
f 299 321 297
f 304 303 322
f 273 282 302
f 282 284 323
f 284 286 324
f 286 288 325
f 288 290 326
f 290 292 327
f 292 294 328
f 282 323 302
f 284 324 323
f 286 325 324
f 288 326 325
f 290 327 326
f 292 328 327
f 294 279 328
f 279 280 329
f 280 330 331
f 332 330 333
f 280 49 330
f 330 49 333
f 279 329 328
f 280 331 329
f 331 330 332
f 334 333 335
f 332 333 334
f 336 335 337
f 334 335 336
f 336 337 338
f 338 339 340
f 338 337 339
f 340 339 341
f 302 323 342
f 300 302 343
f 323 324 344
f 324 325 345
f 325 326 346
f 326 327 347
f 327 328 348
f 328 329 349
f 329 331 350
f 331 332 351
f 332 334 352
f 334 336 353
f 280 50 49
f 333 49 335
f 335 49 337
f 337 49 339
f 339 49 341
f 341 49 354
f 354 49 355
f 267 356 314
f 267 313 356
f 357 358 356
f 313 357 356
f 357 359 358
f 359 360 361
f 358 359 361
f 360 362 361
f 360 363 362
f 363 364 365
f 364 366 367
f 308 368 305
f 306 369 307
f 305 370 306
f 307 371 309
f 309 372 310
f 310 373 311
f 311 374 312
f 312 375 313
f 313 376 357
f 314 356 377
f 356 358 377
f 358 361 378
f 357 379 359
f 359 380 360
f 360 381 363
f 363 382 364
f 364 383 366
f 366 384 385
f 385 386 387
f 387 388 389
f 389 390 391
f 391 392 393
f 393 394 395
f 395 396 397
f 340 341 398
f 398 354 399
f 399 355 400
f 398 341 354
f 399 354 355
f 400 401 402
f 402 403 404
f 400 355 401
f 402 401 403
f 404 405 406
f 406 407 408
f 408 409 410
f 404 403 405
f 406 405 407
f 410 411 412
f 412 413 414
f 414 415 416
f 408 407 409
f 410 409 411
f 336 338 417
f 338 340 418
f 340 398 419
f 398 399 420
f 399 400 421
f 400 402 422
f 402 404 423
f 404 406 424
f 408 410 425
f 406 408 426
f 410 412 427
f 412 414 428
f 414 416 429
f 397 430 431
f 431 432 433
f 433 434 435
f 436 437 438
f 439 438 440
f 436 435 441
f 416 442 443
f 444 445 442
f 444 446 447
f 439 448 446
f 363 365 362
f 364 367 365
f 366 449 367
f 385 450 449
f 366 385 449
f 385 387 450
f 387 389 451
f 389 391 452
f 391 393 453
f 387 451 450
f 389 452 451
f 393 395 454
f 395 397 455
f 391 453 452
f 393 454 453
f 395 455 454
f 397 456 455
f 361 362 457
f 362 365 458
f 365 367 459
f 367 449 460
f 449 450 461
f 450 451 462
f 451 452 463
f 452 453 464
f 453 454 465
f 454 455 466
f 455 456 467
f 444 442 468
f 439 469 438
f 439 446 470
f 444 471 446
f 397 431 456
f 431 433 472
f 433 435 473
f 436 474 435
f 436 438 475
f 416 476 442
f 414 413 415
f 416 415 476
f 412 411 413
f 442 476 468
f 446 471 477
f 444 468 471
f 446 477 470
f 431 472 456
f 433 473 472
f 435 474 473
f 436 475 474
f 438 469 475
f 439 470 469
f 415 52 476
f 468 476 52
f 468 52 471
f 474 475 478
f 469 479 475
f 471 480 477
f 477 481 470
f 470 482 469
f 355 49 401
f 401 49 403
f 403 49 52
f 403 52 405
f 405 52 407
f 407 52 409
f 409 52 411
f 413 411 52
f 413 52 415
f 471 52 247
f 456 472 483
f 472 473 484
f 473 474 485
f 266 486 278
f 266 268 486
f 269 277 270
f 271 270 272
f 273 272 281
f 275 278 276
f 274 276 277
f 282 281 283
f 284 283 285
f 286 285 287
f 288 287 289
f 290 289 291
f 292 291 293
f 279 293 295
f 295 487 51
f 298 316 315
f 300 343 316
f 308 317 368
f 296 318 320
f 301 320 319
f 297 321 318
f 299 315 321
f 303 319 322
f 304 322 317
f 486 268 488
f 276 278 321
f 486 318 278
f 277 316 270
f 276 315 277
f 270 343 272
f 276 321 315
f 278 318 321
f 277 315 316
f 270 316 343
f 486 488 320
f 486 320 318
f 302 342 343
f 323 344 342
f 324 345 344
f 325 346 345
f 326 347 346
f 327 348 347
f 328 349 348
f 329 350 349
f 331 351 350
f 332 352 351
f 334 353 352
f 272 342 281
f 281 344 283
f 283 345 285
f 285 346 287
f 287 347 289
f 289 348 291
f 272 343 342
f 281 342 344
f 283 344 345
f 285 345 346
f 287 346 347
f 289 347 348
f 291 348 349
f 291 349 293
f 293 349 295
f 487 489 51
f 489 490 51
f 295 350 487
f 487 351 489
f 352 490 489
f 295 349 350
f 487 350 351
f 353 491 490
f 351 352 489
f 352 353 490
f 417 492 491
f 353 417 491
f 417 418 492
f 418 419 493
f 418 493 492
f 419 494 493
f 295 51 50
f 490 491 51
f 491 492 51
f 492 493 51
f 493 494 51
f 494 495 51
f 495 496 51
f 496 497 51
f 314 488 268
f 305 368 370
f 306 370 369
f 307 369 371
f 309 371 372
f 310 372 373
f 311 373 374
f 312 374 375
f 313 375 376
f 314 377 488
f 358 378 377
f 361 457 378
f 357 376 379
f 359 379 380
f 360 380 381
f 363 381 382
f 364 382 383
f 366 383 384
f 385 384 386
f 387 386 388
f 389 388 390
f 391 390 392
f 393 392 394
f 395 394 396
f 317 488 368
f 368 488 370
f 370 488 369
f 369 488 371
f 371 488 372
f 372 488 373
f 373 488 374
f 374 488 375
f 320 488 319
f 319 488 322
f 317 322 488
f 375 488 377
f 376 377 378
f 375 377 376
f 376 378 379
f 379 457 380
f 379 378 457
f 380 457 458
f 380 458 381
f 381 459 382
f 382 460 383
f 336 417 353
f 338 418 417
f 340 419 418
f 398 420 419
f 399 421 420
f 400 422 421
f 402 423 422
f 404 424 423
f 406 426 424
f 408 425 426
f 410 427 425
f 412 428 427
f 414 429 428
f 397 396 430
f 431 430 432
f 433 432 434
f 435 434 441
f 439 440 448
f 438 437 440
f 436 441 437
f 416 443 429
f 442 445 443
f 444 447 445
f 446 448 447
f 419 420 494
f 420 421 495
f 420 495 494
f 421 496 495
f 421 422 496
f 422 423 497
f 423 424 498
f 422 497 496
f 423 498 497
f 424 426 499
f 426 425 500
f 425 427 501
f 424 499 498
f 426 500 499
f 427 428 502
f 428 429 503
f 429 443 504
f 425 501 500
f 427 502 501
f 362 458 457
f 365 459 458
f 367 460 459
f 449 461 460
f 450 462 461
f 451 463 462
f 452 464 463
f 453 465 464
f 454 466 465
f 455 467 466
f 381 458 459
f 382 459 460
f 383 460 461
f 384 461 462
f 383 461 384
f 384 462 386
f 386 463 388
f 388 464 390
f 390 465 392
f 386 462 463
f 388 463 464
f 392 466 394
f 394 467 396
f 396 483 430
f 390 464 465
f 392 465 466
f 394 466 467
f 396 467 483
f 474 478 485
f 475 479 478
f 469 482 479
f 477 480 505
f 471 247 480
f 477 505 481
f 470 481 482
f 445 506 443
f 445 447 507
f 437 482 440
f 448 440 481
f 448 480 447
f 432 485 434
f 430 484 432
f 434 478 441
f 437 441 479
f 448 481 505
f 429 504 503
f 443 506 504
f 428 503 502
f 445 507 506
f 447 480 507
f 448 505 480
f 430 483 484
f 432 484 485
f 434 485 478
f 437 479 482
f 440 482 481
f 441 478 479
f 504 506 247
f 507 247 506
f 507 480 247
f 497 247 51
f 497 498 247
f 498 499 247
f 499 500 247
f 500 501 247
f 501 502 247
f 503 247 502
f 503 504 247
f 456 483 467
f 472 484 483
f 473 485 484
f 508 509 41
f 509 42 41
f 510 32 511
f 512 33 510
f 510 33 32
f 512 38 33
f 511 513 514
f 513 515 516
f 515 517 518
f 517 519 520
f 511 34 513
f 513 35 515
f 513 34 35
f 515 36 517
f 517 37 519
f 515 35 36
f 517 36 37
f 511 32 34
f 510 511 521
f 512 510 522
f 512 523 524
f 525 524 523
f 508 525 526
f 510 521 522
f 512 522 523
f 525 523 526
f 512 524 38
f 525 39 524
f 524 39 38
f 525 40 39
f 508 40 525
f 508 41 40
f 511 514 521
f 513 516 514
f 515 527 516
f 515 518 527
f 517 520 518
f 528 529 530
f 530 529 531
f 528 42 509
f 528 530 43
f 528 43 42
f 530 531 44
f 530 44 43
f 531 45 44
f 531 532 533
f 533 534 535
f 535 534 536
f 533 46 45
f 531 533 45
f 533 535 46
f 535 536 47
f 535 47 46
f 508 537 509
f 508 526 537
f 528 509 538
f 509 537 539
f 509 539 538
f 528 538 529
f 531 529 540
f 531 540 532
f 533 532 534
f 536 534 541
f 536 541 542
f 542 541 543
f 542 544 545
f 542 543 544
f 545 544 546
f 536 542 102
f 536 102 47
f 542 60 102
f 542 545 60
f 545 103 60
f 546 547 548
f 548 547 549
f 545 546 103
f 546 548 104
f 546 104 103
f 548 549 105
f 548 105 104
f 549 106 105
f 546 544 550
f 546 550 547
f 549 547 551
f 549 551 552
f 549 552 553
f 549 553 106
f 553 554 107
f 553 107 106
f 554 108 107
f 553 552 554
f 554 552 555
f 554 555 556
f 556 555 557
f 558 557 559
f 556 557 558
f 560 559 561
f 558 559 560
f 562 561 563
f 554 556 108
f 556 109 108
f 564 563 565
f 560 561 562
f 562 563 564
f 556 558 109
f 558 560 110
f 558 110 109
f 560 111 110
f 560 562 111
f 562 564 112
f 562 112 111
f 564 113 112
f 566 565 567
f 564 565 566
f 568 567 569
f 568 569 570
f 571 570 572
f 566 567 568
f 568 570 571
f 571 572 573
f 564 566 113
f 566 568 114
f 566 114 113
f 568 115 114
f 568 571 115
f 571 573 116
f 571 116 115
f 573 117 116
f 519 574 520
f 574 575 576
f 575 577 578
f 577 579 580
f 519 48 574
f 574 143 575
f 519 37 48
f 574 48 143
f 575 144 577
f 575 143 144
f 577 144 145
f 577 145 579
f 579 146 581
f 581 147 582
f 579 145 146
f 581 146 147
f 574 583 520
f 574 576 583
f 575 578 576
f 577 580 578
f 579 584 580
f 579 581 584
f 581 582 585
f 582 586 585
f 581 585 584
f 586 587 585
f 588 589 587
f 586 588 587
f 588 590 589
f 582 148 586
f 586 149 588
f 582 147 148
f 586 148 149
f 588 150 590
f 588 149 150
f 590 151 591
f 590 150 151
f 590 592 589
f 590 591 593
f 590 593 592
f 591 594 595
f 591 595 593
f 596 597 595
f 596 598 597
f 599 600 598
f 594 596 595
f 591 152 594
f 591 151 152
f 594 152 153
f 594 153 596
f 596 154 599
f 596 153 154
f 596 599 598
f 599 601 600
f 601 602 600
f 602 603 600
f 602 604 603
f 599 154 156
f 599 156 601
f 601 164 602
f 601 156 164
f 602 164 167
f 605 606 607
f 605 608 606
f 609 610 608
f 609 611 610
f 612 613 611
f 614 612 611
f 602 615 604
f 615 607 604
f 615 616 607
f 616 605 607
f 602 167 615
f 615 170 616
f 615 167 170
f 616 173 605
f 616 170 173
f 605 617 608
f 617 609 608
f 609 614 611
f 605 188 617
f 617 188 189
f 605 173 188
f 617 189 609
f 609 191 614
f 609 189 191
f 618 619 620
f 621 622 623
f 624 625 622
f 626 623 613
f 626 613 612
f 621 623 626
f 627 628 625
f 629 620 628
f 627 625 624
f 624 622 621
f 621 626 197
f 626 195 197
f 630 572 631
f 632 631 633
f 634 633 635
f 634 635 619
f 634 619 618
f 573 572 630
f 630 631 632
f 632 633 634
f 632 201 118
f 632 634 201
f 634 618 203
f 634 203 201
f 618 204 203
f 629 628 627
f 618 620 629
f 627 210 212
f 624 621 208
f 627 624 210
f 624 208 210
f 621 197 208
f 618 629 204
f 629 627 212
f 629 212 204
f 614 193 612
f 614 191 193
f 612 193 195
f 626 612 195
f 573 630 117
f 630 632 118
f 630 118 117
f 636 637 514
f 636 514 516
f 637 638 521
f 638 639 522
f 638 522 521
f 637 521 514
f 640 636 516
f 640 516 527
f 640 527 641
f 641 527 518
f 641 518 642
f 642 518 520
f 639 643 523
f 639 523 522
f 643 644 526
f 643 526 523
f 644 537 526
f 644 645 537
f 646 647 538
f 647 529 538
f 645 539 537
f 645 646 539
f 646 538 539
f 640 648 636
f 640 641 648
f 641 642 648
f 638 648 639
f 643 648 644
f 644 648 645
f 639 648 643
f 636 648 637
f 637 648 638
f 647 649 529
f 649 540 529
f 649 650 540
f 650 532 540
f 646 648 647
f 647 648 649
f 650 651 532
f 651 534 532
f 651 652 534
f 652 541 534
f 649 648 650
f 650 648 651
f 651 648 652
f 645 648 646
f 652 653 541
f 653 543 541
f 653 654 543
f 652 648 653
f 653 648 654
f 654 648 655
f 654 655 544
f 654 544 543
f 655 656 550
f 655 550 544
f 655 648 656
f 656 648 657
f 657 648 658
f 656 657 547
f 656 547 550
f 657 658 551
f 657 551 547
f 658 552 551
f 658 648 659
f 658 659 552
f 659 555 552
f 659 660 555
f 660 661 557
f 660 557 555
f 659 648 660
f 660 648 661
f 661 648 662
f 662 648 663
f 663 648 664
f 664 648 665
f 665 648 666
f 666 648 667
f 667 648 668
f 668 648 669
f 661 559 557
f 661 662 559
f 662 663 561
f 662 561 559
f 663 664 563
f 663 563 561
f 664 565 563
f 664 665 565
f 665 666 567
f 665 567 565
f 666 667 569
f 666 569 567
f 667 570 569
f 667 668 570
f 668 669 572
f 668 572 570
f 642 520 670
f 670 520 583
f 670 583 671
f 671 583 576
f 671 576 672
f 672 576 578
f 672 578 673
f 673 578 580
f 673 580 674
f 674 580 584
f 674 584 675
f 675 584 585
f 642 670 648
f 670 671 648
f 671 672 648
f 672 673 648
f 673 674 648
f 674 675 648
f 675 676 648
f 676 677 648
f 677 678 648
f 675 585 676
f 676 585 587
f 676 587 677
f 677 587 589
f 677 589 678
f 678 589 592
f 678 592 679
f 679 592 593
f 679 593 680
f 680 593 595
f 680 595 681
f 678 679 648
f 679 680 648
f 680 681 648
f 681 595 597
f 681 597 682
f 682 597 598
f 682 598 683
f 681 682 648
f 682 683 648
f 683 684 648
f 683 598 600
f 683 600 684
f 684 600 603
f 684 603 685
f 684 685 648
f 648 685 686
f 648 686 687
f 685 603 604
f 686 604 607
f 685 604 686
f 648 687 688
f 648 688 689
f 648 689 690
f 686 607 687
f 687 607 606
f 687 606 688
f 688 606 608
f 648 691 692
f 648 692 693
f 648 693 694
f 648 695 669
f 648 696 695
f 648 697 696
f 648 698 699
f 648 699 697
f 648 694 700
f 648 700 698
f 648 690 691
f 688 608 689
f 689 608 610
f 689 610 690
f 690 610 611
f 690 611 691
f 691 611 613
f 691 613 692
f 692 613 623
f 692 623 693
f 693 623 622
f 700 628 698
f 698 628 620
f 697 635 696
f 696 635 633
f 695 631 669
f 669 631 572
f 695 633 631
f 695 696 633
f 699 620 619
f 699 619 697
f 697 619 635
f 698 620 699
f 693 622 694
f 694 622 625
f 694 625 700
f 700 625 628

